<?xml version="1.0" standalone="no"?>
<!DOCTYPE svg PUBLIC "-//W3C//DTD SVG 20010904//EN"
 "http://www.w3.org/TR/2001/REC-SVG-20010904/DTD/svg10.dtd">
<svg version="1.0" xmlns="http://www.w3.org/2000/svg"
 width="1600.000000pt" height="2560.000000pt" viewBox="0 0 1600.000000 2560.000000"
 preserveAspectRatio="xMidYMid meet">
<metadata>
Created by potrace 1.16, written by Peter Selinger 2001-2019
</metadata>
<g transform="translate(0.000000,2560.000000) scale(0.100000,-0.100000)"
fill="#000000" stroke="none">
<path d="M15935 19859 c-102 -21 -156 -33 -230 -51 -44 -11 -118 -28 -165 -38
-47 -9 -103 -22 -125 -28 -22 -6 -74 -16 -115 -23 -41 -6 -95 -17 -120 -24
-49 -14 -229 -51 -324 -66 -32 -5 -104 -20 -160 -33 -55 -13 -146 -34 -201
-46 -55 -12 -120 -26 -145 -31 -105 -24 -160 -72 -160 -142 0 -13 -4 -27 -8
-32 -22 -25 -37 -138 -37 -281 0 -161 4 -177 52 -195 22 -8 22 -11 26 -231 2
-123 7 -331 10 -463 3 -132 1 -303 -4 -381 -5 -77 -8 -424 -8 -770 1 -863 -1
-954 -14 -992 -9 -25 -8 -37 1 -52 7 -11 12 -43 12 -72 0 -48 -1 -51 -13 -29
-6 13 -33 41 -58 63 -42 36 -53 39 -138 49 -71 9 -106 9 -152 -1 -32 -7 -59
-16 -59 -19 0 -4 -22 -13 -50 -20 -27 -7 -53 -17 -56 -22 -3 -5 -21 -16 -41
-24 -19 -8 -51 -28 -69 -45 -19 -16 -40 -30 -47 -30 -7 0 -37 25 -69 54 -32
31 -73 59 -95 66 -21 6 -47 15 -58 20 -24 9 -164 40 -183 40 -20 0 -60 50 -79
100 -9 25 -20 47 -24 50 -3 3 -10 20 -14 39 -16 73 -45 118 -109 169 -22 18
-63 32 -91 32 -27 0 -29 2 -85 79 -36 47 -40 59 -40 111 0 33 -4 61 -9 64 -5
3 -14 27 -20 53 -31 120 -98 215 -182 258 -41 20 -70 25 -179 31 -113 6 -130
9 -135 25 -4 10 -22 45 -41 76 -39 64 -107 204 -119 243 -12 41 -57 101 -85
112 -14 5 -63 16 -109 23 -46 8 -90 20 -98 28 -7 7 -16 44 -20 83 -7 79 -25
117 -69 145 -42 25 -118 25 -167 -1 -20 -11 -42 -20 -48 -20 -6 0 -47 -20 -92
-45 -63 -36 -99 -49 -171 -61 -50 -9 -96 -20 -102 -25 -7 -5 -43 -16 -81 -24
-117 -25 -158 -56 -185 -146 -18 -59 -78 -170 -89 -163 -5 3 -9 18 -9 34 0 16
-4 32 -10 35 -5 3 -10 28 -10 55 0 27 -4 59 -10 72 -8 20 -23 278 -34 586 -3
85 -15 126 -32 109 -4 -3 -10 -42 -15 -86 -4 -45 -11 -86 -15 -93 -4 -7 -11
-69 -16 -138 -4 -69 -13 -156 -19 -195 -5 -38 -12 -141 -15 -227 -3 -87 -8
-158 -10 -158 -2 0 -22 11 -43 24 -21 14 -55 32 -75 40 -20 8 -36 19 -36 24 0
18 -87 64 -149 78 -36 8 -79 21 -96 29 -16 7 -46 16 -65 20 l-36 6 1 77 c0 98
-22 144 -116 241 -52 53 -78 73 -111 81 -24 7 -65 19 -91 27 -43 14 -52 14
-86 1 -45 -18 -64 -11 -87 35 -18 35 -72 86 -91 87 -7 0 -13 3 -13 8 0 10 -74
109 -113 151 -64 67 -166 89 -243 52 -36 -18 -86 -63 -141 -125 l-21 -25 -53
19 c-29 11 -64 30 -78 43 -14 13 -45 36 -68 51 -40 27 -48 28 -118 24 -50 -3
-81 -10 -93 -22 -10 -9 -22 -16 -27 -16 -22 0 -73 -53 -99 -101 -15 -30 -39
-70 -53 -89 -20 -29 -24 -43 -20 -83 5 -56 2 -59 -106 -87 -91 -24 -156 -60
-236 -130 -73 -65 -121 -132 -121 -172 0 -16 -14 -46 -34 -73 -19 -24 -37 -59
-41 -77 -9 -42 -22 -58 -48 -58 -44 0 -142 -79 -190 -155 -32 -49 -32 -50 -32
-180 1 -71 4 -154 8 -182 l8 -53 -48 0 c-83 0 -190 -51 -252 -119 -47 -52 -71
-83 -71 -91 0 -4 -25 -23 -56 -41 -31 -19 -69 -44 -85 -57 -27 -22 -33 -23
-76 -12 -57 13 -62 13 -89 5 -22 -7 -41 12 -113 110 -43 59 -63 71 -137 91
-120 31 -504 -3 -504 -46 0 -5 -6 -10 -14 -10 -32 0 -226 -206 -226 -240 0 -6
-4 -10 -8 -10 -4 0 -32 -16 -61 -35 -30 -18 -67 -37 -83 -40 -15 -4 -41 -13
-57 -21 -16 -8 -56 -20 -88 -27 -32 -6 -60 -14 -63 -18 -3 -3 -21 -9 -41 -13
-54 -10 -192 -135 -203 -185 -4 -14 -9 -85 -13 -156 -5 -110 -3 -136 11 -162
9 -18 16 -37 16 -43 0 -21 -59 -10 -91 18 -33 27 -34 27 -183 27 -124 0 -156
-3 -181 -17 -16 -9 -46 -25 -65 -35 -49 -24 -70 -43 -70 -64 0 -10 -20 -30
-49 -47 -26 -17 -72 -52 -102 -78 l-54 -48 -3 52 c-2 31 3 62 12 79 8 16 17
49 21 74 6 42 5 48 -20 67 -30 24 -45 21 -45 -9 0 -29 -27 -77 -51 -89 -15 -8
-39 -8 -92 2 -117 21 -234 17 -285 -9 -23 -13 -48 -23 -55 -23 -24 0 -98 -64
-117 -100 -33 -62 -56 -80 -106 -80 -34 0 -62 -9 -109 -35 -56 -32 -66 -34
-84 -23 -12 7 -21 16 -21 20 0 4 -18 27 -39 52 -42 49 -57 96 -70 223 -6 59
-12 76 -34 99 -23 22 -35 26 -78 25 -40 0 -55 -5 -66 -21 -13 -18 -21 -20 -60
-14 -60 9 -127 47 -161 92 -63 84 -233 225 -302 251 -19 7 -48 19 -65 26 -43
19 -160 33 -232 27 -44 -3 -74 1 -107 13 l-46 18 0 76 c1 60 7 91 29 146 36
90 33 100 -33 90 -268 -38 -280 -42 -369 -127 -38 -35 -59 -64 -63 -86 -4 -17
-10 -32 -15 -32 -4 0 -11 -10 -14 -22 -7 -24 -63 -88 -76 -88 -4 0 -20 -5 -36
-12 -15 -6 -66 -19 -113 -29 -47 -10 -86 -23 -88 -29 -2 -5 -9 -10 -17 -10
-38 0 -245 -185 -299 -266 -24 -37 -32 -42 -78 -48 -28 -4 -79 -20 -112 -35
-34 -16 -78 -34 -99 -41 -21 -6 -41 -19 -44 -27 -6 -15 13 -123 27 -158 5 -11
13 -42 20 -69 13 -58 51 -142 81 -180 30 -38 36 -96 13 -123 -11 -12 -60 -35
-118 -54 -88 -29 -107 -39 -169 -96 -39 -35 -75 -63 -81 -63 -6 0 -49 -4 -95
-10 -91 -10 -135 -32 -221 -111 -43 -39 -47 -40 -94 -34 -27 3 -57 10 -67 16
-12 6 -27 4 -48 -9 l-31 -17 0 -477 c0 -312 3 -478 10 -478 6 0 10 -16 10 -35
0 -22 6 -38 15 -41 8 -4 15 -13 15 -21 0 -10 6 -12 20 -8 11 4 20 2 20 -4 0
-6 -11 -11 -24 -11 -14 0 -28 -4 -31 -10 -4 -6 18 -10 59 -10 74 0 74 -1 77
95 3 64 15 85 49 85 20 0 20 -1 6 -22 -23 -32 -20 -50 6 -46 17 2 23 9 22 26
0 13 5 22 14 22 9 0 13 -7 9 -19 -2 -11 3 -25 14 -35 11 -9 19 -23 19 -32 0
-13 8 -15 41 -11 24 3 46 12 51 21 12 22 28 11 28 -20 0 -13 5 -24 10 -24 6 0
10 -6 10 -13 0 -7 9 -18 20 -25 17 -10 21 -10 26 3 4 8 14 15 24 15 11 0 22 5
25 10 13 21 25 9 25 -25 0 -33 -2 -35 -35 -35 -25 0 -35 -4 -35 -16 0 -8 -6
-22 -14 -29 -10 -10 -12 -33 -8 -86 4 -60 2 -74 -12 -85 -10 -7 -13 -15 -7
-18 9 -6 36 14 43 33 3 10 22 14 51 12 13 -1 17 -10 17 -36 l0 -35 -51 0 c-43
0 -50 -3 -45 -16 3 -9 6 -19 6 -24 0 -4 20 -5 45 -2 45 5 45 4 45 -27 0 -17
-4 -31 -9 -31 -18 0 -21 -33 -4 -47 17 -13 16 -14 -6 -9 -23 5 -56 -16 -44
-28 4 -3 19 -6 35 -6 29 0 29 0 26 -57 -3 -53 -5 -58 -28 -61 -39 -6 -49 -22
-13 -22 33 0 53 -15 31 -23 -10 -3 -11 -9 0 -26 7 -13 12 -59 12 -120 0 -94
-1 -100 -22 -107 -13 -4 -24 -2 -26 5 -2 6 -10 11 -17 11 -9 0 -12 11 -8 39 7
48 -23 90 -52 74 -9 -6 -50 -8 -91 -5 -51 3 -74 1 -74 -7 0 -14 -37 -15 -42
-1 -2 6 -52 12 -121 15 l-117 4 0 -74 0 -74 52 -3 c29 -2 78 0 108 4 75 10
120 1 120 -23 0 -11 -4 -19 -10 -19 -5 0 -10 -7 -10 -15 0 -8 -4 -15 -10 -15
-5 0 -10 -6 -10 -12 -1 -20 -36 -58 -54 -58 -9 0 -16 -3 -16 -7 0 -5 -21 -21
-45 -38 -25 -16 -45 -33 -45 -37 0 -5 -4 -8 -10 -8 -5 0 -23 -13 -40 -30 -26
-26 -30 -36 -30 -85 0 -56 9 -66 35 -42 31 27 44 37 50 37 4 0 22 16 41 35 18
19 40 35 49 35 8 0 15 5 15 11 0 11 25 39 35 39 9 0 35 27 35 37 0 4 11 20 25
35 14 15 25 32 25 38 0 5 4 10 9 10 11 0 19 -41 16 -85 -2 -31 1 -35 22 -35
29 0 29 -5 -2 -34 -20 -18 -25 -33 -25 -70 0 -46 -6 -52 -48 -47 -19 3 -28
-30 -10 -40 16 -9 13 -69 -3 -69 -5 0 -9 -7 -9 -15 0 -12 -6 -14 -27 -8 -33 9
-76 9 -155 -2 -69 -9 -77 -26 -13 -23 25 0 51 -4 57 -10 9 -9 -4 -12 -55 -12
l-67 0 0 -240 c0 -222 1 -240 18 -240 16 -1 16 -1 0 -14 -10 -7 -18 -23 -18
-35 0 -17 6 -21 35 -21 19 0 35 -4 35 -8 0 -4 23 -16 50 -27 28 -11 50 -23 50
-27 0 -4 11 -8 25 -8 25 0 31 -2 93 -33 19 -9 42 -17 53 -17 10 0 19 -4 19
-10 0 -5 12 -10 28 -10 15 0 36 -7 46 -15 11 -8 30 -15 43 -15 13 0 23 -4 23
-10 0 -5 14 -10 30 -10 17 0 30 -4 30 -9 0 -5 18 -11 40 -15 22 -3 40 -11 40
-16 0 -6 11 -10 25 -10 14 0 25 -4 25 -10 0 -5 16 -10 35 -10 19 0 35 -4 35
-10 0 -5 10 -10 23 -10 13 0 32 -7 43 -15 10 -8 31 -15 47 -15 15 0 27 -4 27
-10 0 -5 9 -10 20 -10 11 0 45 -11 76 -25 31 -14 65 -25 74 -25 10 0 20 -4 22
-10 1 -5 18 -10 35 -12 18 -1 33 -6 33 -10 0 -4 16 -10 35 -14 19 -3 35 -10
35 -15 0 -5 16 -9 35 -9 19 0 35 -4 35 -10 0 -5 10 -10 23 -10 13 0 32 -7 43
-15 10 -8 29 -15 42 -15 12 0 22 -4 22 -10 0 -5 13 -10 29 -10 16 0 31 -4 33
-9 1 -6 16 -12 32 -15 16 -3 34 -10 40 -16 5 -5 23 -10 38 -10 15 0 28 -4 28
-10 0 -5 11 -10 24 -10 14 0 27 -4 30 -9 3 -5 22 -12 41 -15 19 -4 35 -11 35
-16 0 -6 13 -10 29 -10 17 0 33 -4 36 -10 3 -5 15 -10 26 -10 11 0 22 -7 25
-15 4 -9 19 -15 35 -15 16 0 29 -4 29 -10 0 -5 -9 -10 -20 -10 -13 0 -20 -7
-20 -19 0 -24 -39 -39 -51 -20 -6 10 -31 14 -81 14 -65 0 -73 2 -76 20 -3 20
-59 55 -87 55 -8 0 -15 5 -15 10 0 6 -16 10 -35 10 -19 0 -35 5 -35 10 0 6
-10 10 -22 10 -13 1 -34 7 -48 15 -14 8 -35 14 -47 15 -13 0 -23 5 -23 10 0 6
-13 10 -30 10 -16 0 -30 4 -30 9 0 5 -16 12 -35 15 -19 4 -35 11 -35 16 0 6
-13 10 -30 10 -16 0 -30 5 -30 10 0 6 -13 10 -29 10 -17 0 -32 4 -36 9 -3 5
-19 12 -35 16 -17 4 -30 11 -30 16 0 5 -16 9 -35 9 -19 0 -35 5 -35 10 0 6
-13 10 -30 10 -16 0 -30 4 -30 10 0 5 -16 12 -35 16 -19 3 -35 10 -35 15 0 5
-13 9 -29 9 -16 0 -31 3 -33 8 -4 9 -100 42 -122 42 -10 0 -14 5 -11 10 4 6
-6 10 -24 10 -16 0 -32 4 -36 9 -3 5 -19 12 -35 16 -17 4 -30 11 -30 16 0 5
-13 9 -30 9 -16 0 -30 5 -30 10 0 6 -10 10 -22 10 -13 0 -32 7 -42 15 -11 8
-28 15 -38 15 -10 0 -18 5 -18 10 0 6 -13 10 -30 10 -16 0 -30 5 -30 10 0 6
-8 10 -18 10 -10 0 -27 7 -38 15 -10 8 -27 15 -36 15 -10 0 -18 5 -18 10 0 6
-11 10 -25 10 -14 0 -25 4 -25 9 0 5 -16 12 -35 15 -19 4 -35 11 -35 16 0 6
-11 10 -25 10 -14 0 -25 5 -25 10 0 6 -4 10 -10 10 -14 0 -13 -133 2 -148 7
-7 20 -12 31 -12 10 0 25 -7 33 -15 9 -8 26 -15 40 -15 13 0 24 -4 24 -10 0
-5 9 -10 20 -10 11 0 45 -11 76 -25 31 -14 65 -25 75 -25 11 0 19 -4 19 -10 0
-5 11 -10 25 -10 14 0 25 -4 25 -9 0 -5 16 -12 35 -15 19 -4 35 -11 35 -16 0
-6 16 -10 35 -10 19 0 35 -4 35 -10 0 -5 9 -10 21 -10 11 0 27 -7 35 -15 9 -8
26 -15 40 -15 13 0 24 -4 24 -10 0 -5 11 -10 25 -10 14 0 25 -4 25 -10 0 -5
10 -10 23 -10 12 -1 33 -7 47 -15 14 -8 35 -14 48 -15 12 0 22 -4 22 -10 0 -5
11 -10 25 -10 14 0 25 -4 25 -9 0 -5 16 -12 35 -15 19 -4 35 -11 35 -16 0 -6
11 -10 25 -10 14 0 25 -4 25 -10 0 -5 12 -10 28 -10 15 0 36 -7 46 -15 11 -8
28 -15 38 -15 10 0 18 -4 18 -10 0 -5 14 -10 30 -10 17 0 30 -4 30 -10 0 -5 8
-10 18 -10 10 0 27 -7 38 -15 10 -8 29 -15 42 -15 12 0 22 -4 22 -10 0 -5 14
-10 30 -10 17 0 30 -4 30 -9 0 -5 13 -12 30 -16 16 -4 32 -11 35 -16 4 -5 19
-9 35 -9 24 0 40 -15 40 -37 0 -6 -157 3 -197 12 -18 4 -33 11 -33 16 0 5 -10
9 -23 9 -13 0 -47 11 -75 25 -29 14 -61 25 -72 25 -11 0 -20 5 -20 10 0 6 -11
10 -25 10 -14 0 -25 4 -25 9 0 5 -16 12 -35 15 -19 4 -35 11 -35 16 0 6 -11
10 -25 10 -14 0 -25 5 -25 10 0 6 -9 10 -20 10 -22 0 -93 31 -98 43 -2 4 -17
7 -33 7 -16 0 -29 5 -29 10 0 6 -11 10 -24 10 -13 0 -29 7 -36 15 -7 8 -23 15
-36 15 -13 0 -24 5 -24 10 0 6 -11 10 -25 10 -14 0 -25 4 -25 9 0 5 -13 12
-30 16 -16 4 -32 11 -35 16 -4 5 -17 9 -31 9 -13 0 -24 5 -24 10 0 6 -10 10
-23 10 -13 0 -28 5 -35 12 -6 6 -22 13 -34 15 -13 2 -25 8 -26 13 -2 6 -14 10
-27 10 -13 0 -26 4 -30 9 -3 5 -19 12 -35 16 -17 4 -30 11 -30 16 0 5 -14 9
-31 9 -17 0 -28 4 -24 10 4 6 -7 10 -24 10 -17 0 -31 4 -31 9 0 5 -13 12 -30
16 -16 4 -32 11 -35 16 -4 5 -13 9 -21 9 -12 0 -14 -44 -14 -285 l0 -285 119
0 c69 0 122 4 126 10 8 13 85 13 85 -1 0 -5 -5 -7 -10 -4 -6 3 -13 -1 -16 -9
-5 -14 -29 -16 -155 -16 l-149 0 0 -745 0 -745 25 -6 c14 -3 25 -10 25 -15 0
-12 52 -11 84 1 17 6 26 6 26 0 0 -6 -9 -10 -20 -10 -11 0 -20 -4 -20 -10 0
-5 12 -10 28 -10 15 0 36 -7 46 -15 11 -8 30 -15 43 -15 13 0 23 -4 23 -10 0
-5 16 -10 35 -10 19 0 35 5 35 10 0 6 7 10 15 10 8 0 15 -4 15 -10 0 -5 -7
-10 -15 -10 -8 0 -15 -4 -15 -10 0 -5 10 -10 23 -10 13 0 32 -7 43 -15 22 -16
74 -20 74 -5 0 6 7 10 15 10 8 0 15 -4 15 -10 0 -5 -4 -10 -9 -10 -5 0 -12
-16 -15 -35 -4 -19 -11 -35 -16 -35 -6 0 -10 -7 -10 -16 0 -8 -4 -12 -10 -9
-5 3 -10 -1 -10 -9 0 -10 -9 -16 -25 -16 -14 0 -25 4 -25 10 0 5 -16 12 -35
16 -19 3 -35 10 -35 15 0 5 -16 9 -35 9 -19 0 -35 5 -35 10 0 6 -10 10 -23 10
-13 0 -32 7 -43 15 -10 8 -29 15 -41 15 -13 0 -23 5 -23 10 0 6 -16 10 -35 10
-19 0 -35 5 -35 10 0 6 -9 10 -20 10 -20 0 -20 -7 -20 -311 l0 -312 70 6 c41
3 70 2 70 -4 0 -5 7 -9 15 -9 12 0 15 -18 15 -99 0 -58 -4 -103 -10 -106 -6
-4 -27 3 -46 14 -19 12 -44 21 -55 21 -10 0 -19 5 -19 10 0 6 -9 10 -20 10
-19 0 -20 -7 -20 -139 l0 -138 51 -27 c28 -14 58 -26 68 -26 24 0 42 -35 32
-62 -5 -15 -3 -34 5 -53 22 -51 15 -133 -10 -108 -4 4 -14 8 -24 9 -9 2 -18 8
-20 13 -2 6 -14 11 -27 11 -13 0 -25 4 -27 9 -2 4 -13 12 -25 15 l-23 7 0
-180 0 -181 25 0 c14 0 25 -4 25 -8 0 -5 20 -17 45 -28 25 -10 45 -22 45 -26
0 -4 7 -8 15 -8 8 0 15 -6 15 -14 0 -8 6 -17 13 -19 9 -4 9 -8 1 -14 -14 -10
-13 -95 1 -105 6 -5 5 -8 -4 -8 -7 0 -11 -6 -8 -14 3 -8 -1 -17 -9 -20 -17 -6
-44 3 -44 15 0 5 -11 9 -25 9 -14 0 -25 4 -25 10 0 5 -11 12 -25 16 -14 3 -25
10 -25 15 0 5 -4 9 -10 9 -6 0 -10 -77 -10 -210 l0 -210 25 -6 c14 -3 25 -10
25 -15 0 -5 9 -9 20 -9 11 0 20 -4 20 -9 0 -5 11 -12 25 -15 14 -4 25 -11 25
-16 0 -6 5 -10 11 -10 36 0 57 -101 23 -114 -22 -9 -34 -7 -34 4 0 12 -98 110
-110 110 -6 0 -10 5 -10 10 0 6 -4 10 -10 10 -7 0 -10 -1132 -10 -3375 l0
-3375 8000 0 8000 0 0 3089 0 3090 -52 -5 c-29 -3 -125 -8 -213 -10 -106 -4
-163 -9 -168 -17 -6 -9 -10 -9 -14 1 -6 14 -63 17 -63 2 0 -6 -52 -10 -135
-10 l-135 0 0 35 c0 19 4 35 9 35 6 0 9 9 8 19 0 11 -5 17 -9 15 -4 -3 -8 78
-8 180 0 184 0 186 23 191 27 6 120 12 345 21 94 4 172 11 172 16 0 4 54 8
120 8 l120 0 0 130 0 130 -166 0 c-96 0 -163 -4 -160 -9 4 -5 -92 -11 -226
-14 -128 -3 -267 -8 -308 -10 -41 -3 -174 -8 -295 -11 -121 -4 -224 -11 -229
-16 -6 -6 -83 -10 -178 -10 -105 0 -168 -4 -168 -10 0 -13 -37 -13 -45 0 -8
13 -72 13 -80 0 -4 -6 -91 -10 -230 -10 -141 0 -225 -4 -227 -10 -2 -8 -419
-17 -512 -11 -45 3 -2 12 80 17 49 3 90 10 92 14 2 5 13 6 25 1 26 -9 117 10
118 24 0 6 12 9 27 7 46 -4 71 6 65 27 -4 14 3 20 29 26 18 5 41 8 51 7 13 -1
17 6 17 28 0 30 14 41 23 18 3 -10 12 -9 35 5 38 22 74 23 66 2 -8 -20 22 -20
42 -1 9 10 11 17 3 21 -5 4 -120 8 -255 8 -185 2 -245 5 -249 15 -3 9 27 12
133 12 76 0 142 4 147 9 6 5 84 12 175 16 207 9 210 9 210 16 0 3 35 6 77 7
48 2 80 7 85 15 6 9 12 7 20 -8 19 -31 18 -47 -2 -52 -11 -3 -16 -11 -13 -19
3 -8 9 -11 14 -8 8 4 14 -67 10 -103 -1 -7 2 -13 8 -13 5 0 11 123 15 302 3
167 8 364 10 438 7 204 15 753 16 1043 0 141 3 257 8 257 4 0 14 -5 22 -10 12
-8 13 -11 1 -19 -11 -7 -11 -9 0 -14 10 -4 10 -6 2 -6 -10 -1 -13 -69 -13
-307 0 -201 3 -303 10 -299 6 4 10 -7 10 -24 0 -17 -4 -31 -10 -31 -6 0 -10
-33 -10 -80 0 -47 4 -80 10 -80 14 0 12 -66 -2 -90 -10 -16 -10 -24 0 -41 9
-14 15 -70 18 -168 5 -164 12 -303 18 -341 2 -14 4 -33 5 -42 0 -11 9 -18 20
-18 13 0 21 10 25 34 7 37 27 51 45 33 9 -9 10 -8 5 7 -5 13 -4 17 4 12 8 -5
12 20 14 86 l3 93 60 -3 c33 -2 64 -8 70 -13 5 -5 35 -9 67 -9 32 0 58 -4 58
-10 0 -5 7 -10 15 -10 10 0 15 10 15 30 0 17 5 30 10 30 6 0 10 14 10 30 0 17
-4 30 -10 30 -5 0 -10 14 -10 30 0 17 5 30 10 30 7 0 10 182 10 525 l0 525
-34 0 c-19 0 -38 5 -41 10 -3 6 -35 10 -71 10 l-64 0 0 48 c0 45 2 49 33 60
18 7 71 12 118 12 73 0 86 -3 96 -20 8 -12 9 -21 3 -25 -6 -4 -10 -109 -10
-273 0 -176 4 -262 10 -252 7 11 10 7 10 -18 0 -20 -4 -31 -10 -27 -6 4 -10
-45 -10 -139 0 -86 4 -146 10 -148 6 -2 10 -105 11 -272 0 -213 3 -275 15
-297 8 -16 14 -39 14 -52 0 -13 3 -27 7 -31 4 -4 9 -19 11 -33 2 -15 7 -34 12
-42 7 -12 9 -6 10 22 0 36 24 87 40 87 4 0 11 -19 16 -42 8 -40 9 -36 14 47
l5 90 35 3 c61 6 59 22 -3 22 -50 0 -57 2 -57 19 0 22 16 37 22 21 2 -6 33
-13 71 -17 37 -3 67 -10 67 -14 0 -5 24 -9 53 -9 29 0 58 -5 64 -11 28 -28 33
5 33 207 0 129 4 204 10 204 6 0 10 133 10 379 l0 379 -45 6 c-25 4 -45 11
-45 17 0 5 -12 9 -26 9 -14 0 -23 4 -19 10 3 6 31 10 61 10 l54 0 0 85 0 85
-52 1 c-29 1 -56 1 -60 0 -5 0 -8 3 -8 9 0 6 42 10 108 10 105 -1 107 -1 85
-19 -13 -11 -18 -22 -13 -27 5 -5 5 -26 0 -49 -12 -48 -10 -184 2 -191 4 -3 5
-11 1 -17 -12 -18 -13 -337 -1 -337 6 0 8 -17 4 -42 -16 -108 -18 -168 -7
-168 6 0 11 -7 11 -15 0 -8 -4 -15 -10 -15 -5 0 -10 -5 -10 -11 0 -5 5 -7 10
-4 6 4 10 -13 10 -45 0 -36 4 -52 15 -56 18 -7 20 -24 2 -24 -21 0 -19 -47 2
-53 17 -4 19 -20 26 -171 4 -91 11 -166 16 -166 5 0 9 -24 9 -53 l0 -52 41
-13 c29 -9 45 -10 52 -3 8 8 3 11 -17 11 -25 0 -56 19 -56 35 0 4 7 14 16 22
13 14 21 14 48 5 18 -7 47 -12 65 -12 19 0 30 -4 26 -10 -4 -6 7 -10 24 -10
17 0 31 5 31 10 0 6 9 2 21 -8 11 -11 38 -22 60 -26 21 -3 39 -11 39 -16 0 -6
11 -10 25 -10 21 0 25 5 25 31 0 18 -7 37 -15 43 -13 10 -13 14 0 40 12 22 15
71 15 232 l0 204 -52 0 c-39 0 -49 3 -38 10 8 6 32 8 53 4 l37 -6 0 324 0 325
-26 13 c-20 11 -27 12 -33 1 -5 -7 -22 -11 -42 -9 -32 3 -34 5 -37 46 -4 47
-22 58 -22 13 0 -44 -32 -50 -97 -18 -17 8 -23 19 -23 44 0 18 -4 33 -10 33
-19 0 -10 39 10 45 21 7 28 25 10 25 -5 0 -10 7 -10 16 0 8 5 12 10 9 6 -3 10
4 10 17 0 18 -2 20 -10 8 -7 -11 -10 3 -10 47 l0 62 153 3 c83 2 159 2 167 0
13 -3 15 -45 12 -319 -2 -217 1 -320 8 -327 8 -8 13 -7 19 2 14 23 21 -24 21
-145 0 -112 -11 -148 -30 -99 -5 14 -12 26 -15 26 -3 0 -4 -36 -3 -80 1 -93
15 -99 17 -7 1 17 7 27 16 27 12 0 14 -34 14 -213 1 -117 5 -226 10 -243 5
-16 12 -80 15 -142 4 -102 14 -142 35 -142 4 0 8 14 9 32 3 37 18 49 49 41
l23 -5 0 250 c0 250 0 251 -22 258 -22 7 -48 28 -48 38 0 3 16 6 35 6 l35 0 0
284 c0 218 -3 286 -12 290 -10 5 -10 7 0 12 17 8 18 8224 1 8256 -20 37 -28
388 -17 723 5 176 12 343 14 370 3 28 7 103 10 167 5 105 3 121 -16 158 -19
38 -21 58 -21 189 1 80 3 157 4 171 2 14 -3 33 -11 42 -11 13 -13 31 -7 75 12
88 10 298 -3 392 -14 98 -11 116 29 136 l29 16 0 324 c0 254 -3 325 -12 324
-7 -1 -31 -5 -53 -10z m-125 -1380 c0 -44 -4 -78 -9 -75 -4 3 -9 -61 -10 -142
-2 -181 -7 -212 -32 -212 -11 0 -19 6 -19 14 0 10 -20 15 -82 18 -53 2 -83 8
-86 16 -2 6 -16 12 -32 12 -32 0 -40 14 -40 75 0 24 -4 45 -10 47 -10 3 -16
251 -5 267 3 6 19 11 35 11 16 0 55 7 87 15 31 8 74 15 95 15 21 0 38 5 38 10
0 6 16 10 35 10 l35 0 0 -81z m-520 -33 c0 -8 -4 -17 -8 -20 -5 -3 -12 -79
-15 -169 -3 -90 -11 -176 -17 -191 -5 -15 -10 -65 -10 -112 l0 -84 -34 0 c-19
0 -41 7 -50 15 -8 8 -32 15 -54 15 -46 0 -52 9 -52 80 0 27 -4 52 -10 55 -5 3
-10 1 -10 -4 0 -24 -21 -9 -27 19 -3 17 -10 33 -14 36 -5 3 -9 41 -9 85 0 51
-4 78 -10 74 -6 -4 -10 22 -10 70 0 88 10 105 64 105 20 0 36 5 36 10 0 6 24
10 53 11 28 0 61 4 72 9 35 15 105 12 105 -4z m-520 -123 c0 -27 -7 -109 -15
-183 -8 -74 -15 -181 -15 -237 l0 -103 -46 0 c-27 0 -43 -4 -39 -10 4 -6 -14
-10 -47 -10 l-53 0 -1 95 c0 59 -5 100 -12 107 -7 7 -12 23 -12 36 0 18 -4 22
-19 17 -20 -6 -31 16 -31 63 0 12 -4 22 -10 22 -6 0 -10 39 -10 98 l0 99 42
12 c23 7 65 15 95 18 29 3 53 10 53 14 0 5 27 9 60 9 l60 0 0 -47z m978 -710
c1 -137 -1 -253 -6 -260 -11 -17 -224 -22 -243 -6 -11 9 -14 54 -12 238 2 263
4 270 77 260 23 -3 59 -2 81 3 22 6 54 10 71 11 l31 1 1 -247z m-525 -25 c-2
-132 -8 -258 -13 -279 -10 -35 -13 -38 -53 -41 -64 -5 -155 6 -169 20 -19 19
-24 460 -6 485 11 15 155 50 229 56 14 1 15 -26 12 -241z m-503 15 c0 -168
-16 -258 -50 -285 -24 -20 -65 -24 -75 -8 -4 6 -30 9 -58 8 l-52 -3 1 60 c1
33 3 89 5 125 1 36 0 89 -2 118 -4 41 -1 53 11 56 91 24 114 33 118 48 4 15
20 21 85 26 15 2 17 -11 17 -145z m-2792 -229 c13 -4 22 -14 22 -25 0 -11 5
-19 10 -19 6 0 10 -33 10 -80 0 -47 4 -80 10 -80 6 0 10 -22 10 -50 l0 -50
-89 0 c-98 0 -101 2 -101 65 0 19 -4 37 -10 40 -5 3 -10 33 -10 66 0 33 -4 59
-10 59 -5 0 -10 18 -10 40 l0 40 73 0 c39 0 82 -3 95 -6z m3824 -413 c6 -134
5 -188 -4 -198 -9 -11 -28 -13 -89 -7 -69 6 -81 4 -113 -16 -30 -18 -37 -19
-42 -7 -3 8 2 29 10 46 22 42 20 119 -4 159 -20 33 -27 92 -11 92 5 0 12 15
15 33 13 69 49 87 166 84 l65 -2 7 -184z m-541 77 c3 -103 -3 -303 -9 -309 -4
-4 -46 -10 -94 -14 -87 -7 -88 -7 -88 16 0 13 -12 40 -26 61 -25 35 -27 46
-25 130 2 126 5 134 54 147 44 11 86 17 150 19 l37 2 1 -52z m-544 -100 c-14
-139 -26 -175 -54 -159 -20 11 -53 113 -53 163 0 44 17 57 74 58 l39 0 -6 -62z
m-2677 -73 l0 -85 -77 0 c-75 0 -76 0 -58 -20 14 -16 31 -20 77 -20 l58 0 0
-75 0 -75 -80 0 c-90 0 -83 -9 -81 100 1 36 2 70 2 75 0 6 -2 49 -4 98 l-3 87
83 0 83 0 0 -85z m3800 -197 c0 -19 2 -20 10 -8 5 8 10 10 10 5 0 -6 -4 -15
-10 -21 -5 -5 -10 -62 -11 -127 -2 -90 -6 -122 -17 -133 -12 -13 -14 -39 -10
-150 5 -119 4 -136 -11 -141 -9 -2 -23 -8 -32 -13 -9 -5 -20 -6 -23 -3 -3 4
-6 82 -6 175 0 105 -4 168 -10 168 -5 0 -10 7 -10 15 0 24 -41 17 -65 -11
l-22 -26 -7 25 c-5 22 -13 26 -49 29 l-42 3 0 100 0 100 70 6 c98 9 179 20
184 25 2 2 15 4 28 4 17 0 23 -6 23 -22z m-4847 -8 l127 0 0 -70 0 -71 -157 4
c-87 2 -173 8 -190 12 -33 7 -33 8 -33 65 0 67 5 71 75 65 28 -3 107 -5 178
-5z m4323 -46 c4 -15 4 -65 0 -113 -4 -47 -9 -149 -12 -226 -4 -146 -12 -225
-20 -225 -24 0 -31 37 -36 193 -3 93 -9 171 -12 174 -3 4 -24 0 -46 -7 l-40
-13 0 -69 c0 -60 -2 -68 -19 -68 -21 0 -31 19 -31 61 0 27 -3 29 -35 29 l-35
0 0 59 c0 33 -4 63 -10 66 -5 3 -10 30 -10 60 0 67 -2 66 183 81 42 4 77 11
77 15 0 5 9 9 20 9 13 0 22 -9 26 -26z m-3276 -127 c0 -78 -1 -83 -22 -84 -12
-1 -27 2 -33 7 -6 5 -33 10 -60 12 -32 2 -50 7 -49 16 1 6 2 39 3 72 l1 60 80
0 80 0 0 -83z m2780 26 c0 -82 -29 -223 -46 -223 -8 0 -14 5 -14 10 0 6 -32
10 -75 10 -43 0 -75 4 -75 10 0 6 -7 10 -15 10 -8 0 -15 5 -15 10 0 6 -9 10
-19 10 -47 0 -51 8 -51 100 0 98 1 99 85 100 22 0 47 5 55 10 8 5 50 10 93 10
l77 0 0 -57z m-2780 -207 l0 -74 -80 0 -80 0 0 51 c0 29 -3 62 -6 75 -6 22 -5
22 80 22 l86 0 0 -74z m-1887 -42 c92 -3 168 -10 168 -15 6 -39 4 -77 -4 -93
-9 -18 -17 -19 -146 -11 -75 5 -167 9 -206 9 -38 1 -74 6 -80 11 -5 6 -10 28
-10 50 0 56 11 66 65 59 25 -3 120 -8 213 -10z m777 -58 c0 -60 -6 -66 -70
-66 -64 0 -70 6 -70 66 l0 54 70 0 70 0 0 -54z m1050 -6 c0 -5 14 -10 30 -10
l30 0 0 -69 0 -69 -80 -4 c-91 -3 -87 -8 -82 100 l4 62 49 0 c27 0 49 -4 49
-10z m-1667 -125 c20 -9 25 -89 5 -101 -13 -8 -135 -7 -320 2 l-118 7 0 54 0
55 208 -5 c114 -2 215 -8 225 -12z m1663 -55 l64 0 0 -66 c0 -48 -4 -70 -17
-82 -12 -12 -18 -13 -21 -4 -2 7 -23 12 -53 12 -42 0 -49 -3 -49 -20 0 -18 7
-20 70 -20 l70 0 0 -75 c0 -52 -4 -75 -12 -75 -9 0 -9 -3 0 -12 14 -14 16 -88
2 -88 -5 0 -10 -21 -10 -46 0 -41 -2 -45 -22 -42 -19 2 -24 10 -26 41 -4 50
-22 47 -22 -4 l0 -40 -37 3 c-38 3 -38 3 -41 53 -2 27 -1 65 3 82 6 32 7 33
60 33 77 0 79 18 3 22 l-63 3 0 160 c0 88 2 164 4 168 1 5 10 6 18 3 8 -3 44
-6 79 -6z m-1060 -84 c8 -9 14 -34 14 -61 l0 -46 -67 3 -68 3 -3 58 -3 57 56
0 c36 0 62 -5 71 -14z m584 -21 c0 -8 5 -15 10 -15 6 0 10 -16 10 -36 0 -21
-4 -33 -10 -29 -5 3 -10 -1 -10 -9 0 -13 -12 -16 -60 -16 l-60 0 0 60 0 60 60
0 c47 0 60 -3 60 -15z m-1178 -28 c4 -7 8 -31 8 -54 l0 -43 -225 0 -225 0 -5
23 c-4 13 -5 34 -3 48 8 53 4 53 232 45 147 -5 213 -11 218 -19z m-2340 -49
c43 -7 78 -16 78 -20 0 -4 106 -8 235 -8 144 0 235 -4 235 -10 0 -5 23 -12 50
-16 54 -7 64 -17 28 -29 -42 -13 -68 -16 -68 -6 0 6 -65 10 -157 10 -87 1
-179 4 -205 7 -58 8 -180 -4 -173 -17 4 -5 33 -9 65 -9 32 0 60 -4 62 -9 2 -6
82 -11 188 -11 102 -1 208 -6 235 -12 28 -5 60 -11 73 -14 12 -2 22 0 22 6 0
5 7 10 15 10 8 0 15 -9 15 -20 0 -20 -4 -21 -247 -18 -137 2 -257 7 -267 12
-13 6 -17 6 -13 -1 5 -7 -15 -11 -59 -12 -36 0 -71 -4 -77 -8 -22 -14 31 -22
151 -22 85 -1 121 -4 117 -12 -5 -7 3 -10 21 -8 16 1 107 1 202 1 l172 -2 0
-26 0 -26 -297 6 c-164 3 -315 3 -335 -1 -77 -12 -34 -23 86 -23 73 0 127 -4
131 -10 4 -6 63 -10 143 -10 75 0 167 -3 205 -7 56 -5 67 -9 67 -24 0 -18 -15
-19 -334 -19 -184 0 -337 -4 -340 -9 -8 -13 46 -21 146 -21 49 0 98 -5 109
-11 15 -8 24 -7 35 2 11 9 18 9 26 1 8 -8 67 -12 185 -12 l173 0 0 -26 0 -26
-302 5 c-302 5 -368 2 -368 -14 0 -5 54 -9 120 -9 73 0 120 -4 120 -10 0 -5 7
-10 16 -10 8 0 12 5 9 10 -3 6 5 10 19 10 13 0 26 -4 28 -10 2 -5 77 -10 176
-11 95 -1 175 -6 178 -11 3 -5 3 -21 -1 -36 -4 -15 -10 -21 -12 -14 -4 9 -78
12 -323 12 -175 0 -321 -4 -324 -9 -9 -14 49 -21 180 -21 71 0 125 -4 129 -10
4 -6 75 -10 181 -10 l175 0 -3 -26 -3 -26 -225 1 c-124 1 -248 4 -277 8 -61 7
-166 -5 -158 -18 4 -5 73 -9 156 -9 93 0 149 -4 149 -10 0 -6 67 -10 180 -10
l180 0 0 -25 0 -25 -330 0 c-181 0 -330 -4 -330 -9 0 -13 111 -22 184 -15 39
4 76 2 93 -4 15 -6 108 -14 206 -17 l177 -7 0 -24 0 -24 -331 0 c-217 0 -328
-3 -324 -10 4 -6 63 -10 146 -10 86 0 139 -4 139 -10 0 -14 73 -12 89 3 11 10
13 10 7 0 -6 -10 24 -13 132 -13 110 0 142 -3 152 -15 25 -30 0 -35 -176 -35
-136 0 -175 -3 -171 -12 2 -9 22 -12 58 -11 30 1 72 -2 94 -7 22 -6 72 -12
110 -14 39 -3 76 -5 83 -5 18 -1 15 -38 -4 -45 -9 -3 -49 -6 -90 -6 -43 0 -74
-4 -74 -10 0 -5 9 -10 20 -10 11 0 20 -4 20 -10 0 -5 30 -10 68 -12 61 -3 67
-5 70 -25 3 -22 0 -23 -67 -23 -38 0 -73 -4 -76 -10 -3 -5 3 -10 14 -10 12 0
21 -4 21 -10 0 -5 18 -10 39 -10 22 0 46 -3 55 -6 20 -8 21 -40 1 -48 -8 -3
-15 -12 -15 -19 0 -8 7 -20 15 -27 17 -14 20 -50 5 -50 -5 0 -10 -11 -10 -25
0 -14 5 -25 10 -25 6 0 10 -9 10 -19 0 -11 -4 -23 -10 -26 -5 -3 -10 -15 -10
-26 0 -10 5 -19 10 -19 6 0 10 -11 10 -25 0 -14 -4 -25 -10 -25 -5 0 -10 -9
-10 -20 0 -11 4 -20 9 -20 6 0 10 -109 11 -275 l0 -275 -445 0 -445 0 -6 26
c-4 14 -1 36 6 49 11 20 11 27 0 40 -10 12 -10 21 -2 39 13 28 7 36 -25 36
l-23 0 4 278 c2 152 7 285 11 295 4 10 3 17 -4 17 -14 0 -14 35 0 61 7 15 7
24 -1 34 -9 11 -9 23 0 51 9 26 9 38 1 43 -7 5 -7 17 1 44 8 27 8 41 1 48 -7
7 -8 22 -4 38 5 14 6 70 5 124 -3 79 -1 99 11 103 19 8 19 24 0 24 -23 0 -18
46 7 70 17 16 18 20 6 20 -32 0 -31 80 1 80 14 1 14 2 -1 14 -11 8 -18 26 -18
45 0 24 4 31 20 31 11 0 20 5 20 10 0 6 -9 10 -20 10 -30 0 -28 63 3 78 l22
11 -22 7 c-16 4 -23 14 -23 31 0 13 4 21 10 18 6 -3 10 0 10 9 0 8 6 17 13 20
10 5 10 7 0 12 -7 3 -13 23 -13 45 0 24 5 39 13 40 10 0 10 2 0 6 -9 3 -13 31
-13 89 l0 83 33 10 c45 13 61 13 149 -1z m2742 -54 c9 -3 16 -13 16 -21 0 -8
-4 -12 -8 -9 -5 3 -9 -15 -11 -40 -2 -38 1 -44 19 -44 11 0 20 -4 20 -8 0 -15
-25 -62 -32 -62 -5 0 -8 -7 -8 -15 0 -8 -7 -15 -15 -15 -8 0 -15 7 -15 15 0 8
-4 15 -10 15 -5 0 -10 -7 -10 -15 0 -8 -5 -15 -12 -15 -9 0 -9 -3 0 -12 20
-20 14 -28 -23 -28 l-35 0 0 55 0 55 51 0 c66 0 62 24 -4 28 l-47 3 0 60 0 59
54 0 c30 0 61 -3 70 -6z m206 -54 l0 -60 -70 0 -70 0 0 60 0 60 70 0 70 0 0
-60z m-780 -6 c183 -7 180 -6 180 -53 0 -74 8 -71 -192 -71 -117 0 -177 3
-173 10 4 6 -6 10 -24 10 -16 0 -31 -6 -33 -12 -3 -9 -9 -8 -21 4 -20 20 -22
79 -4 109 11 19 18 20 72 15 33 -4 121 -9 195 -12z m660 -94 c0 -6 27 -10 60
-10 53 0 60 -2 60 -20 0 -15 7 -20 25 -20 16 0 25 6 25 16 0 8 5 12 10 9 6 -3
10 -1 10 4 0 7 24 11 60 11 l60 0 0 -49 0 -49 -142 2 c-140 1 -143 1 -146 24
-3 21 -22 32 -22 12 0 -5 -16 -10 -35 -10 -40 0 -41 1 -18 38 32 50 53 66 53
42z m2445 -90 c4 -6 55 -10 121 -10 l114 0 0 -25 0 -25 -155 0 c-149 0 -155 1
-155 20 0 12 6 27 13 35 14 17 53 20 62 5z m-2535 -75 c0 -8 5 -15 10 -15 15
0 12 -60 -4 -76 -9 -9 -35 -14 -70 -14 l-56 0 0 60 0 60 60 0 c47 0 60 -3 60
-15z m153 -5 l21 -21 8 21 c12 33 28 23 28 -20 0 -29 -4 -40 -15 -40 -9 0 -12
6 -9 15 4 8 1 15 -5 15 -14 0 -15 -27 -1 -35 6 -3 10 -17 10 -31 0 -13 5 -24
10 -24 6 0 10 -11 10 -24 0 -13 7 -27 16 -30 10 -4 14 -16 12 -38 -3 -32 -28
-53 -28 -24 0 23 -37 20 -45 -4 -3 -11 -11 -20 -16 -20 -5 0 -9 -5 -9 -11 0
-20 -29 -39 -59 -39 -17 0 -31 5 -31 10 0 6 5 10 10 10 6 0 10 9 10 20 0 11 6
20 13 20 8 0 8 3 2 8 -17 11 -19 83 -3 93 24 15 38 9 38 -16 0 -29 6 -31 26
-11 16 17 19 46 4 46 -5 0 -10 11 -10 25 0 14 -4 25 -10 25 -5 0 -10 -4 -10
-10 0 -5 -11 -10 -25 -10 -23 0 -25 4 -25 45 0 72 38 97 83 55z m577 5 c0 -9
9 -15 21 -15 29 0 49 -24 49 -59 0 -26 -4 -31 -24 -31 -39 0 -50 -60 -13 -70
10 -3 18 -8 18 -12 -1 -5 -1 -26 -1 -49 0 -35 -2 -40 -19 -34 -16 5 -20 0 -23
-22 -4 -33 -35 -44 -54 -18 -8 10 -14 12 -19 6 -3 -6 -33 -11 -67 -11 -55 0
-60 2 -55 20 4 16 0 20 -19 21 -13 1 -30 2 -36 3 -9 1 -14 22 -16 59 -3 55 -2
57 23 57 16 0 25 6 25 15 0 8 5 15 10 15 6 0 10 -7 10 -15 0 -9 9 -15 25 -15
23 0 25 -4 25 -45 0 -25 5 -45 10 -45 6 0 10 -5 10 -11 0 -6 6 -17 14 -25 28
-27 36 -15 36 51 0 36 4 65 9 65 6 0 9 31 8 69 -2 58 1 73 18 90 24 24 35 26
35 6z m159 -12 c36 -32 42 -58 11 -50 -15 4 -20 0 -20 -16 0 -49 13 -97 26
-97 8 0 14 -9 14 -20 0 -11 -4 -20 -10 -20 -14 0 -13 -77 1 -82 6 -2 9 -21 7
-42 l-3 -38 -24 21 c-13 12 -28 21 -33 21 -4 0 -8 9 -8 19 0 11 -5 21 -11 23
-17 6 -15 273 3 292 7 8 14 15 14 16 1 0 16 -12 33 -27z m551 -8 c0 -12 -14
-15 -70 -15 l-70 0 0 -55 c0 -30 5 -55 10 -55 6 0 10 -12 10 -27 1 -16 7 -39
15 -53 8 -14 14 -35 15 -47 0 -13 5 -23 10 -23 6 0 10 -9 10 -20 0 -23 -4 -24
-32 -9 -12 7 -58 11 -105 10 l-83 -2 -1 28 -1 28 -9 -27 c-11 -28 -36 -42 -60
-33 -11 4 -15 33 -16 123 -1 70 -6 118 -13 120 -18 6 -12 60 8 65 9 2 99 4
200 5 156 2 182 0 182 -13z m681 -7 l-43 -10 5 -61 c8 -86 31 -190 40 -181 4
4 7 -5 7 -19 0 -15 6 -27 13 -27 6 0 4 -5 -6 -11 -25 -15 -57 -2 -57 23 0 12
-3 18 -7 15 -14 -14 -32 48 -38 131 -4 48 -9 94 -12 102 -4 8 -7 19 -7 24 -1
5 -9 10 -19 12 -53 7 -19 14 69 13 89 -1 94 -2 55 -11z m409 -20 c11 -18 22
-45 25 -60 4 -15 11 -28 16 -28 5 0 9 -9 9 -20 0 -11 4 -20 9 -20 5 0 12 -11
15 -25 4 -14 11 -25 16 -25 6 0 10 -7 10 -15 0 -8 5 -15 10 -15 6 0 10 -6 10
-14 0 -7 11 -22 25 -32 35 -26 32 -44 -8 -44 -38 0 -87 45 -87 80 0 11 -3 20
-6 20 -13 0 -64 -60 -64 -74 0 -17 -2 -18 -42 -21 -18 -1 -28 3 -28 11 0 8 5
14 11 14 5 0 8 4 5 9 -4 5 7 23 24 39 16 17 30 38 30 46 0 9 5 16 10 16 6 0
10 7 10 15 0 8 -4 15 -10 15 -5 0 -10 9 -10 19 0 11 -3 21 -7 23 -12 5 -43 68
-43 87 0 43 44 42 70 -1z m536 0 c8 -7 26 -23 39 -35 13 -13 27 -23 30 -23 6
0 20 -11 50 -37 7 -7 16 -13 20 -13 4 0 13 -7 21 -15 32 -32 -7 -74 -41 -43
-35 32 -45 38 -60 38 -9 0 -26 9 -37 20 -26 24 -38 12 -38 -37 0 -18 -4 -33
-10 -33 -6 0 -10 27 -10 60 0 33 -4 60 -10 60 -5 0 -10 16 -10 35 0 29 4 35
20 35 12 0 28 -6 36 -12z m489 -27 c3 -11 8 -29 10 -41 8 -40 16 -60 26 -60 5
0 9 -20 9 -44 0 -36 -4 -46 -20 -51 -16 -5 -19 -12 -14 -32 4 -16 2 -28 -7
-34 -24 -15 -29 -10 -29 25 0 19 -5 38 -11 42 -6 3 -8 16 -5 28 3 11 2 56 -3
99 -4 43 -5 80 -2 82 11 12 40 3 46 -14z m-7667 -140 c2 -6 8 -11 14 -11 14 0
34 -23 42 -48 4 -12 11 -22 15 -22 14 0 7 -153 -6 -158 -7 -2 -13 -8 -13 -14
0 -12 -26 -38 -38 -38 -5 0 -15 -7 -22 -15 -9 -11 -32 -15 -81 -15 -47 0 -72
5 -83 15 -8 8 -17 15 -21 15 -10 0 -35 27 -35 38 0 6 -5 12 -11 14 -20 7 -29
80 -17 131 6 26 15 47 20 47 4 0 8 5 8 11 0 11 25 39 35 39 4 0 14 7 23 16 13
14 30 16 91 11 42 -3 77 -11 79 -16z m-888 -198 c0 -100 -3 -188 -6 -197 -7
-17 -44 -22 -44 -6 0 6 -27 10 -60 10 -33 0 -60 -4 -60 -10 0 -15 -39 -12 -56
4 -17 17 -21 246 -4 246 6 0 10 18 10 41 0 22 -4 38 -9 34 -6 -3 -9 4 -8 15 1
11 5 20 9 20 4 0 8 7 8 15 0 9 10 15 23 16 88 4 139 8 143 12 3 3 16 0 29 -7
l25 -11 0 -182z m172 196 c20 -8 23 -16 20 -45 -4 -29 -1 -34 17 -34 17 0 21
6 21 30 0 32 27 54 54 44 18 -7 22 -24 6 -24 -5 0 -10 -6 -10 -13 0 -8 15 -14
37 -15 55 -4 63 -16 63 -91 0 -37 5 -72 11 -78 7 -7 8 -17 1 -29 -5 -11 -13
-39 -17 -64 -4 -25 -16 -52 -26 -61 -10 -9 -16 -19 -12 -23 3 -3 -8 -6 -25 -6
-26 0 -32 4 -32 20 0 12 11 32 25 46 14 14 25 29 25 34 0 24 -15 40 -36 40
-16 0 -28 8 -36 25 -19 42 -28 28 -28 -45 0 -71 -4 -78 -44 -71 -21 4 -46 -12
-46 -30 0 -10 -7 -19 -15 -19 -12 0 -15 14 -16 68 0 46 -3 61 -9 47 -6 -13 -9
21 -9 94 -1 109 0 114 24 133 16 13 25 29 25 49 0 33 0 33 32 18z m-568 -35
c15 -20 28 -25 55 -24 62 3 82 0 76 -10 -3 -6 -50 -10 -106 -10 -74 0 -104 -4
-115 -14 -8 -8 -14 -17 -14 -20 0 -3 33 -6 74 -6 103 0 136 -8 136 -33 0 -17
-5 -19 -35 -14 -26 4 -35 2 -35 -8 0 -8 11 -17 25 -21 25 -6 25 -8 25 -110 l0
-104 -94 0 c-54 0 -98 -4 -101 -10 -11 -18 -25 0 -25 33 0 24 -3 28 -10 17 -7
-10 -10 12 -10 73 0 74 3 91 20 109 22 24 26 38 10 38 -5 0 -10 9 -10 21 0 22
-22 49 -39 49 -16 0 -14 11 6 32 11 13 30 18 65 18 26 0 48 5 48 10 0 20 36
10 54 -16z m5396 -54 c0 -5 -7 -10 -15 -10 -16 0 -20 -35 -9 -64 8 -20 44 -21
44 -1 0 10 11 15 35 15 19 0 35 -4 35 -10 0 -5 -4 -10 -10 -10 -5 0 -10 -6
-10 -13 0 -10 -23 -14 -95 -15 l-95 -2 0 60 0 60 60 0 c33 0 60 -4 60 -10z
m1306 -74 c9 -9 14 -35 14 -69 l0 -54 -77 -2 c-81 -2 -93 4 -93 47 0 15 -6 22
-20 22 -11 0 -20 4 -20 9 0 5 -10 12 -22 16 -22 6 -22 7 6 19 40 18 130 13
134 -8 2 -10 -4 -16 -16 -16 -11 0 -23 -7 -26 -16 -9 -23 -8 -24 18 -24 19 0
28 8 37 35 7 19 19 35 26 35 7 0 13 5 13 10 0 14 9 12 26 -4z m3814 -316 c0
-61 -17 -80 -73 -80 -23 -1 -85 -3 -138 -6 l-97 -6 -4 54 c-2 29 -2 58 0 65 4
12 39 15 235 20 l77 2 0 -49z m-11831 -192 c-1 -128 -4 -236 -5 -240 -7 -11
-44 4 -44 18 0 8 5 14 10 14 6 0 10 5 10 11 0 5 -4 8 -9 5 -5 -4 -9 14 -9 39
0 25 4 43 9 39 5 -3 9 0 9 5 0 6 -4 11 -10 11 -5 0 -10 7 -10 16 0 9 -6 14
-12 11 -7 -2 -12 -10 -10 -17 6 -25 -10 -50 -31 -50 -18 0 -19 2 -7 10 13 8
13 10 -2 10 -9 0 -20 -4 -23 -10 -3 -5 -40 -10 -81 -10 l-75 0 3 33 c1 18 -2
38 -6 45 -5 9 4 12 33 12 31 0 41 -4 46 -20 4 -11 11 -18 16 -14 6 3 8 12 5
20 -4 11 9 14 69 14 l75 0 0 140 0 140 25 0 26 0 -2 -232z m10811 132 c0 -61
-15 -126 -32 -136 -6 -4 -47 -8 -92 -10 -91 -4 -106 -6 -123 -17 -6 -4 -14 -3
-18 3 -4 6 -10 8 -14 6 -20 -13 -30 15 -31 89 -2 141 -22 125 145 125 109 0
145 3 145 13 0 8 4 7 10 -3 5 -8 10 -40 10 -70z m500 41 c0 -21 -3 -53 -6 -70
l-6 -31 -104 0 c-63 0 -104 -4 -104 -10 0 -15 -60 -12 -76 4 -9 10 -14 37 -14
80 l0 66 155 0 155 0 0 -39z m-8125 -199 l270 -7 3 -42 3 -43 -903 -5 c-497
-3 -1114 -7 -1371 -10 -500 -6 -497 -6 -497 42 1 46 -33 43 810 61 465 10
1362 12 1685 4z m7598 -39 c3 -10 5 -84 6 -165 l1 -148 -69 0 c-39 0 -81 -4
-94 -9 -35 -14 -39 1 -37 147 0 67 -3 122 -7 122 -5 0 -10 11 -11 25 -2 25 -1
25 83 25 46 0 87 5 90 10 10 16 33 12 38 -7z m-12280 -25 c12 -7 24 -14 26
-15 2 -2 -2 -9 -8 -17 -8 -10 -9 -16 -1 -21 18 -11 3 -21 -36 -23 -35 -3 -53
-15 -54 -34 0 -5 7 -8 16 -8 12 0 14 -9 12 -37 l-3 -38 -67 -3 -68 -3 0 100
c0 70 4 101 13 104 25 11 148 7 170 -5z m901 -44 c15 -38 7 -54 -26 -54 -18 0
-51 -4 -73 -9 -22 -5 -100 -12 -172 -16 -117 -6 -133 -4 -133 9 0 9 7 16 15
16 8 0 15 5 15 10 0 6 11 10 24 10 13 0 29 7 36 15 8 10 31 15 66 15 29 0 56
5 59 10 3 6 46 10 95 10 71 0 89 -3 94 -16z m12372 4 c3 -4 -10 -8 -29 -8 -32
0 -35 -3 -39 -35 -5 -43 -3 -45 39 -45 18 0 33 -4 33 -10 0 -6 -50 -10 -130
-10 l-130 0 0 45 c0 25 5 45 10 45 6 0 11 -6 12 -12 0 -7 2 -17 3 -23 2 -5 3
-16 4 -23 0 -7 6 -10 11 -7 6 4 8 11 5 16 -4 5 -4 18 0 28 5 15 18 20 72 23
40 2 68 9 71 16 4 13 60 13 68 0z m-11849 -100 l-2 -43 -107 -3 -106 -3 0 46
1 45 108 0 107 0 -1 -42z m-517 -27 c0 -50 -3 -51 -160 -51 -82 0 -151 -4
-154 -8 -3 -5 -78 -12 -168 -16 -89 -4 -165 -11 -168 -15 -3 -5 -14 -5 -25 0
-11 4 -14 8 -7 8 6 1 12 8 12 16 0 9 9 15 24 15 13 0 26 5 28 10 7 23 143 40
320 40 112 0 178 4 178 10 0 6 27 10 60 10 52 0 60 -2 60 -19z m3949 -7 l101
-7 0 -44 0 -43 -809 0 c-529 0 -812 -3 -816 -10 -4 -6 -202 -10 -561 -10 -601
0 -584 -2 -584 53 0 14 6 29 13 35 8 7 144 13 388 18 205 4 376 8 378 10 7 7
1789 4 1890 -2z m4651 -124 l0 -110 -105 0 -105 0 0 105 0 104 88 4 c48 1 95
4 105 5 15 2 17 -9 17 -108z m-1516 84 c3 -9 6 -53 6 -99 0 -113 -1 -115 -65
-115 -64 0 -65 2 -65 112 0 64 4 85 18 99 23 23 97 26 106 3z m826 -89 l0
-105 -105 0 -105 0 0 105 0 105 105 0 105 0 0 -105z m1520 0 l0 -105 -180 0
-180 0 0 105 0 105 180 0 180 0 0 -105z m860 95 c0 -5 9 -10 20 -10 19 0 20
-7 20 -91 0 -76 -3 -94 -17 -105 -22 -16 -343 -20 -343 -4 0 6 -11 10 -25 10
-14 0 -25 -6 -25 -12 0 -9 -4 -8 -10 2 -11 17 -14 203 -3 213 11 11 383 8 383
-3z m420 -105 l0 -95 -130 0 -130 0 0 95 0 95 130 0 130 0 0 -95z m-10692 28
c3 -32 2 -33 -35 -34 -21 -1 -41 -1 -45 0 -5 0 -8 -3 -8 -9 0 -6 -68 -10 -182
-10 -122 0 -178 -4 -168 -10 10 -6 -35 -10 -137 -10 -83 0 -163 -4 -177 -10
-21 -8 -30 -5 -52 15 -14 13 -24 32 -22 42 3 16 18 18 166 21 97 1 162 6 162
12 0 6 66 10 168 11 92 0 185 4 207 9 22 4 58 7 80 7 37 -2 40 -4 43 -34z m2
-108 c0 -31 -3 -35 -27 -36 -16 -1 -73 -5 -128 -11 -55 -5 -182 -11 -283 -14
-110 -3 -180 -9 -177 -15 4 -5 -25 -9 -69 -9 -74 0 -76 1 -76 25 0 14 -4 25
-10 25 -5 0 -10 5 -10 10 0 6 25 10 55 10 30 0 55 4 55 9 0 4 89 11 198 16
108 4 217 11 242 15 25 4 87 8 138 9 l92 1 0 -35z m1540 -25 c0 -5 11 -10 25
-10 14 0 25 5 25 10 0 7 408 9 1218 8 l1217 -3 3 -47 3 -47 -703 -6 c-387 -3
-1004 -7 -1371 -10 -578 -5 -670 -4 -682 9 -18 17 -19 40 -5 67 10 17 22 19
120 19 67 0 110 4 110 10 0 6 9 10 20 10 11 0 20 -4 20 -10z m-1534 -54 c8 -8
14 -22 14 -31 0 -38 -24 -45 -147 -45 -65 0 -172 -7 -238 -15 -167 -20 -345
-20 -345 0 0 8 -4 15 -10 15 -5 0 -10 8 -10 19 0 24 23 28 164 30 61 1 113 6
114 12 2 5 86 9 203 9 126 0 199 4 199 10 0 15 39 12 56 -4z m1224 -110 l0
-53 -61 -7 c-77 -8 -471 -6 -559 3 -62 6 -65 7 -68 35 -2 15 -1 39 2 52 l6 24
340 0 340 0 0 -54z m-1217 0 c8 -9 12 -26 10 -40 -5 -25 -8 -26 -85 -26 -48 0
-77 -4 -73 -10 3 -5 -61 -11 -167 -14 -95 -3 -214 -8 -265 -11 -86 -6 -92 -5
-98 14 -3 12 -11 21 -16 21 -5 0 -9 7 -9 15 0 8 9 15 19 15 11 0 23 5 26 10 4
6 80 10 196 10 115 0 189 4 189 10 0 5 52 11 123 13 67 1 125 4 129 5 4 1 13
-4 21 -12z m-2543 -125 c49 -49 90 -92 90 -95 0 -3 -70 -6 -155 -6 -148 0
-155 1 -155 20 0 11 5 20 10 20 6 0 10 6 10 14 0 8 7 16 15 20 8 3 15 12 15
21 0 8 5 15 10 15 6 0 10 7 10 15 0 8 -4 15 -10 15 -5 0 -10 -5 -10 -11 0 -6
-6 -17 -12 -24 -30 -33 -38 -45 -38 -55 0 -5 -4 -10 -9 -10 -5 0 -13 -9 -16
-20 -7 -23 -51 -38 -67 -22 -11 11 20 54 34 46 4 -3 8 0 8 5 0 16 32 51 42 45
4 -3 8 2 8 10 0 9 4 16 9 16 5 0 13 9 16 20 4 13 15 20 33 20 15 0 36 7 46 15
11 8 21 15 23 15 1 0 43 -40 93 -89z m4070 49 c0 -5 9 -10 21 -10 11 0 17 5
14 10 -7 11 2411 15 2439 4 23 -9 22 -81 -1 -88 -32 -8 -934 -18 -1863 -20
l-915 -2 -3 -26 c-3 -26 -4 -26 -109 -33 -100 -7 -317 -2 -500 11 l-83 6 0 43
0 42 73 8 c39 5 200 9 357 10 228 2 285 5 289 16 11 35 26 38 154 39 78 0 127
-4 127 -10z m-1517 -51 c3 -11 3 -27 1 -34 -5 -13 -240 -32 -506 -41 l-138 -5
0 34 0 35 123 6 c67 4 165 10 217 14 52 5 141 9 196 10 96 2 102 1 107 -19z
m3 -97 c7 -10 15 -68 19 -130 l7 -112 -26 0 c-14 0 -26 5 -26 11 0 11 -25 39
-35 39 -10 0 -35 28 -35 39 0 6 -4 11 -8 11 -14 0 -142 127 -135 134 3 3 26 6
50 6 24 0 43 5 43 10 0 6 29 10 68 10 54 0 69 -4 78 -18z m-356 -22 c0 -5 -7
-15 -15 -24 -8 -8 -15 -19 -15 -25 0 -6 -4 -11 -10 -11 -5 0 -10 -9 -10 -20 0
-11 -4 -20 -9 -20 -5 0 -12 -11 -15 -25 -4 -14 -11 -25 -16 -25 -6 0 -10 -9
-10 -20 0 -11 -4 -20 -10 -20 -5 0 -10 -7 -10 -15 0 -8 -9 -15 -19 -15 -20 0
-31 18 -31 51 0 10 -3 19 -7 19 -5 0 -16 20 -26 45 -11 25 -23 45 -28 45 -5 0
-9 11 -9 24 0 27 20 35 95 37 28 0 61 4 75 8 29 8 70 3 70 -9z m142 -110 c97
-93 116 -110 122 -110 3 0 27 -22 54 -50 56 -57 62 -79 62 -257 0 -62 4 -103
10 -103 6 0 10 -57 10 -150 l0 -150 -102 0 -103 0 -17 31 c-10 17 -18 37 -18
45 0 8 -4 14 -10 14 -5 0 -10 11 -10 25 0 14 -4 25 -8 25 -4 0 -16 23 -27 50
-11 28 -23 50 -27 50 -4 0 -8 7 -8 17 0 22 -32 93 -42 93 -4 0 -8 11 -8 25 0
14 -4 25 -10 25 -5 0 -10 11 -10 25 0 14 -4 25 -10 25 -5 0 -12 11 -16 25 -3
14 -10 25 -15 25 -5 0 -9 9 -9 19 0 11 -11 41 -25 66 -22 41 -23 49 -10 62 8
8 15 21 15 29 0 8 5 14 10 14 6 0 10 9 10 20 0 11 4 20 9 20 5 0 12 11 15 25
4 14 11 25 16 25 6 0 10 7 10 15 0 8 5 15 10 15 6 0 10 9 10 20 0 11 4 20 9
20 5 0 11 9 14 20 3 11 10 20 15 20 6 0 43 -31 84 -70z m4206 45 c18 -7 16
-85 -3 -85 -8 0 -15 -4 -15 -10 0 -7 -581 -10 -1724 -10 -1563 0 -1724 1
-1730 16 -8 22 -7 67 2 81 6 9 56 13 172 15 253 4 3283 -2 3298 -7z m-4885
-50 c9 -20 17 -43 17 -51 0 -8 5 -12 10 -9 6 3 10 -5 10 -19 0 -13 3 -26 8
-28 9 -4 62 -110 62 -125 0 -6 3 -13 8 -15 10 -4 42 -67 42 -84 0 -8 5 -14 10
-14 6 0 10 -11 10 -24 0 -13 7 -29 15 -36 8 -7 15 -21 15 -31 0 -11 5 -19 10
-19 6 0 10 -11 10 -25 0 -14 4 -25 9 -25 5 0 12 -11 15 -25 4 -14 11 -25 16
-25 6 0 10 -11 10 -25 0 -14 5 -25 10 -25 6 0 10 -11 10 -25 0 -14 4 -25 8
-25 10 0 42 -71 42 -93 0 -8 3 -17 8 -19 10 -4 42 -67 42 -84 0 -11 -18 -14
-81 -14 l-81 0 -39 -40 c-21 -21 -39 -45 -39 -52 -1 -18 -25 -48 -39 -48 -6 0
-11 -10 -11 -21 0 -12 -8 -29 -18 -38 -10 -9 -27 -31 -37 -48 -11 -18 -23 -33
-27 -33 -4 0 -8 -5 -8 -11 0 -6 -6 -17 -12 -24 -27 -30 -38 -44 -38 -50 0 -6
-11 -20 -37 -50 -7 -7 -13 -18 -13 -24 0 -6 -4 -11 -10 -11 -5 0 -10 -6 -10
-12 0 -7 -14 -29 -31 -48 -24 -28 -32 -31 -39 -20 -11 17 -1 123 12 128 4 2 8
55 8 118 0 69 4 114 10 114 6 0 10 33 10 78 1 42 7 113 15 157 8 44 15 113 15
153 0 39 4 72 9 72 6 0 12 48 14 108 3 59 13 170 22 247 9 77 19 166 22 198 2
31 8 57 12 57 4 0 15 -16 24 -35z m2097 -150 l0 -25 163 0 c217 0 1010 -10
1067 -14 25 -1 388 -3 808 -4 l762 -2 0 -46 c0 -27 -4 -43 -10 -39 -5 3 -10 1
-10 -4 0 -8 -410 -11 -1363 -11 l-1364 0 -18 35 c-14 24 -22 31 -31 24 -14
-11 -597 -6 -656 6 -35 7 -38 10 -38 40 0 69 -23 65 351 65 l339 0 0 -25z
m-2790 -51 c0 -22 -4 -24 -46 -24 -26 0 -51 -6 -60 -14 -15 -16 -20 -51 -5
-41 6 3 9 -4 8 -15 -1 -11 -5 -20 -9 -20 -4 0 -8 -7 -8 -15 0 -8 9 -15 20 -15
11 0 20 -5 20 -11 0 -6 19 -9 47 -7 44 3 48 5 54 36 4 18 3 35 -1 37 -5 3 -6
14 -3 25 6 23 43 27 43 5 0 -8 -4 -15 -10 -15 -14 0 -12 -37 3 -43 10 -4 10
-7 0 -18 -15 -15 -17 -99 -3 -99 15 0 12 -19 -5 -37 -9 -9 -22 -12 -33 -8 -12
5 -13 9 -4 12 6 3 12 16 12 29 0 22 -4 25 -32 22 -25 -2 -34 -8 -36 -25 -2
-13 2 -23 9 -23 7 0 9 -3 5 -7 -9 -9 -14 -10 -56 -12 -25 -1 -30 -5 -30 -26 0
-20 5 -25 26 -25 14 0 23 -4 19 -10 -3 -5 -15 -10 -26 -10 -13 0 -19 -7 -19
-21 0 -11 5 -17 10 -14 6 3 10 1 10 -4 0 -7 27 -11 70 -11 l70 0 0 -35 c0 -35
0 -35 -45 -35 -41 0 -45 -2 -45 -24 0 -13 6 -26 13 -29 7 -2 8 -8 3 -13 -5 -5
-11 -4 -13 4 -3 6 -14 12 -25 12 -33 0 -67 -48 -35 -51 6 -1 1 -4 -13 -8 -36
-11 -50 -3 -50 30 0 27 11 35 43 30 4 0 7 4 7 10 0 5 5 7 10 4 6 -3 10 5 10
18 0 20 -6 26 -35 31 -34 7 -35 8 -35 56 0 43 3 50 20 50 11 0 20 5 20 10 0 6
-9 10 -20 10 -15 0 -20 7 -20 25 0 18 5 25 20 25 11 0 20 5 20 10 0 6 -9 10
-20 10 -16 0 -20 7 -20 30 0 17 5 30 13 31 10 0 10 2 0 6 -8 3 -13 25 -13 59
0 36 4 54 13 55 10 0 10 2 0 6 -19 7 -16 33 5 33 26 1 52 25 52 48 0 18 6 21
50 20 46 0 50 -2 50 -24z m8624 -60 c3 -9 6 -55 6 -104 0 -114 -3 -120 -51
-120 -67 0 -78 20 -76 128 3 105 7 112 73 112 29 0 44 -5 48 -16z m2346 -104
l0 -120 -180 0 -181 0 3 113 3 112 145 5 c80 3 160 7 178 8 l32 2 0 -120z
m863 103 l37 -6 0 -97 0 -98 -42 -7 c-54 -9 -198 -9 -305 0 l-83 7 0 98 0 98
108 10 c103 10 205 8 285 -5z m-1693 -108 l0 -115 -105 0 -105 0 0 109 c0 78
4 111 13 114 6 3 54 6 105 6 l92 1 0 -115z m2085 103 c24 -11 25 -15 25 -99 0
-96 -2 -99 -66 -99 -20 0 -45 -5 -56 -11 -15 -8 -36 -8 -79 2 l-59 13 0 97 c0
93 1 98 23 102 48 9 187 6 212 -5z m-2791 -4 c13 -5 16 -25 16 -110 l0 -104
-105 0 -105 0 0 104 c0 74 4 106 13 109 18 8 162 8 181 1z m-10268 -94 l2 -70
-49 0 c-37 0 -49 4 -49 15 0 8 6 15 13 16 6 0 1 5 -13 10 -13 5 -33 9 -45 8
-66 -5 -245 2 -245 10 0 5 7 16 15 25 17 17 20 30 5 21 -5 -3 -10 3 -10 14 0
20 5 21 188 21 l187 0 1 -70z m3414 60 c0 -6 42 -10 105 -10 l105 0 0 -50 0
-50 -70 0 c-40 0 -70 -4 -70 -10 0 -5 -8 -10 -17 -10 -15 0 -16 2 -3 10 12 8
9 10 -12 10 -16 0 -28 -4 -28 -10 0 -13 -233 -13 -246 0 -5 5 -61 11 -124 12
l-115 3 -3 39 c-2 27 2 44 15 56 16 17 38 19 241 19 142 1 222 -3 222 -9z
m-2170 -318 c-6 -2 -10 -47 -10 -115 0 -62 -7 -155 -15 -207 -8 -52 -15 -137
-15 -187 0 -55 -4 -93 -10 -93 -6 0 -10 -36 -10 -88 0 -86 0 -88 -29 -105 -16
-9 -39 -17 -50 -17 -12 0 -21 -4 -21 -10 0 -5 -18 -10 -39 -10 -22 0 -43 -4
-46 -10 -3 -5 -17 -10 -29 -10 -23 0 -24 2 -19 68 3 37 10 76 15 86 8 14 6 21
-6 28 -20 11 -21 48 -1 48 8 0 15 5 15 10 0 6 -7 13 -15 16 -8 4 -15 13 -15
20 0 8 7 17 15 20 8 4 15 12 15 19 0 7 7 16 16 19 9 4 14 9 11 12 -3 3 -14 0
-26 -7 -11 -7 -23 -11 -26 -8 -10 10 6 37 24 42 14 3 20 18 24 63 3 33 10 88
15 124 6 36 13 84 15 107 5 38 3 41 -10 27 -23 -22 -67 -14 -71 14 -3 19 1 22
33 22 51 0 65 18 65 84 0 41 4 56 14 56 10 0 13 10 9 35 -3 26 -1 35 10 35 7
0 26 17 40 37 22 31 27 34 27 17 0 -12 7 -27 15 -34 10 -9 15 -9 15 -1 0 6 -4
11 -10 11 -5 0 -10 4 -10 9 0 11 19 9 39 -3 10 -6 12 -5 7 2 -4 7 -2 12 3 12
6 0 11 -4 11 -10 0 -5 4 -10 8 -10 5 0 9 20 10 44 0 25 4 51 9 58 4 8 9 -35
11 -102 2 -73 -1 -116 -8 -118z m3350 198 c0 -7 263 -10 768 -10 l768 0 17
-29 c23 -40 21 -60 -8 -67 -13 -3 -556 -3 -1207 0 -651 3 -1204 6 -1230 5 -25
0 -49 5 -53 12 -12 18 -25 -10 -25 -54 l0 -38 -335 3 c-365 3 -355 1 -355 60
0 61 -21 58 366 58 350 0 354 0 354 20 0 50 -7 49 483 50 298 0 457 -3 457
-10z m-4735 -143 c-2 -34 -4 -65 -4 -69 -1 -3 -20 -9 -43 -13 -74 -11 -80 -15
-75 -41 3 -17 -2 -30 -17 -42 -11 -9 -22 -27 -24 -38 -4 -32 44 -29 75 4 20
22 27 24 42 15 14 -9 21 -9 30 0 8 8 11 8 11 -1 0 -9 33 -12 118 -12 174 0
402 -12 402 -21 0 -4 -66 -10 -147 -12 -82 -3 -165 -8 -187 -12 -26 -5 -41 -4
-46 5 -6 9 -13 9 -28 1 -12 -6 -71 -11 -136 -11 -82 0 -116 -4 -120 -12 -5
-10 -7 -10 -12 0 -3 6 -10 12 -16 12 -13 0 -38 -26 -38 -39 0 -15 67 -14 72 0
4 13 27 14 143 4 44 -3 122 -8 174 -11 104 -6 110 -24 8 -24 -32 0 -67 -5 -78
-10 -10 -6 -38 -13 -61 -16 -24 -4 -44 -10 -46 -15 -2 -5 -12 -9 -23 -9 -10 0
-19 -4 -19 -10 0 -5 20 -10 45 -10 25 0 45 -4 45 -9 0 -13 82 -23 94 -11 7 7
2 10 -17 10 -23 0 -27 4 -27 29 l0 30 73 -6 c39 -3 82 -6 94 -7 12 0 25 -4 29
-8 4 -5 56 -8 116 -8 65 0 108 -4 108 -10 0 -5 -4 -10 -10 -10 -5 0 -10 -7
-10 -15 0 -13 -18 -15 -118 -14 -64 1 -128 -1 -140 -5 -16 -5 -29 -2 -42 9
-21 19 -42 12 -33 -10 4 -12 29 -15 124 -15 73 0 119 -4 119 -10 0 -5 9 -10
20 -10 23 0 26 -16 6 -36 -17 -16 -56 -19 -56 -4 0 6 -4 10 -10 10 -5 0 -10
-9 -10 -20 0 -11 5 -20 10 -20 6 0 10 -7 10 -15 0 -8 -4 -15 -10 -15 -5 0 -10
-7 -10 -15 0 -9 -9 -15 -25 -15 -19 0 -25 -5 -25 -22 0 -23 -36 -68 -54 -68
-10 0 -23 -25 -40 -73 -3 -10 -10 -16 -14 -13 -12 7 -52 -22 -52 -39 0 -7 -4
-15 -9 -17 -5 -1 -11 -12 -13 -23 -3 -20 3 -20 320 -23 177 -1 322 -6 322 -10
-1 -32 -17 -34 -326 -39 -170 -2 -311 -6 -313 -9 -3 -2 -5 -14 -6 -25 -2 -20
28 -44 44 -35 4 3 86 6 182 7 152 1 174 -1 177 -15 3 -14 -12 -16 -117 -16
-74 0 -121 -4 -121 -10 0 -6 -33 -10 -79 -10 -80 0 -102 -9 -82 -34 6 -7 8
-16 5 -19 -4 -3 0 -13 9 -21 13 -13 17 -13 35 5 27 24 32 24 32 -2 0 -12 -8
-23 -20 -26 -11 -3 -20 -10 -20 -15 0 -5 -5 -6 -10 -3 -6 3 -15 -6 -20 -20
-11 -30 8 -58 41 -60 21 -2 53 -38 39 -43 -5 -2 -6 -19 -4 -38 4 -31 2 -34
-22 -34 -23 0 -24 1 -9 16 17 18 16 35 -4 42 -9 3 -11 -2 -6 -17 5 -16 3 -20
-9 -15 -19 7 -21 50 -3 58 6 3 3 5 -8 5 -48 -3 -55 1 -55 26 0 14 -4 25 -10
25 -5 0 -12 11 -16 25 -3 14 -10 25 -15 25 -5 0 -9 7 -9 15 0 8 -4 15 -10 15
-15 0 -12 87 3 94 10 5 10 7 0 12 -8 3 -13 24 -13 48 0 68 -15 75 -160 78
l-123 3 -2 29 c0 16 -6 31 -13 34 -34 11 13 85 61 97 21 6 25 11 18 23 -11 19
26 52 59 52 16 0 20 4 15 19 -3 11 -1 22 5 26 25 15 6 26 -42 25 -128 -4 -128
-4 -128 35 l0 35 140 0 c87 0 140 4 140 10 0 6 11 10 25 10 28 0 32 14 11 36
-18 18 -50 19 -40 2 6 -10 4 -10 -7 -2 -16 13 -51 15 -43 2 3 -4 -26 -8 -65
-8 -38 0 -73 5 -76 10 -3 6 -24 10 -46 10 -32 0 -39 3 -39 20 0 11 5 20 10 20
6 0 10 -4 10 -10 0 -5 7 -10 15 -10 8 0 15 7 15 15 0 8 5 15 10 15 6 0 10 5
10 10 0 6 -11 10 -25 10 -20 0 -25 5 -25 24 0 13 6 27 13 29 9 4 8 8 -3 16
-12 8 -13 16 -3 41 6 16 7 28 2 24 -5 -3 -9 13 -9 34 0 43 13 52 73 52 15 0
27 5 27 10 0 6 -20 10 -45 10 l-45 0 3 43 c1 23 6 45 12 49 6 5 5 12 -3 20
-22 22 -13 28 43 28 42 0 55 -3 55 -15 0 -8 -6 -15 -12 -16 -10 0 -10 -2 0 -6
6 -2 12 -18 12 -34 0 -37 22 -38 41 -1 8 15 18 30 24 34 6 5 5 8 -3 8 -8 0
-12 9 -11 23 2 12 0 28 -4 35 -11 17 37 32 79 24 19 -3 21 -9 19 -65z m13657
2 c3 -9 10 -9 23 -1 21 10 126 9 163 -2 13 -5 22 -3 22 3 0 6 11 11 25 11 25
0 25 0 24 -92 -1 -51 -4 -106 -8 -123 l-7 -30 -7 28 -7 27 -140 0 -140 0 0 56
c0 30 -5 65 -11 77 -9 16 -9 22 0 25 6 2 11 10 11 18 0 17 47 19 52 3z m747
-18 c19 -12 10 -143 -12 -165 -18 -18 -37 -21 -37 -6 0 6 -33 10 -80 10 -47 0
-80 -4 -80 -10 0 -5 -16 -10 -35 -10 -28 0 -35 4 -35 20 0 11 -4 20 -10 20 -6
0 -10 32 -10 75 l0 75 143 0 c78 0 148 -4 156 -9z m504 -10 l27 -1 0 -215 c0
-124 -4 -215 -9 -215 -5 0 -16 -3 -25 -6 -14 -5 -16 9 -16 115 0 74 -4 121
-10 121 -6 0 -10 -46 -10 -119 0 -109 -8 -148 -25 -121 -17 27 -26 5 -25 -57
2 -111 7 -103 -56 -103 -81 0 -88 10 -89 133 0 71 4 101 13 104 8 4 12 28 12
74 0 55 -3 69 -15 69 -8 0 -14 3 -14 8 4 26 -3 42 -20 42 -17 0 -20 9 -23 78
-2 42 -2 83 1 90 3 10 32 12 130 8 69 -3 138 -5 154 -5z m-10573 -92 c0 -52
-17 -59 -134 -59 -64 0 -106 -4 -106 -10 0 -15 -130 -13 -131 3 0 10 -2 10 -6
0 -6 -16 -123 -18 -123 -3 0 6 -13 10 -30 10 -23 0 -31 -5 -36 -26 l-7 -25
-156 1 c-86 1 -185 6 -221 11 -36 5 -119 10 -185 11 l-120 3 -3 46 -3 47 117
7 c64 4 227 4 360 0 178 -5 244 -4 244 4 0 8 77 11 270 11 l270 0 0 -31z
m-4155 0 c4 -5 17 -9 28 -8 12 0 97 1 190 0 141 -1 167 -3 167 -16 0 -13 -40
-15 -304 -15 -167 0 -311 3 -319 6 -14 5 -13 8 1 24 14 15 34 18 124 19 65 1
109 -3 113 -10z m6125 -33 c0 -29 -5 -46 -15 -50 -8 -3 -290 -6 -627 -7 -559
-1 -613 0 -616 15 -3 13 -17 16 -83 16 l-79 0 0 35 0 35 710 0 710 0 0 -44z
m380 -27 l0 -51 -101 4 c-110 4 -119 9 -119 66 l0 32 110 0 110 0 0 -51z m314
45 c21 -8 22 -80 2 -100 -17 -16 -111 -20 -121 -4 -3 6 -24 10 -46 10 -38 0
-39 1 -39 34 0 64 3 66 100 66 49 0 95 -3 104 -6z m278 -20 c5 -4 5 -30 -1
-81 -1 -10 -29 -13 -106 -13 l-105 0 0 49 c0 30 5 52 13 55 12 6 187 -3 199
-10z m280 -17 c12 -18 9 -75 -3 -83 -19 -11 -89 -14 -89 -4 0 6 -22 10 -48 10
-42 0 -48 3 -50 23 -3 36 7 65 24 69 35 7 159 -5 166 -15z m858 -42 l0 -35
-92 0 c-51 0 -194 -3 -318 -6 -124 -3 -230 -2 -236 3 -6 4 -9 22 -7 41 l5 32
324 0 324 0 0 -35z m-7481 -85 l80 0 3 -102 c3 -97 2 -104 -19 -123 -23 -21
-31 -55 -13 -55 6 0 10 4 10 9 0 5 9 11 20 14 13 3 20 0 20 -9 0 -8 -4 -14
-10 -14 -5 0 -10 -7 -10 -15 0 -8 5 -15 10 -15 6 0 10 -9 10 -19 0 -21 -19
-31 -55 -31 -36 0 -55 -10 -55 -31 0 -21 0 -21 49 -25 43 -3 55 -16 47 -50 -7
-25 -9 -26 -49 -20 -23 4 -70 9 -104 13 l-63 6 0 54 c0 46 3 56 20 60 11 3 20
10 20 15 0 6 -9 8 -20 5 -16 -4 -20 0 -20 22 0 15 6 33 13 40 10 11 9 12 -1 6
-10 -5 -13 -2 -10 11 4 24 48 32 48 10 0 -20 7 -20 26 -1 9 8 22 15 30 15 8 0
14 -7 14 -15 0 -8 5 -15 10 -15 6 0 10 7 10 15 0 8 7 15 16 15 8 0 13 4 10 9
-4 5 -32 8 -64 6 -105 -5 -102 -9 -102 114 0 59 3 111 6 114 4 3 15 2 25 -3
10 -6 54 -10 98 -10z m2836 0 c6 -19 15 -20 137 -20 108 0 135 -3 150 -17 19
-17 26 -69 8 -58 -5 3 -10 -1 -10 -9 0 -14 -19 -16 -128 -16 -71 0 -131 3
-134 6 -7 6 -59 8 -448 19 -169 5 -257 11 -262 19 -9 13 -10 59 -2 80 5 14 45
16 344 16 330 0 339 -1 345 -20z m2865 -43 l45 -3 3 -47 3 -47 -104 0 c-114 0
-117 2 -117 60 0 37 20 48 78 43 26 -2 67 -4 92 -6z m-330 -51 l0 -43 -97 -7
c-53 -4 -147 -4 -210 0 -83 5 -120 4 -137 -5 -16 -9 -58 -11 -147 -7 -68 3
-221 8 -339 12 -118 3 -219 10 -224 15 -6 5 -32 9 -58 9 -48 0 -48 0 -48 34 0
24 5 35 17 38 9 2 292 2 630 0 l613 -2 0 -44z m1190 14 c-11 -7 -5 -10 23 -10
44 0 52 -13 43 -66 l-7 -35 -86 5 c-90 4 -103 11 -103 54 0 50 16 62 83 62 44
0 58 -3 47 -10z m901 -20 c22 -13 26 -62 5 -79 -9 -8 -102 -11 -321 -9 l-309
3 -8 30 c-4 18 -4 31 2 33 6 2 10 10 10 18 0 12 48 14 301 14 188 0 308 -4
320 -10z m-5741 -110 c0 -18 -7 -20 -77 -21 -43 -1 -116 -3 -163 -5 -91 -4
-114 3 -104 29 5 15 26 17 175 17 162 0 169 -1 169 -20z m3880 -40 c0 -6 32
-10 75 -10 l75 0 0 -44 c0 -36 -4 -46 -20 -51 -29 -9 -184 6 -192 19 -14 21
-9 76 7 76 8 0 15 5 15 10 0 6 9 10 20 10 11 0 20 -4 20 -10z m-246 -36 c11
-4 16 -19 16 -50 0 -38 -3 -44 -21 -44 -11 0 -17 -4 -14 -10 4 -7 -110 -10
-334 -10 l-341 0 0 50 c0 28 1 51 3 52 1 1 144 5 317 8 173 3 325 7 337 8 12
1 28 -1 37 -4z m1268 -38 c4 -6 8 -26 8 -43 l0 -33 -95 0 c-90 0 -95 1 -100
23 -4 17 -1 65 4 73 6 7 178 -11 183 -20z m833 4 c-3 -5 1 -10 9 -10 12 0 16
-10 16 -35 l0 -35 -107 -1 c-60 -1 -202 -4 -318 -8 -135 -4 -214 -2 -221 4 -5
6 -9 24 -9 40 l2 30 236 3 c147 1 237 6 237 12 0 6 35 10 81 10 51 0 78 -4 74
-10z m1212 -167 l-2 -108 -55 3 c-30 2 -58 9 -62 15 -9 14 -11 159 -2 181 5
12 20 16 64 16 l58 0 -1 -107z m3193 97 c0 -5 11 -10 25 -10 25 0 25 0 25 -94
l0 -94 -42 -7 c-24 -4 -119 -9 -212 -11 -132 -4 -171 -2 -177 8 -4 7 -6 53 -4
103 l5 90 54 5 c30 3 58 8 62 13 11 11 264 9 264 -3z m413 -4 c14 -11 17 -29
17 -104 l0 -90 -92 -7 c-51 -3 -110 -5 -130 -3 l-38 3 0 103 c0 66 4 101 10
97 6 -3 10 -1 10 4 0 17 201 14 223 -3z m-2093 -116 l0 -110 -57 -1 c-32 0
-71 -2 -88 -4 -63 -9 -65 -5 -65 116 l0 109 105 0 105 0 0 -110z m830 5 l0
-105 -27 0 c-16 0 -95 -1 -178 -3 l-150 -2 -3 108 -3 107 181 0 180 0 0 -105z
m-6536 78 c18 -10 18 -12 4 -27 -14 -14 -46 -16 -212 -16 l-196 0 0 25 0 24
138 3 c211 4 245 3 266 -9z m4979 11 l37 -7 0 -98 c0 -54 -4 -100 -10 -104 -5
-3 -52 -8 -105 -11 l-95 -5 0 110 0 110 33 4 c56 7 101 7 140 1z m-5945 -13
c6 0 12 -9 12 -20 0 -17 -14 -19 -204 -26 -113 -4 -210 -4 -215 0 -6 3 -11 15
-11 25 0 18 10 20 163 22 150 3 223 3 255 -1z m462 -16 l0 -25 -203 0 c-112 0
-207 3 -210 6 -3 4 -2 15 4 25 9 18 25 19 209 19 l200 0 0 -25z m-1020 -4 c0
-10 -6 -21 -14 -24 -19 -8 -405 -11 -412 -4 -3 3 -3 15 1 26 6 20 13 21 216
21 198 0 209 -1 209 -19z m-1215 -31 c3 -5 -6 -12 -20 -16 -13 -3 -22 -10 -19
-15 3 -5 -9 -8 -26 -7 -17 1 -34 6 -36 10 -8 12 -194 10 -194 -2 0 -6 -39 -10
-98 -10 -85 0 -99 2 -109 19 -10 15 -10 21 0 24 24 10 496 7 502 -3z m3635
-94 c0 -40 -4 -55 -16 -60 -9 -3 -168 -6 -355 -6 l-339 0 0 50 0 50 223 1
c122 1 233 5 247 9 14 4 73 8 133 9 l107 1 0 -54z m8129 -1342 l2 -1374 -21 0
c-20 0 -20 4 -15 93 4 50 8 374 9 718 3 532 1 631 -11 662 -14 33 -43 52 -43
27 0 -5 -7 -7 -16 -3 -13 5 -13 7 -2 14 10 7 9 9 -4 9 -15 0 -18 -9 -18 -56 0
-34 -4 -53 -10 -49 -5 3 -10 1 -10 -4 0 -16 -89 -13 -106 3 -8 8 -14 25 -14
38 0 36 -11 68 -21 62 -5 -3 -7 -10 -4 -15 4 -5 -1 -9 -9 -9 -9 0 -16 7 -16
16 0 8 -4 13 -8 10 -10 -6 -24 217 -15 240 4 12 13 14 37 9 17 -4 86 -9 154
-12 l122 -4 0 513 c0 282 4 507 9 500 4 -7 9 -632 10 -1388z m-9021 1349 c11
-11 11 -16 -2 -28 -23 -23 -401 -22 -410 1 -3 9 -6 18 -6 20 0 14 59 19 222
20 140 0 186 -3 196 -13z m-1528 -27 c0 -24 -1 -24 -117 -26 -65 -1 -158 -2
-206 -4 -49 -1 -93 1 -99 5 -5 4 -7 16 -3 28 6 21 11 21 216 21 l209 0 0 -24z
m2788 -58 c7 -7 12 -34 12 -61 l0 -49 -72 5 c-40 4 -94 9 -120 13 l-48 7 0 48
0 49 108 0 c71 0 112 -4 120 -12z m314 -25 c26 -5 28 -9 28 -54 l0 -49 -75 0
c-41 0 -83 4 -93 9 -9 5 -25 12 -34 15 -13 4 -18 16 -18 44 0 21 3 42 8 46 7
8 126 1 184 -11z m-1574 -30 c27 -26 -14 -42 -109 -43 -47 0 -133 -3 -191 -6
-104 -7 -105 -7 -111 17 -3 13 -5 25 -2 27 2 2 52 5 111 8 59 2 110 6 112 9
12 12 177 1 190 -12z m-1528 -28 l0 -25 -172 -2 c-111 -1 -155 -4 -123 -8 44
-6 40 -7 -37 -8 -78 -2 -87 0 -93 18 -14 45 6 49 223 50 l202 0 0 -25z m3650
15 c0 -5 7 -10 15 -10 10 0 15 -10 15 -32 0 -58 1 -57 -157 -50 -26 2 -34 7
-39 27 -3 14 -3 36 0 50 6 24 9 25 86 25 47 0 80 -4 80 -10z m696 -9 c72 -2
114 1 119 8 9 16 54 13 71 -3 7 -8 13 -27 12 -43 -5 -58 -2 -58 -352 -58
l-321 0 -3 27 c-2 15 2 36 8 48 10 19 20 20 175 20 125 0 165 3 165 13 0 8 3
9 8 1 4 -6 52 -12 118 -13z m-1926 -85 c0 -39 -4 -55 -15 -60 -11 -4 -546 -9
-682 -6 -9 0 -13 17 -13 50 l0 50 330 0 c213 0 330 4 330 10 0 6 11 10 25 10
24 0 25 -3 25 -54z m363 -50 c12 -9 17 -27 17 -60 l0 -46 -85 0 c-50 0 -85 4
-85 10 0 6 -16 10 -35 10 l-35 0 0 50 0 50 103 0 c69 -1 108 -5 120 -14z
m-1623 -96 c0 -5 18 -10 41 -10 24 0 38 4 34 10 -4 6 43 10 135 10 112 0 145
-3 156 -15 30 -30 -2 -41 -126 -43 -63 -1 -152 -4 -197 -8 -55 -4 -83 -3 -83
4 0 6 -3 17 -6 26 -4 11 -1 16 10 16 9 0 16 5 16 10 0 6 5 10 10 10 6 0 10 -4
10 -10z m3387 -20 c6 -53 -7 -57 -202 -64 -433 -16 -446 -16 -460 -3 -15 16
-16 66 -1 83 9 11 80 13 336 11 l325 -2 2 -25z m-4547 -11 c0 -45 -16 -49
-223 -49 -171 0 -196 2 -201 16 -4 9 -4 25 -1 35 6 18 20 19 216 19 205 0 209
0 209 -21z m570 -4 l0 -25 -215 0 -215 0 2 25 2 25 213 0 213 0 0 -25z m1850
-64 c0 -28 -5 -53 -11 -57 -21 -13 -673 -27 -677 -15 -2 6 -8 9 -13 5 -5 -3
-9 19 -9 50 l0 56 283 3 c155 1 315 3 355 5 l72 2 0 -49z m348 -22 c2 -5 10
-9 18 -9 12 0 14 -10 12 -42 l-3 -43 -57 -3 c-36 -2 -58 1 -58 8 0 5 -20 10
-44 10 -31 0 -46 5 -50 16 -11 29 -6 63 11 73 20 11 166 2 171 -10z m-2768
-58 c0 -17 -6 -31 -16 -35 -9 -3 -106 -6 -215 -6 l-200 0 3 28 3 27 100 6 c55
3 151 6 213 7 l112 2 0 -29z m9550 -1086 l1 -1090 -20 -3 c-21 -3 -21 -1 -21
272 0 208 3 276 12 276 9 0 9 3 0 12 -15 15 -17 508 -2 508 6 0 10 7 10 16 0
8 -4 12 -10 9 -5 -3 -10 1 -10 9 0 9 5 16 10 16 6 0 10 7 10 16 0 8 -4 12 -10
9 -6 -4 -10 7 -10 24 0 18 5 31 13 32 10 0 10 2 0 6 -15 6 -18 73 -3 73 7 0
10 161 10 462 0 299 3 459 10 452 6 -6 10 -408 10 -1099z m1520 835 c0 -177
-3 -230 -12 -231 -10 0 -10 -2 0 -6 17 -7 18 -533 0 -533 -9 0 -9 -3 0 -12 9
-9 12 -144 12 -545 0 -368 3 -533 11 -533 5 0 7 -4 4 -10 -3 -5 -14 -10 -23
-10 -16 0 -17 38 -14 535 l4 535 -51 0 c-28 0 -51 5 -51 10 0 6 -30 10 -70 10
l-70 0 0 35 c0 29 4 35 20 35 12 0 32 7 46 16 20 14 39 16 99 11 l75 -7 0 40
c0 43 -12 50 -46 25 -13 -10 -45 -14 -101 -15 -55 0 -83 -4 -86 -12 -3 -7 -6
19 -6 57 -1 90 9 97 137 103 87 4 93 6 98 28 3 12 3 27 0 32 -7 11 -56 3 -56
-9 0 -13 -202 -11 -220 2 -12 8 -9 9 10 4 19 -5 22 -4 10 4 -8 6 -22 11 -31
11 -13 0 -18 15 -23 73 -3 39 -9 89 -12 109 -8 52 12 71 68 64 24 -2 91 -8
151 -12 l107 -7 0 217 c0 137 4 216 10 216 6 0 10 -83 10 -230z m-6542 173 c2
-18 2 -34 0 -35 -4 -2 -319 -18 -495 -24 l-151 -5 -7 30 c-3 16 -1 39 5 51 11
20 16 20 328 18 l317 -3 3 -32z m-2108 -79 c0 -25 -6 -52 -14 -59 -11 -12 -76
-14 -342 -15 -181 0 -335 -1 -341 0 -9 0 -13 18 -13 54 0 34 5 56 13 59 6 3
166 6 355 6 l342 1 0 -46z m-2420 18 c0 -34 -31 -39 -228 -41 -165 -1 -193 1
-198 14 -4 8 -1 22 6 30 10 12 48 15 216 15 188 0 204 -1 204 -18z m5715 -202
l0 -105 -46 -3 c-69 -4 -79 10 -79 117 0 48 3 91 7 95 4 4 32 6 63 4 l55 -3 0
-105z m3601 95 c4 -8 10 -12 15 -9 5 3 9 -30 9 -75 0 -117 -5 -121 -147 -121
l-113 0 0 104 0 105 28 4 c15 2 67 5 115 6 69 1 89 -2 93 -14z m-372 -1 c13
-5 16 -24 16 -105 l0 -99 -59 0 c-33 0 -63 -4 -66 -10 -4 -6 -69 -10 -161 -10
-101 0 -153 3 -149 10 3 6 1 10 -4 10 -7 0 -11 35 -11 95 l0 94 33 5 c17 3 43
7 57 9 42 7 327 7 344 1z m-1734 -25 c0 -5 5 -7 10 -4 6 4 10 -33 10 -104 l0
-111 -105 0 -105 0 0 105 0 105 60 0 c33 0 60 4 60 10 0 6 16 10 35 10 19 0
35 -5 35 -11z m850 -94 l0 -105 -88 0 c-49 0 -93 -5 -99 -11 -7 -7 -27 -7 -60
-1 -27 5 -60 5 -72 0 -38 -14 -53 12 -54 97 -1 44 2 75 8 76 6 0 5 3 -2 6 -10
3 -10 9 0 24 11 18 25 19 189 19 l178 0 0 -105z m-1520 -25 l0 -110 -105 0
-105 0 0 104 c0 74 4 106 13 109 6 3 54 6 105 6 l92 1 0 -110z m3196 51 c-5
-7 79 -15 234 -22 8 -1 25 2 38 6 l23 7 -1 -177 c-1 -98 -4 -184 -7 -191 -4
-11 -31 -14 -119 -14 l-114 0 0 60 0 60 -26 -10 c-40 -16 -41 -14 -48 58 -3
37 -8 97 -12 134 -5 49 -3 70 7 82 15 16 34 22 25 7z m-6696 -26 c91 -12 90
-11 90 -60 l0 -45 -95 0 c-57 0 -95 4 -95 10 0 6 -7 10 -15 10 -10 0 -15 10
-15 34 0 58 8 69 49 62 20 -3 56 -8 81 -11z m-2472 -32 c3 -17 -2 -23 -16 -23
-10 0 -101 -5 -201 -11 -190 -11 -215 -8 -209 30 3 14 25 17 148 22 80 3 174
5 210 5 60 -1 65 -3 68 -23z m424 -63 c2 -5 44 -10 93 -11 50 -1 95 -5 102
-11 6 -5 98 -7 220 -3 114 3 389 7 611 10 l402 6 -2 -248 -3 -248 -107 -3
c-61 -1 -108 -7 -108 -12 0 -13 -57 -13 -65 0 -3 6 -17 10 -31 10 -13 0 -24
-4 -24 -10 0 -7 -175 -10 -505 -10 -330 0 -505 3 -505 10 0 6 -18 10 -41 10
-22 0 -60 5 -85 11 l-44 11 -1 57 c0 31 0 105 1 165 1 81 -2 111 -12 118 -10
7 -10 11 0 15 8 3 12 28 12 74 l0 69 44 0 c24 0 46 -4 48 -10z m-994 -86 c5
-37 -34 -44 -238 -44 l-190 0 0 25 c0 16 6 25 15 25 8 0 15 5 15 10 0 7 68 9
198 8 191 -3 197 -4 200 -24z m2627 16 c3 -5 39 -10 79 -10 43 0 77 -5 84 -12
17 -17 15 -76 -2 -94 -16 -16 -36 -19 -36 -5 0 4 -35 11 -77 15 -82 7 -93 13
-93 62 0 41 29 70 45 44z m-6695 -139 c0 -5 16 -12 35 -15 19 -4 35 -11 35
-16 0 -6 11 -10 24 -10 14 0 28 -4 31 -10 3 -5 17 -10 31 -10 13 0 24 -4 24
-10 0 -5 16 -12 35 -16 19 -3 35 -10 35 -15 0 -5 16 -9 35 -9 19 0 35 -4 35
-8 0 -5 12 -13 28 -19 22 -9 4 -11 -95 -12 -76 -1 -123 3 -123 9 0 6 -11 10
-25 10 -14 0 -25 5 -25 10 0 6 -9 10 -21 10 -13 0 -19 5 -16 13 3 8 -7 12 -31
13 -20 0 -38 6 -40 12 -2 7 -11 12 -20 12 -15 1 -15 2 1 14 9 7 17 23 17 35 0
12 6 21 15 21 8 0 15 -4 15 -9z m4640 -16 l0 -25 -164 0 c-99 0 -167 -4 -171
-10 -9 -14 -68 -13 -83 2 -7 7 -12 22 -12 35 l0 23 215 0 215 0 0 -25z m3955
-35 l0 -35 -150 -7 c-82 -3 -227 -10 -322 -13 l-172 -7 -7 27 c-4 14 -2 37 5
51 l11 24 317 -2 318 -3 0 -35z m5497 -87 c0 -26 -1 -63 -1 -80 l-1 -33 -115
0 -115 0 0 60 c0 47 3 60 15 60 8 0 15 5 15 10 0 6 11 10 25 10 14 0 25 -4 25
-10 0 -6 30 -10 70 -10 39 0 69 3 69 8 -3 18 2 45 7 39 3 -3 6 -27 6 -54z
m-11492 18 c0 -5 33 -11 73 -15 104 -8 156 -17 163 -27 3 -5 -6 -21 -20 -36
-15 -15 -26 -32 -26 -37 0 -5 -11 -19 -25 -31 -24 -20 -31 -21 -93 -13 -37 5
-68 14 -70 19 -2 5 -21 9 -43 9 -21 0 -39 5 -39 10 0 6 -28 10 -65 10 l-65 0
0 60 0 60 105 0 c58 0 105 -4 105 -9z m4440 -1 c0 -6 28 -10 64 -10 91 0 96
-3 96 -60 0 -41 -3 -50 -21 -55 -12 -4 -24 -3 -28 2 -3 6 -40 13 -81 17 -41 3
-78 12 -82 19 -9 14 -10 59 -2 81 7 17 54 22 54 6z m7460 -85 l0 -75 -54 0
c-82 0 -86 3 -86 72 0 37 4 57 10 53 6 -3 10 1 10 9 0 13 12 16 60 16 l60 0 0
-75z m-401 -663 c2 -390 6 -589 13 -593 6 -4 3 -14 -8 -28 -18 -21 -27 -22
-176 -20 l-158 1 0 24 c0 23 3 24 64 24 35 0 66 -4 68 -9 3 -11 154 -19 163
-9 13 12 13 52 14 633 1 325 5 584 9 577 5 -7 10 -277 11 -600z m-14099 438
c0 -5 25 -10 55 -10 30 0 55 -4 55 -8 0 -8 77 -28 153 -39 20 -3 37 -9 37 -13
0 -5 24 -10 53 -13 63 -6 149 -26 161 -38 6 -5 29 -9 53 -9 24 0 43 -4 43 -9
0 -6 17 -11 38 -13 34 -3 37 -5 35 -33 -1 -16 -7 -31 -13 -33 -5 -2 -10 -8
-10 -14 0 -6 -11 -21 -25 -34 -14 -13 -25 -30 -25 -39 0 -14 -9 -16 -52 -12
-59 5 -152 28 -164 40 -4 4 -27 7 -51 7 -24 0 -43 4 -43 9 0 5 -17 11 -37 14
-76 11 -153 31 -153 39 0 4 -20 8 -44 8 -25 0 -47 4 -50 9 -3 4 -23 11 -45 14
-61 8 -71 24 -71 111 l0 76 50 0 c28 0 50 -4 50 -10z m2770 -70 c0 -5 20 -10
45 -10 l45 0 0 -85 0 -85 -68 0 c-79 0 -86 7 -97 97 -9 74 -1 93 41 93 19 0
34 -4 34 -10z m6945 -50 c3 -5 19 -10 35 -10 35 0 40 -13 40 -98 0 -99 -6
-112 -46 -112 -19 0 -34 4 -34 9 0 5 -10 11 -22 13 -22 3 -23 8 -26 91 -3 89
5 117 34 117 7 0 16 -4 19 -10z m3315 -113 c0 -100 -1 -105 -22 -111 -13 -3
-114 -9 -225 -13 l-203 -6 0 100 c0 116 -2 113 91 113 32 0 59 4 59 9 0 5 68
10 150 10 l150 2 0 -104z m380 12 c0 -65 -4 -94 -14 -105 -11 -10 -43 -14
-130 -14 l-116 0 0 105 0 105 130 0 130 0 0 -91z m-11000 46 c0 -24 -2 -25
-70 -25 -38 0 -70 -3 -70 -8 0 -27 -50 -33 -360 -39 l-320 -6 0 35 c0 24 6 38
18 44 18 9 302 19 610 22 l192 2 0 -25z m9703 11 c14 -11 17 -29 17 -107 0
-92 -1 -94 -27 -106 -34 -16 -348 -18 -338 -3 3 6 1 10 -4 10 -7 0 -11 34 -11
93 0 118 -3 116 190 120 80 1 147 3 150 4 3 2 13 -4 23 -11z m-813 -121 c0
-98 -1 -105 -20 -105 -11 0 -20 -4 -20 -10 0 -16 -170 -13 -171 3 -1 15 -1
199 0 210 1 4 48 7 106 7 l105 0 0 -105z m-6732 50 l3 -35 -148 -1 c-81 -1
-161 -2 -178 -3 -26 -1 -30 3 -30 24 l0 25 125 3 c68 1 129 7 134 12 6 6 28
10 51 10 40 0 41 -1 43 -35z m6047 -67 c-4 -57 -8 -104 -9 -105 -1 -1 -48 -4
-104 -6 l-102 -3 0 108 0 108 111 0 112 0 -8 -102z m-6545 47 l0 -35 -165 -2
c-91 -1 -186 -2 -212 -3 -47 0 -48 1 -48 30 l0 30 128 5 c71 3 166 6 213 8
l84 3 0 -36z m-4320 -75 c0 -5 12 -10 27 -10 28 0 126 -26 155 -41 10 -5 34
-9 53 -9 19 0 35 -4 35 -10 0 -5 13 -10 29 -10 16 0 45 -7 64 -15 20 -8 48
-15 62 -15 14 0 25 -4 25 -9 0 -5 19 -11 43 -14 59 -7 140 -27 151 -38 6 -5
20 -9 33 -9 30 0 29 -23 -2 -54 -14 -14 -25 -29 -25 -33 -1 -4 -9 -18 -19 -30
-19 -23 -61 -32 -61 -13 0 6 -15 10 -34 10 -19 0 -37 4 -40 9 -4 5 -24 12 -46
16 -22 4 -40 10 -40 14 0 4 -19 8 -42 10 -24 1 -44 6 -46 12 -2 5 -15 9 -29 9
-25 0 -111 25 -145 41 -10 5 -34 9 -53 9 -19 0 -35 4 -35 9 0 5 -22 12 -50 16
l-50 7 0 79 c0 72 2 79 20 79 11 0 20 -4 20 -10z m6133 3 c-7 -2 -13 -10 -13
-17 0 -9 -25 -15 -77 -20 -98 -8 -406 -8 -428 0 -28 11 4 24 58 24 26 0 47 5
47 10 0 6 77 10 213 9 116 0 206 -3 200 -6z m-1825 -42 c6 -1 12 -14 12 -31 0
-17 -5 -30 -12 -30 -7 -1 -104 -3 -215 -6 l-203 -6 0 24 c0 45 7 47 180 50
149 3 199 2 238 -1z m-1648 -166 l0 -45 -68 0 c-60 0 -68 -2 -77 -22 -9 -21
-18 -23 -85 -26 -41 -2 -77 -7 -80 -12 -4 -6 -178 -10 -428 -10 -263 -1 -422
-4 -422 -10 0 -6 -75 -10 -190 -10 l-190 0 0 70 0 70 120 0 c73 0 120 4 120
10 0 7 154 10 443 10 268 0 448 4 457 10 8 5 100 10 208 10 l192 0 0 -45z
m2160 10 l0 -35 -180 0 -180 0 0 25 c0 23 3 25 53 26 28 0 75 4 102 9 28 4 85
8 128 9 l77 1 0 -35z m-502 -17 l-3 -33 -212 -3 c-205 -2 -213 -2 -213 17 0
52 -3 51 222 51 l209 0 -3 -32z m2682 -98 c0 -5 26 -10 58 -12 l57 -3 3 -47 3
-48 -38 0 c-21 0 -56 5 -78 11 -22 6 -54 13 -71 16 -28 4 -31 8 -33 49 l-2 44
51 0 c27 0 50 -4 50 -10z m-896 -41 c37 -1 35 -2 -18 -10 -33 -5 -64 -13 -70
-19 -14 -14 -406 -14 -406 0 0 6 28 10 65 10 36 0 65 4 65 10 0 12 93 18 219
14 57 -2 123 -5 145 -5z m1224 -17 c28 -2 52 -8 52 -13 0 -5 16 -9 35 -9 l35
0 0 -51 0 -52 -52 7 c-29 4 -57 11 -62 17 -6 5 -27 9 -49 9 -46 0 -64 16 -64
55 0 35 17 57 37 48 8 -4 39 -9 68 -11z m-7604 -31 c4 -5 24 -12 46 -16 22 -4
42 -11 46 -16 3 -5 21 -9 40 -9 19 0 34 -4 34 -10 0 -5 15 -10 33 -10 17 -1
43 -7 57 -15 14 -8 35 -14 48 -15 12 0 22 -4 22 -10 0 -5 18 -10 40 -10 22 0
40 -4 40 -9 0 -5 20 -12 45 -15 25 -4 45 -10 45 -14 0 -4 15 -9 33 -10 17 -2
33 -7 35 -12 2 -6 19 -10 38 -10 19 0 34 -4 34 -10 0 -5 11 -10 25 -10 36 0
34 -13 -12 -65 -7 -7 -13 -16 -13 -20 0 -4 -6 -13 -14 -21 -17 -16 -56 -19
-56 -4 0 6 -16 10 -35 10 -19 0 -35 4 -35 9 0 5 -20 12 -45 15 -24 4 -47 11
-50 17 -4 5 -19 9 -36 9 -16 0 -29 5 -29 10 0 6 -18 10 -39 10 -22 0 -41 3
-43 8 -4 10 -101 42 -127 42 -11 0 -21 5 -21 10 0 6 -10 10 -21 10 -26 0 -123
32 -127 43 -2 4 -15 7 -28 7 -23 0 -24 3 -24 60 l0 60 44 0 c25 0 47 -4 50 -9z
m7914 -32 c2 -5 17 -9 34 -9 16 0 36 -6 44 -14 17 -18 19 -72 1 -79 -19 -7
-117 4 -117 14 0 5 -22 9 -49 9 -44 0 -49 3 -55 25 -4 14 -3 37 0 51 7 26 8
26 73 19 36 -4 68 -11 69 -16z m246 -44 c27 -8 61 -15 77 -15 29 0 39 -15 39
-58 0 -42 -13 -56 -38 -43 -11 6 -38 11 -60 11 -21 0 -53 7 -70 16 -27 13 -32
21 -32 53 0 57 6 60 84 36z m-884 -44 c0 -4 23 -11 50 -14 66 -8 70 -11 70
-58 l0 -39 -52 0 c-28 0 -68 5 -87 11 -81 26 -81 26 -81 69 l0 40 50 0 c28 0
50 -4 50 -9z m1850 -25 c0 -44 -6 -46 -215 -52 -93 -3 -226 -9 -295 -13 -133
-7 -150 -3 -150 38 0 12 6 30 12 41 12 19 24 20 330 20 l318 0 0 -34z m-6190
-80 c0 -54 -5 -56 -117 -56 -85 0 -102 -6 -115 -41 -9 -23 -71 -29 -324 -29
-143 0 -224 -4 -224 -10 0 -6 -126 -10 -357 -10 -203 0 -364 -4 -373 -10 -9
-5 -19 -5 -28 2 -9 8 -16 8 -24 0 -7 -7 -44 -12 -90 -12 l-78 0 0 80 0 79 218
4 c417 9 1244 36 1250 41 3 3 63 6 134 6 l128 0 0 -44z m4940 -16 c0 -5 21
-10 48 -10 35 0 52 -5 65 -20 18 -22 23 -70 7 -70 -5 0 -10 -7 -10 -15 0 -8
-7 -15 -16 -15 -8 0 -12 5 -9 10 4 6 -7 10 -26 10 -42 0 -152 30 -161 44 -10
14 -10 60 -1 69 10 11 103 8 103 -3z m250 -50 c0 -5 23 -10 50 -10 28 0 50 -4
50 -9 0 -5 10 -11 23 -13 19 -3 22 -9 22 -48 0 -42 -2 -45 -25 -44 -44 3 -145
25 -157 36 -14 11 -17 55 -7 82 7 17 44 22 44 6z m-3020 -40 c10 -6 11 -10 3
-10 -7 0 -13 -6 -13 -13 0 -27 -39 -34 -197 -36 l-163 -2 0 29 c0 16 3 32 7
35 10 11 346 8 363 -3z m2170 -5 c23 -8 55 -15 69 -15 37 0 51 -17 51 -62 l0
-39 -62 7 c-35 3 -67 10 -72 15 -6 5 -24 9 -42 9 -20 0 -34 6 -38 16 -8 21 -8
69 1 77 11 11 48 8 93 -8z m1818 10 c32 -6 33 -8 30 -48 l-3 -42 -195 -5
c-107 -3 -200 -8 -207 -13 -6 -4 -23 -3 -37 3 -17 6 -26 6 -26 0 0 -6 -40 -10
-95 -10 l-95 0 0 40 c0 54 17 60 193 61 78 1 169 4 202 8 92 9 196 12 233 6z
m-4498 -40 l0 -35 -132 0 c-73 0 -166 -5 -207 -10 -67 -9 -76 -8 -91 8 -15 16
-16 21 -3 38 15 21 96 29 326 32 l107 2 0 -35z m1660 3 c0 -9 4 -8 10 2 6 10
10 11 10 3 0 -7 11 -13 24 -13 13 0 27 6 29 13 4 9 8 8 16 -3 6 -8 11 -18 11
-21 0 -3 -34 -9 -76 -13 -42 -3 -93 -11 -114 -17 -26 -8 -79 -9 -163 -4 -108
6 -125 9 -123 23 2 14 19 17 109 20 60 1 107 7 107 12 0 6 35 10 80 10 57 0
80 -4 80 -12z m1373 -47 c6 -6 30 -11 54 -11 l43 0 0 -56 c0 -50 -2 -55 -17
-49 -10 4 -42 10 -70 13 -29 2 -53 8 -53 13 0 5 -15 9 -33 9 -38 0 -55 22 -52
65 2 17 3 32 4 34 2 8 114 -8 124 -18z m-1278 -111 c3 -4 2 -15 -1 -24 -5 -13
-39 -15 -240 -16 -129 0 -234 3 -234 8 0 17 46 32 110 35 136 7 360 5 365 -3z
m-1755 -40 c0 -18 -7 -33 -17 -39 -10 -5 -107 -10 -215 -10 l-198 -2 0 23 c0
45 8 47 180 51 91 1 184 4 208 5 40 2 42 1 42 -28z m-1660 -135 l0 -35 -155 0
c-97 0 -155 -4 -155 -10 0 -6 -128 -10 -364 -10 -201 0 -367 -4 -370 -9 -3 -4
-159 -11 -346 -15 -188 -4 -369 -12 -403 -17 -34 -5 -101 -9 -148 -9 -70 0
-88 3 -93 16 -10 25 -7 34 9 34 8 0 15 4 15 8 0 5 107 12 238 16 130 3 325 11
432 16 107 5 288 9 403 10 131 0 207 4 207 10 0 6 125 10 354 10 226 0 357 4
361 10 11 18 15 11 15 -25z m6921 -245 c59 0 99 -4 99 -10 0 -5 8 -10 18 -10
9 0 35 -7 57 -15 22 -8 55 -14 73 -15 17 0 32 -4 32 -10 0 -5 22 -10 49 -10
28 0 52 -4 55 -9 3 -5 30 -12 61 -16 30 -3 57 -11 60 -16 4 -5 26 -9 51 -9 28
0 43 -4 39 -10 -4 -6 13 -10 44 -10 38 0 51 -4 51 -14 0 -19 -17 -29 -25 -16
-3 5 -26 10 -51 10 -24 0 -44 5 -44 10 0 6 -25 10 -56 10 -34 0 -53 4 -49 10
4 6 -11 10 -37 10 -24 1 -54 7 -68 15 -14 8 -47 14 -73 15 -30 0 -46 4 -42 10
4 6 -15 10 -50 10 -35 0 -54 4 -50 10 4 6 -6 10 -23 10 -16 0 -51 7 -78 15
-27 8 -73 15 -101 15 -48 0 -53 2 -52 23 0 12 3 16 6 10 3 -9 34 -13 104 -13z
m-1991 -149 c0 -5 21 -12 46 -16 73 -11 94 -24 94 -57 0 -16 -6 -36 -14 -44
-17 -16 -56 -19 -56 -4 0 6 -20 10 -45 10 -25 0 -45 5 -45 10 0 6 -15 10 -34
10 -36 0 -46 15 -46 73 0 26 2 27 50 27 28 0 50 -4 50 -9z m-552 -82 c28 -7
52 -17 52 -21 0 -4 7 -8 15 -8 11 0 15 -12 15 -45 0 -41 -2 -45 -25 -45 -14 0
-25 5 -25 10 0 6 -20 10 -45 10 -25 0 -45 5 -45 10 0 6 -13 10 -28 10 -38 0
-52 17 -52 63 l0 39 43 -5 c23 -3 66 -11 95 -18z m245 -64 c20 -8 50 -15 67
-15 16 0 30 -4 30 -10 0 -5 16 -10 35 -10 l35 0 0 -50 c0 -48 -1 -50 -29 -50
-16 0 -45 7 -64 15 -20 8 -50 15 -67 15 -16 0 -30 5 -30 10 0 6 -7 10 -15 10
-20 0 -30 46 -16 76 13 28 9 28 54 9z m-4406 -63 c15 -10 23 -180 10 -209 -10
-22 -15 -23 -136 -23 -69 -1 -157 -5 -196 -10 -38 -5 -202 -12 -362 -16 -161
-4 -293 -11 -293 -16 0 -4 -126 -8 -280 -8 -180 0 -280 -4 -280 -10 0 -6 -38
-10 -95 -10 -57 0 -95 4 -95 10 0 6 -11 10 -25 10 -14 0 -25 4 -25 10 0 5 -16
12 -35 16 -19 3 -35 10 -35 15 0 5 -11 9 -25 9 -14 0 -25 5 -25 10 0 6 -11 10
-25 10 -14 0 -25 4 -25 10 0 5 -16 12 -35 16 -19 3 -35 10 -35 15 0 5 -11 9
-25 9 -14 0 -25 5 -25 10 0 6 -9 10 -19 10 -11 0 -22 4 -25 9 -3 5 -22 12 -41
15 -20 4 -33 11 -30 17 4 5 -1 9 -9 9 -9 0 -16 4 -16 8 0 5 105 12 233 16 127
4 250 8 272 11 22 2 176 7 342 11 166 4 300 11 297 15 -2 5 134 11 303 14 281
4 714 18 738 23 6 1 15 -2 22 -6z m3483 -67 l0 -25 -116 0 c-74 0 -113 -4
-109 -10 4 -7 -69 -10 -212 -10 -120 0 -242 -3 -270 -6 -52 -7 -53 -6 -53 20
0 23 4 26 33 27 17 0 113 6 212 13 99 7 255 14 348 15 l167 1 0 -25z m3648
-16 c2 -5 10 -9 18 -9 11 0 14 -20 14 -95 l0 -95 -49 0 c-72 0 -81 13 -81 119
0 48 3 90 6 93 9 9 89 -2 92 -13z m3638 -3 c10 -10 14 -39 14 -101 0 -62 -4
-91 -14 -101 -18 -17 -262 -21 -251 -4 3 6 2 10 -3 10 -6 0 -7 14 -2 37 5 20
8 39 8 42 0 3 0 30 1 59 l1 52 75 0 c43 0 75 4 75 10 0 15 80 12 96 -4z
m-13186 -41 c0 -24 5 -35 15 -35 8 0 29 16 48 35 19 19 44 35 56 35 19 0 21
-5 21 -60 0 -33 3 -60 6 -60 4 0 21 16 40 35 18 19 42 35 53 35 19 0 21 -6 21
-65 0 -36 3 -65 6 -65 8 0 64 63 64 73 0 4 10 7 22 7 17 0 19 -3 10 -12 -7 -7
-12 -19 -12 -28 0 -25 -24 -70 -40 -75 -18 -6 -276 -25 -337 -25 l-43 0 0 120
0 120 35 0 c33 0 35 -2 35 -35z m12820 -74 l0 -109 -37 -6 c-21 -3 -122 -9
-225 -12 l-188 -7 0 112 0 111 60 0 c33 0 60 4 60 10 0 6 62 10 165 10 l165 0
0 -109z m-916 63 c13 -5 16 -25 16 -110 l0 -104 -147 -2 c-159 -1 -159 -1
-185 -12 -11 -5 -23 -2 -33 7 -21 21 -22 182 -1 202 11 11 52 15 168 18 84 1
156 4 160 5 3 1 13 -1 22 -4z m-5424 -13 c0 -5 19 -11 43 -14 23 -3 63 -10 90
-17 l47 -12 0 -48 c0 -27 -4 -52 -10 -55 -5 -3 -10 -1 -10 4 0 6 -20 11 -44
11 -25 0 -48 5 -51 10 -3 6 -15 10 -26 10 -11 0 -33 7 -49 15 -30 16 -39 49
-24 89 6 17 34 22 34 7z m4610 -120 l0 -109 -32 -5 c-98 -17 -170 -19 -179 -6
-12 20 -11 186 1 210 10 17 22 19 110 19 l100 0 0 -109z m-5453 9 c6 -33 -12
-37 -202 -44 -104 -4 -214 -9 -242 -12 l-53 -5 0 31 0 30 63 1 c34 1 121 5
192 9 187 10 239 8 242 -10z m853 -98 c0 -7 58 -25 130 -40 32 -7 35 -11 38
-46 5 -60 1 -64 -52 -52 -25 6 -46 14 -46 18 0 5 -18 8 -40 8 -64 0 -97 45
-74 104 6 16 44 23 44 8z m1893 -81 c4 0 7 -19 7 -41 0 -29 -4 -40 -15 -40 -8
0 -15 -4 -15 -10 0 -6 -42 -10 -105 -10 -63 0 -105 4 -105 10 0 6 -21 10 -47
10 -27 1 -59 7 -73 15 -14 8 -40 14 -57 15 -18 0 -33 5 -33 10 0 6 -11 10 -25
10 -14 0 -25 5 -25 10 0 6 1 11 3 11 10 6 465 15 490 10z m-6299 -67 c9 -3 16
-12 16 -20 0 -11 -35 -14 -194 -14 -213 0 -212 1 -199 -62 6 -29 5 -31 -18
-23 -13 4 -41 9 -61 12 -21 3 -38 9 -38 14 0 5 -15 9 -32 9 -18 0 -42 7 -52
15 -11 8 -30 15 -43 15 -13 0 -23 5 -23 10 0 6 16 10 35 10 19 0 35 5 35 10 0
6 96 10 269 10 169 0 272 4 276 10 7 12 8 12 29 4z m-948 -69 c3 -19 8 -35 11
-35 7 0 33 28 33 35 0 15 30 35 53 35 26 0 37 -16 37 -53 0 -45 15 -51 49 -18
17 17 31 35 31 41 0 8 39 16 40 8 8 -79 15 -114 24 -120 12 -8 56 38 56 59 0
7 11 13 25 13 20 0 25 -5 25 -25 0 -14 5 -25 10 -25 6 0 9 -3 9 -7 -5 -32 3
-63 16 -63 8 0 15 4 15 8 0 5 8 17 18 28 9 11 22 29 28 40 14 24 44 31 44 10
0 -9 5 -16 10 -16 6 0 10 -11 10 -25 0 -14 5 -25 10 -25 17 0 11 -38 -7 -44
-64 -18 -120 -21 -426 -24 -137 -1 -216 -6 -212 -12 4 -6 -86 -11 -242 -14
-136 -2 -345 -8 -463 -14 -202 -10 -369 -15 -397 -13 -20 2 -18 208 1 227 11
11 49 14 173 14 87 0 183 4 214 9 31 5 175 13 320 17 145 3 270 10 278 14 8 4
56 8 107 9 l93 2 7 -36z m12081 -503 c17 -14 21 -31 23 -87 4 -106 3 -115 -20
-115 -11 0 -20 -4 -20 -10 0 -6 -38 -10 -95 -10 -52 0 -95 -4 -95 -9 0 -5 -21
-9 -47 -9 -34 -1 -44 1 -33 8 13 8 13 10 -2 10 -16 0 -17 11 -14 104 2 71 7
108 17 119 22 25 258 24 286 -1z m-391 -10 c16 -10 33 -46 32 -68 0 -10 2 -46
5 -79 5 -56 4 -61 -15 -62 -12 -1 -24 -6 -27 -11 -3 -5 -105 -14 -226 -19
-181 -8 -222 -8 -233 4 -11 11 -11 13 0 13 8 0 9 3 3 8 -14 10 -19 52 -6 52 6
0 10 8 9 18 -3 44 3 132 10 130 4 0 14 2 22 5 29 13 409 21 426 9z m-11006
-117 c0 -63 -3 -116 -7 -117 -44 -9 -410 -28 -538 -28 -88 0 -134 -4 -130 -10
4 -7 -80 -10 -244 -10 -137 0 -252 -4 -255 -8 -3 -5 -100 -12 -216 -15 -116
-4 -269 -12 -339 -18 -70 -7 -135 -10 -144 -6 -14 5 -17 23 -17 117 0 83 4
115 14 126 11 11 51 14 183 15 92 0 218 4 278 9 61 5 224 13 363 16 138 4 252
11 252 16 0 4 116 8 258 8 148 0 263 4 272 10 8 5 72 10 143 10 l127 0 0 -115z
m10100 -10 c0 -61 4 -85 13 -86 10 0 10 -2 0 -6 -7 -2 -13 -11 -13 -20 0 -38
-23 -43 -204 -43 l-176 0 0 110 c0 93 3 110 18 119 9 6 91 11 190 11 l172 0 0
-85z m-10100 -529 c0 -41 -30 -47 -256 -53 -118 -3 -214 -10 -214 -15 0 -4
-92 -8 -204 -8 -113 0 -207 -4 -210 -8 -3 -5 -90 -12 -194 -15 -104 -4 -196
-9 -205 -13 -10 -3 -17 -17 -17 -31 0 -13 -6 -31 -12 -38 -27 -30 -38 -44 -38
-50 0 -3 -10 -16 -23 -29 -21 -21 -34 -23 -192 -30 -94 -3 -205 -9 -248 -13
l-78 -6 3 124 3 124 80 2 c44 2 181 10 305 18 124 8 287 15 363 15 85 0 137 4
137 10 0 6 85 10 234 10 146 0 237 4 241 10 3 6 56 11 118 11 62 1 171 4 242
8 153 7 165 6 165 -23z m12350 -68 c1 -7 4 -62 7 -123 3 -60 5 -123 4 -140 -1
-16 -4 -72 -7 -122 l-5 -93 -97 -1 c-144 -2 -247 -7 -342 -18 -47 -6 -92 -9
-100 -9 -73 5 -260 -4 -255 -12 3 -5 -1 -10 -9 -10 -8 0 -18 5 -21 10 -8 13
-45 13 -45 0 0 -7 -63 -10 -184 -10 -115 1 -192 -3 -205 -9 -26 -14 -173 -15
-149 0 12 6 16 19 13 39 -4 35 3 37 33 9 21 -19 32 -20 194 -17 121 3 173 8
176 16 2 7 13 10 26 6 16 -4 25 0 30 11 5 14 2 16 -14 12 -16 -4 -20 0 -20 19
0 13 5 24 11 24 6 0 4 7 -5 15 -8 8 -22 15 -30 15 -9 0 -16 6 -16 13 0 8 -11
19 -25 25 -14 7 -30 23 -35 37 -7 18 -17 25 -35 25 -14 0 -25 3 -25 8 0 10
-65 53 -76 50 -15 -4 -54 13 -54 23 0 5 -13 9 -30 9 -16 0 -30 5 -30 10 0 6
20 10 45 10 25 0 45 -4 45 -8 0 -5 25 -10 55 -11 60 -2 74 13 23 24 -60 13
-85 45 -35 45 13 0 17 -5 13 -16 -5 -13 0 -15 31 -10 21 4 54 2 73 -5 48 -15
100 -19 100 -8 0 8 -38 14 -69 10 -7 -2 -10 2 -7 7 9 15 -79 46 -108 38 -16
-4 -26 -1 -30 10 -3 8 -10 13 -15 10 -5 -4 -11 0 -14 6 -3 10 -9 10 -28 1 -42
-20 -54 -21 -68 -6 -11 12 -8 13 26 9 21 -3 32 -3 25 0 -35 16 14 24 149 24
85 0 159 5 170 10 10 6 112 13 227 17 114 3 209 9 210 14 2 5 97 9 210 9 116
0 214 5 222 10 22 14 70 12 70 -2z m-2510 -138 c0 -5 -8 -13 -17 -18 -15 -9
-15 -11 0 -26 12 -12 15 -32 13 -77 l-2 -60 30 1 c86 5 114 0 119 -20 3 -13
11 -18 20 -14 10 3 20 -3 27 -15 7 -14 21 -21 40 -21 l30 0 0 -96 0 -96 28 2
c45 3 62 1 62 -10 0 -6 -27 -10 -61 -10 -56 0 -60 2 -54 20 6 18 2 20 -44 20
-28 0 -51 5 -51 10 0 18 -19 10 -25 -11 -6 -16 -9 -18 -15 -8 -7 10 -14 10
-34 1 -14 -6 -26 -16 -26 -22 0 -5 -4 -10 -10 -10 -5 0 -10 8 -10 19 0 10 -9
21 -20 24 -13 3 -20 0 -20 -9 0 -17 -22 -18 -38 -2 -9 9 -12 9 -12 0 0 -7 -11
-12 -24 -12 -26 0 -31 17 -43 138 -4 43 -2 62 6 62 6 0 11 14 11 30 0 28 3 30
35 30 35 0 35 0 33 43 0 23 0 66 2 95 3 47 5 52 27 52 12 0 23 -4 23 -10z
m-1834 -105 c-1 -8 -5 -18 -9 -21 -4 -4 -7 -18 -7 -31 0 -14 -4 -21 -10 -18
-5 3 -10 -2 -10 -12 0 -10 -7 -31 -15 -47 -8 -15 -15 -37 -15 -47 0 -11 -4
-19 -9 -19 -8 0 -11 -9 -27 -87 -4 -21 -13 -33 -23 -34 -44 -3 -88 4 -108 17
-12 8 -34 14 -48 14 -14 0 -25 5 -25 10 0 6 -16 10 -35 10 -19 0 -43 4 -53 9
-44 24 -87 41 -104 41 -10 0 -18 5 -18 10 0 6 -9 10 -19 10 -20 0 -31 -18 -31
-53 0 -18 -2 -19 -10 -7 -13 20 -13 110 0 110 14 0 13 33 -1 47 -16 16 -3 32
21 26 16 -4 20 0 20 21 0 19 5 26 20 26 11 0 20 -7 20 -15 0 -8 -4 -15 -10
-15 -5 0 -10 -9 -10 -20 0 -11 -4 -20 -10 -20 -5 0 -10 -16 -10 -35 0 -33 2
-35 35 -35 19 0 35 -4 35 -9 0 -5 14 -12 31 -16 23 -5 34 -3 44 12 14 17 14
17 16 -2 1 -11 1 -23 0 -27 0 -5 13 -8 29 -8 17 0 30 -4 30 -9 0 -5 17 -12 38
-16 20 -4 42 -11 47 -15 6 -5 28 -10 50 -12 31 -2 40 1 43 15 3 12 -3 17 -22
17 -14 0 -28 5 -31 10 -3 6 -17 10 -31 10 -27 0 -54 20 -54 40 0 18 80 0 142
-31 14 -7 19 -4 24 16 3 14 10 25 15 25 5 0 9 13 9 29 0 17 5 33 10 36 6 3 10
16 10 28 0 29 36 87 54 87 8 0 13 -7 12 -15z m743 -42 c-1 -10 1 -26 6 -35 4
-10 5 -25 2 -33 -4 -8 -2 -17 3 -20 6 -4 10 -19 10 -35 0 -15 5 -30 12 -32 7
-3 9 -14 4 -33 -5 -21 -10 -25 -16 -16 -13 21 -19 -12 -22 -120 -2 -78 1 -99
14 -113 9 -9 19 -16 23 -16 17 0 35 32 35 64 0 20 5 36 10 36 6 0 10 13 10 29
0 16 7 34 15 41 8 7 15 23 15 36 0 12 5 26 10 29 6 3 10 19 10 36 0 16 5 29
10 29 6 0 10 9 10 19 0 11 7 26 15 35 8 8 15 24 15 36 0 13 5 20 13 18 6 -3
12 -10 11 -16 -1 -7 -2 -30 -2 -53 -1 -24 -6 -38 -12 -34 -6 4 -10 -6 -10 -24
0 -16 -4 -32 -9 -35 -5 -3 -12 -22 -15 -41 -4 -19 -11 -35 -16 -35 -6 0 -10
-11 -10 -24 0 -14 -4 -28 -10 -31 -5 -3 -10 -17 -10 -30 0 -13 -4 -26 -9 -30
-5 -3 -12 -19 -16 -35 -4 -17 -11 -30 -16 -30 -5 0 -9 -13 -9 -30 0 -16 -4
-30 -10 -30 -5 0 -10 -7 -10 -15 0 -10 11 -15 35 -15 19 0 35 -4 35 -9 0 -5
15 -11 32 -15 48 -9 89 -29 84 -41 -2 -5 -9 -9 -15 -7 -6 1 -11 -3 -11 -10 0
-9 -3 -9 -12 0 -7 7 -22 12 -35 12 -13 0 -23 5 -23 10 0 6 -13 10 -29 10 -17
0 -33 4 -36 10 -3 5 -17 9 -30 8 -19 -2 -25 -8 -25 -25 0 -13 -7 -26 -15 -30
-19 -7 -34 5 -19 15 19 13 25 42 9 48 -17 7 -21 74 -5 74 6 0 10 -7 10 -15 0
-15 19 -22 21 -7 0 4 2 15 4 25 2 12 -3 17 -21 17 l-24 0 0 250 c0 170 3 250
11 250 5 0 9 -8 8 -17z m-1803 -45 c0 -18 -5 -36 -11 -40 -5 -4 -2 -10 7 -13
12 -5 16 -14 12 -33 -4 -19 0 -30 13 -38 16 -10 19 -8 20 8 3 29 10 33 38 20
14 -7 35 -12 45 -12 11 0 20 -4 20 -10 0 -5 13 -10 29 -10 17 0 33 -4 36 -10
3 -5 15 -10 25 -10 11 0 31 -5 45 -12 22 -10 25 -17 25 -59 l0 -48 -98 1 c-57
1 -106 -3 -117 -10 -11 -6 -14 -12 -7 -12 8 0 12 -16 12 -44 0 -41 -2 -44 -25
-42 -13 2 -30 8 -37 13 -7 6 -28 14 -45 18 -18 3 -33 11 -33 16 0 5 -14 9 -31
9 -17 0 -28 4 -24 10 3 6 -5 10 -19 10 -13 0 -31 7 -40 15 -8 8 -22 15 -30 15
-10 0 -16 9 -16 21 0 18 4 21 29 16 19 -4 31 -2 34 6 8 21 -18 47 -47 47 -14
0 -26 4 -26 9 0 5 -16 12 -35 15 -20 4 -35 13 -35 21 0 7 -9 17 -21 20 -18 6
-20 13 -17 51 2 29 -1 45 -9 49 -21 7 -15 25 8 25 15 0 20 -6 19 -22 -1 -13
-2 -40 -1 -60 1 -36 2 -38 36 -38 19 0 35 -4 35 -10 0 -17 77 -12 84 6 9 23 7
36 -4 29 -5 -3 -10 -2 -10 4 0 5 4 11 8 13 14 5 24 58 12 58 -6 0 -8 5 -5 10
3 6 -3 10 -14 10 -12 0 -21 5 -21 10 0 6 38 10 94 10 l94 0 -2 -32z m3814 -64
c0 -26 5 -44 11 -44 7 0 9 -11 5 -32 -7 -35 -14 -76 -15 -94 -1 -15 -441 -17
-441 -2 0 6 24 9 58 7 62 -3 125 8 117 20 -2 5 8 6 23 4 16 -3 22 -1 15 4 -19
14 -13 83 9 105 17 17 31 19 111 16 l92 -3 -4 39 c-2 27 0 36 8 32 6 -4 11
-27 11 -52z m-3860 -289 c0 -10 10 -15 30 -15 17 0 30 -4 30 -10 0 -5 14 -10
30 -10 17 0 30 -5 30 -12 0 -9 4 -8 10 2 7 10 10 -7 10 -57 0 -75 0 -75 -45
-76 -80 -1 -113 5 -133 23 -12 11 -28 20 -37 20 -9 0 -15 9 -15 25 0 14 3 24
8 24 18 -3 32 2 32 12 0 6 -9 9 -20 6 -17 -4 -20 0 -20 33 0 34 3 39 28 43 53
8 62 7 62 -8z m737 -200 c32 -6 41 -12 40 -25 -1 -10 -5 -16 -9 -14 -4 3 -8
-12 -8 -33 0 -28 -3 -34 -10 -23 -7 11 -10 6 -10 -21 0 -68 -45 -90 -122 -58
-24 10 -28 17 -28 52 0 26 6 44 18 53 10 8 12 13 5 14 -7 0 -13 5 -13 11 0 5
4 7 10 4 6 -4 7 1 3 11 -4 10 0 22 11 29 17 13 40 13 113 0z m-8834 -89 c9 -7
17 -18 17 -24 0 -7 11 -9 30 -6 22 5 31 2 36 -10 3 -9 15 -16 25 -16 14 0 19
-7 19 -25 0 -16 6 -25 15 -25 8 0 15 -9 15 -20 0 -17 -6 -20 -35 -18 -19 1
-35 6 -35 10 0 4 -5 8 -11 8 -6 0 -17 7 -26 15 -9 9 -23 13 -35 10 -25 -9 -48
11 -48 41 0 13 -4 24 -9 24 -5 0 -11 11 -13 25 -4 20 -1 25 16 25 11 0 29 -7
39 -14z m9327 -101 c0 -3 -4 -3 -10 0 -6 4 -10 -25 -10 -79 l0 -86 -31 0 c-33
0 -64 23 -54 40 11 18 14 51 4 45 -5 -4 -9 1 -9 9 0 8 5 18 11 21 5 4 9 21 7
38 -3 28 0 32 25 35 15 2 27 8 27 15 0 6 9 1 20 -11 11 -12 20 -24 20 -27z
m-9126 -805 c-5 -47 -7 -52 -17 -34 -9 15 -20 19 -44 17 -18 -1 -33 1 -33 5 0
4 -10 9 -22 9 -13 1 -24 7 -26 13 -2 5 -12 10 -23 10 -10 0 -19 4 -19 9 0 5
-11 12 -25 15 -14 4 -25 11 -25 16 0 6 -7 10 -15 10 -8 0 -24 9 -34 19 -19 19
-19 19 2 25 12 3 48 6 80 6 31 0 57 5 57 10 0 6 27 10 60 10 50 0 60 3 61 18
0 9 0 64 -1 122 -1 58 3 115 7 125 10 25 25 -330 17 -405z m546 270 c0 -5 13
-10 30 -10 16 0 44 -9 62 -19 17 -11 35 -18 40 -15 4 3 8 0 8 -5 0 -6 14 -11
31 -11 37 0 68 -33 69 -72 0 -16 5 -28 10 -28 6 0 10 -4 10 -8 0 -12 -63 -14
-70 -3 -3 6 -20 11 -38 13 -18 1 -32 8 -32 15 0 7 -9 13 -20 13 -11 0 -20 5
-20 10 0 6 -13 10 -29 10 -16 0 -31 6 -35 15 -3 8 -16 15 -30 15 -18 0 -24 5
-23 23 1 12 -2 32 -7 45 -6 19 -4 22 18 22 14 0 26 -4 26 -10z m-155 -430 c3
-5 44 -10 91 -10 54 0 83 4 79 10 -3 6 3 10 14 10 14 0 21 -6 21 -19 0 -10 9
-21 21 -24 11 -3 23 -15 26 -26 3 -12 9 -21 14 -21 20 0 7 -16 -26 -34 -44
-24 -44 -34 -2 -38 24 -2 33 -8 35 -25 2 -13 -1 -23 -7 -23 -5 0 -13 -10 -16
-21 -6 -17 -9 -19 -16 -8 -6 10 -9 10 -9 2 0 -7 -7 -10 -15 -7 -11 5 -13 2 -9
-11 6 -14 2 -15 -32 -9 -49 9 -116 39 -107 47 3 4 -4 7 -16 7 -12 0 -27 5 -34
10 -7 6 -24 20 -40 31 -15 11 -25 24 -22 29 3 5 -1 11 -7 14 -7 3 6 2 30 -1
23 -3 42 -1 42 4 0 15 -23 33 -41 33 -14 0 -17 6 -13 28 10 60 23 77 39 52z
m1030 -260 c-4 -6 13 -10 43 -10 48 0 49 -1 66 -42 16 -42 16 -43 -6 -60 -17
-12 -25 -14 -30 -5 -6 9 -11 8 -18 -3 -13 -20 -13 -30 1 -30 14 0 69 -55 69
-69 0 -6 5 -11 10 -11 6 0 10 -19 9 -42 0 -24 -3 -37 -6 -30 -2 6 -8 10 -13 7
-10 -6 -1 -45 11 -45 5 0 9 -6 9 -14 0 -8 10 -16 22 -18 13 -2 24 -11 26 -20
3 -14 -4 -18 -32 -18 -19 0 -38 5 -41 10 -3 6 -15 10 -26 10 -10 0 -19 5 -19
10 0 6 -4 10 -10 10 -10 0 -92 55 -124 83 -11 9 -25 17 -31 17 -6 0 -22 11
-35 25 -13 14 -32 25 -42 25 -11 0 -17 4 -13 9 3 6 -12 11 -32 13 -30 2 -38 7
-38 23 0 30 61 35 70 6 3 -12 12 -21 20 -21 7 0 20 -6 27 -13 25 -25 62 -41
66 -28 2 6 12 11 23 11 10 0 19 5 19 10 0 6 -13 10 -29 10 -33 0 -49 15 -26
24 19 7 19 26 0 26 -8 0 -15 5 -15 10 0 11 31 14 93 11 30 -2 37 1 37 16 0 11
5 24 11 30 6 6 9 23 5 36 -4 19 -11 24 -26 20 -11 -3 -20 -12 -20 -19 0 -8 -9
-14 -20 -14 -11 0 -20 2 -20 3 0 9 32 67 36 67 3 0 2 -4 -1 -10z m-636 -57 c1
-10 2 -30 2 -45 0 -23 4 -28 24 -28 14 0 24 -3 24 -7 -3 -20 2 -33 14 -33 9 0
11 17 9 61 -3 40 0 59 6 55 6 -3 13 -2 17 4 4 6 13 5 25 -3 34 -20 24 -127
-11 -127 -11 0 -19 -4 -19 -10 0 -14 16 -13 41 3 17 10 22 9 30 -5 5 -9 24
-19 42 -23 45 -9 107 -36 107 -47 0 -15 43 -47 63 -48 9 0 17 -5 17 -11 0 -7
9 -9 24 -5 17 4 28 0 42 -19 10 -14 29 -25 41 -25 13 0 23 -5 23 -10 0 -6 11
-15 25 -20 26 -10 31 -32 19 -77 -8 -28 -34 -30 -41 -3 -3 13 -14 20 -29 20
-13 0 -24 5 -24 10 0 6 -8 10 -17 10 -10 0 -29 12 -42 25 -13 14 -28 25 -34
25 -5 0 -25 11 -43 25 -18 14 -36 25 -39 25 -3 0 -21 11 -39 25 -18 14 -40 25
-49 25 -10 0 -17 5 -17 10 0 6 -7 10 -15 10 -8 0 -15 4 -15 10 0 5 -11 12 -25
16 -14 3 -22 10 -19 15 4 7 -20 14 -28 7 -4 -3 -45 30 -81 65 -16 15 -32 27
-37 27 -4 0 -13 7 -20 15 -20 24 -52 1 -40 -29 5 -13 6 -27 3 -30 -4 -3 3 -6
15 -6 11 0 24 -4 27 -10 3 -5 15 -10 27 -10 14 0 18 -5 14 -16 -5 -13 -1 -15
18 -10 15 4 28 0 36 -9 7 -8 19 -15 26 -15 8 0 14 -4 14 -10 0 -5 7 -10 15
-10 8 0 15 -7 15 -17 0 -9 3 -13 7 -10 3 4 13 -2 21 -14 21 -30 9 -33 -25 -5
-16 13 -44 29 -63 34 -19 6 -29 11 -22 11 6 1 12 6 12 12 0 6 -9 9 -20 6 -11
-3 -20 -1 -20 4 0 5 -7 9 -15 9 -8 0 -15 5 -15 10 0 6 -5 10 -11 10 -6 0 -23
9 -38 19 -14 10 -37 21 -51 22 -22 4 -24 8 -23 52 1 71 2 74 13 57 6 -10 10
-11 10 -2 0 6 11 12 25 12 14 0 25 5 25 10 0 6 15 10 33 10 25 0 34 -5 36 -17z
m-65 -208 c3 -8 14 -15 25 -15 11 0 28 -8 38 -18 26 -26 90 -72 100 -72 18 0
113 -50 113 -60 0 -6 7 -10 15 -10 8 0 15 -4 15 -10 0 -5 9 -10 20 -10 11 0
20 -4 20 -10 0 -5 -7 -10 -15 -10 -16 0 -20 -12 -8 -23 3 -4 14 0 23 8 16 14
50 12 50 -4 0 -4 10 -8 22 -8 13 -1 24 -7 26 -13 2 -5 10 -10 18 -10 9 0 12
-4 9 -10 -3 -5 1 -10 9 -10 8 0 19 -7 24 -17 6 -10 16 -14 26 -10 10 4 14 11
11 17 -4 6 -10 8 -15 5 -4 -3 -10 5 -13 16 -3 12 -10 18 -16 14 -6 -3 -11 -1
-11 4 0 6 -9 11 -20 11 -11 0 -20 5 -20 11 0 16 -26 39 -45 39 -9 0 -14 4 -10
9 3 5 -5 13 -17 17 l-23 8 25 6 c24 7 80 -14 88 -32 2 -5 15 -8 28 -8 13 0 24
-4 24 -10 0 -5 9 -10 20 -10 13 0 22 -9 26 -25 3 -14 10 -25 15 -25 5 0 9 -12
9 -27 0 -22 -2 -25 -10 -13 -8 12 -10 11 -10 -7 0 -12 4 -23 10 -25 8 -2 16
-28 19 -60 1 -5 15 -8 31 -8 25 0 30 -4 30 -25 0 -14 -4 -25 -10 -25 -5 0 -10
-9 -10 -20 0 -13 10 -22 33 -29 17 -5 27 -10 20 -10 -7 -1 -10 -8 -6 -17 3 -9
0 -20 -8 -24 -7 -5 -10 -13 -5 -17 5 -4 11 -2 13 5 3 6 11 12 18 12 8 0 18 8
24 18 8 14 12 15 22 5 11 -11 10 -13 -4 -13 -9 0 -17 -7 -17 -15 0 -8 -6 -15
-14 -15 -8 0 -18 -5 -22 -12 -4 -7 -3 -8 5 -4 7 5 17 -6 27 -31 34 -83 39 -92
56 -96 20 -6 24 -43 6 -50 -10 -4 -10 -8 2 -16 8 -5 18 -7 22 -5 4 3 8 -6 8
-20 0 -19 -5 -26 -20 -26 -13 0 -20 7 -20 20 0 11 -4 20 -10 20 -10 0 -15 -29
-10 -59 1 -9 -4 -12 -14 -8 -9 4 -16 2 -16 -3 0 -6 -5 -10 -11 -10 -6 0 -8 9
-4 20 5 16 2 20 -14 20 -16 0 -21 6 -21 26 0 14 -4 23 -9 19 -6 -3 -6 -17 1
-35 7 -23 7 -34 -2 -45 -16 -19 -30 -19 -30 0 0 8 5 15 10 15 6 0 10 5 10 10
0 6 -14 10 -31 10 -24 0 -29 3 -25 18 7 20 -29 48 -39 32 -9 -14 -25 -12 -25
3 0 7 -9 18 -20 25 -11 7 -20 17 -20 23 0 5 5 7 11 3 7 -4 9 2 7 17 -1 13 -13
28 -25 34 -19 8 -23 18 -23 56 0 42 -3 48 -30 59 -17 7 -35 20 -39 29 -5 9
-13 12 -17 8 -4 -4 -2 -13 4 -19 13 -13 16 -47 6 -72 -5 -13 -8 -13 -20 -1
-16 16 -19 29 -4 20 20 -13 9 14 -13 32 -29 23 -41 62 -21 70 12 4 21 43 10
43 -18 0 -36 -15 -36 -31 0 -10 -7 -19 -15 -19 -18 0 -20 -16 -2 -27 23 -15
40 -54 28 -66 -8 -8 -11 -6 -11 6 0 9 -7 17 -15 17 -8 0 -15 7 -15 16 0 8 -7
22 -15 30 -13 13 -12 20 10 54 21 34 23 43 13 60 -7 11 -16 20 -20 20 -14 0
-8 31 7 36 19 8 20 44 1 44 -8 0 -16 7 -20 15 -3 8 -12 15 -20 15 -18 0 -30
-30 -16 -44 7 -7 10 -6 10 2 0 7 7 12 16 12 11 0 14 -5 10 -16 -3 -9 -6 -19
-6 -24 0 -4 -9 -10 -21 -13 -28 -7 -22 -43 7 -39 17 2 21 -3 22 -31 1 -36 -30
-78 -43 -58 -3 6 1 11 9 11 20 0 21 19 1 26 -8 4 -15 16 -15 29 0 13 -7 25
-15 29 -8 3 -15 12 -15 20 0 7 7 16 15 20 8 3 15 12 15 21 0 8 -7 15 -15 15
-8 0 -15 -7 -15 -17 0 -9 -3 -13 -7 -10 -3 4 -12 2 -20 -4 -10 -9 -13 -7 -14
7 0 11 -2 32 -3 48 -2 33 18 45 45 28 26 -17 34 -15 18 4 -11 14 -11 18 4 29
18 13 24 31 7 20 -12 -7 -70 16 -70 27 0 4 8 4 17 1 13 -5 15 -2 10 11 -4 10
-7 22 -7 27 0 5 -7 9 -15 9 -7 0 -19 8 -25 18 -8 12 -13 13 -16 5 -9 -21 -24
-15 -24 10 0 34 -19 49 -38 30 -14 -14 -16 -13 -23 4 -8 23 -28 40 -53 44 -28
6 -30 24 -4 37 31 15 35 14 42 -3z m7276 -185 c0 -47 -3 -60 -15 -60 -8 0 -15
-4 -15 -10 0 -6 -31 -10 -73 -10 l-74 0 1 33 c1 17 -2 42 -6 55 -4 12 -3 22 2
22 6 0 10 7 10 15 0 12 16 15 85 15 l85 0 0 -60z m-4917 -290 c9 -13 20 -18
31 -14 10 4 16 1 16 -9 0 -22 21 -32 31 -16 7 11 12 9 24 -8 9 -13 23 -23 31
-23 8 0 14 -7 14 -15 0 -18 12 -19 27 -4 15 15 43 -11 43 -39 0 -30 13 -35 32
-10 l18 23 0 -44 c0 -35 -3 -42 -16 -37 -9 3 -23 6 -31 6 -9 0 -14 3 -10 6 7
8 -17 34 -32 34 -6 0 -11 -4 -11 -10 0 -5 -9 -10 -19 -10 -19 0 -37 32 -33 58
2 6 -6 12 -18 12 -11 0 -20 4 -20 9 0 6 -24 11 -52 13 -55 3 -60 9 -43 51 5
12 2 17 -9 17 -9 0 -16 7 -16 15 0 22 26 18 43 -5z m977 -25 c0 -14 -4 -25
-10 -25 -5 0 -10 -11 -10 -25 0 -14 5 -25 10 -25 6 0 10 -16 10 -36 0 -31 -3
-35 -22 -32 -16 2 -24 11 -26 29 -2 21 -8 26 -22 22 -10 -3 -21 -16 -24 -29
-9 -34 -46 -33 -46 1 0 14 5 25 10 25 6 0 10 20 10 45 0 45 0 45 35 45 24 0
35 5 35 15 0 9 9 15 25 15 20 0 25 -5 25 -25z m-810 -205 c0 -5 6 -10 14 -10
7 0 30 -11 50 -25 20 -14 43 -25 51 -25 8 0 15 -4 15 -10 0 -5 9 -10 20 -10
11 0 20 -4 20 -9 0 -13 34 -23 54 -15 10 4 16 18 16 41 0 31 2 34 22 27 43
-13 48 -27 48 -142 0 -123 1 -122 -76 -122 -24 0 -44 -4 -44 -9 0 -4 -40 -9
-89 -10 l-88 -2 -7 32 c-6 33 17 75 35 63 5 -3 9 6 9 20 0 14 -4 26 -10 26 -5
0 -10 7 -10 15 0 8 -5 15 -11 15 -24 0 -39 30 -39 79 0 27 -4 53 -10 56 -17
10 -11 25 10 25 11 0 20 -4 20 -10z m4010 -236 c0 -75 -11 -84 -104 -84 -74 0
-84 4 -76 35 2 6 4 21 5 35 1 14 3 31 4 38 1 8 19 12 56 12 30 0 55 5 55 10 0
6 14 10 30 10 30 0 30 0 30 -56z m-3270 -89 c0 -14 5 -25 10 -25 6 0 10 7 10
15 0 8 7 15 15 15 8 0 15 -4 15 -8 0 -5 16 -16 35 -25 42 -20 43 -26 10 -61
-14 -15 -25 -31 -25 -36 0 -4 -6 -11 -12 -14 -10 -5 -10 -7 0 -12 6 -3 12 -18
12 -34 0 -20 6 -31 21 -35 22 -7 43 5 22 12 -12 4 -20 93 -9 93 2 0 13 3 23 6
15 5 16 4 3 -5 -12 -8 -12 -13 -3 -19 8 -5 12 -29 12 -62 -2 -45 -6 -59 -30
-82 -15 -15 -37 -28 -49 -28 -12 0 -18 -4 -15 -10 4 -6 -7 -10 -25 -10 -28 0
-31 2 -24 23 3 12 11 24 15 25 12 5 11 42 -1 42 -5 0 -10 11 -10 25 0 20 -5
25 -25 25 -14 0 -25 5 -25 10 0 6 -9 10 -21 10 -11 0 -18 4 -15 9 4 5 -3 7
-14 4 -15 -4 -20 0 -20 15 0 11 8 22 17 24 16 3 16 4 0 20 -29 28 -21 48 17
48 19 0 36 -6 39 -12 2 -8 8 -9 13 -4 5 5 4 11 -3 13 -7 3 -13 20 -13 39 0 30
3 34 25 34 20 0 25 -5 25 -25z m-430 -92 l0 -74 -140 2 c-106 1 -144 4 -155
15 -7 8 -18 14 -24 14 -6 0 -11 7 -11 15 0 8 5 15 11 15 8 0 8 4 0 14 -31 37
42 65 194 75 130 9 125 12 125 -76z m-385 -395 c14 -6 24 -16 22 -22 -3 -6 6
-12 18 -12 20 -2 44 -17 83 -54 20 -19 61 -40 78 -40 8 0 14 -4 14 -10 0 -5 7
-10 15 -10 24 0 17 -19 -10 -26 -16 -4 -25 -13 -25 -25 0 -10 -4 -19 -10 -19
-5 0 -10 -16 -10 -35 0 -24 -5 -35 -15 -35 -8 0 -15 5 -15 10 0 11 -40 -8 -52
-25 -5 -7 -14 -6 -27 2 -26 16 -81 -10 -81 -37 0 -13 -5 -17 -15 -14 -8 4 -15
12 -15 20 0 8 7 14 15 14 8 0 15 7 15 15 0 17 -35 21 -45 5 -11 -18 -25 -11
-25 13 0 13 -5 28 -12 35 -15 15 -55 16 -64 1 -11 -18 -23 12 -17 44 3 15 9
27 14 27 5 0 9 17 9 38 0 32 4 38 22 39 11 1 24 7 27 12 4 6 15 -5 25 -24 20
-37 36 -45 36 -20 0 8 -4 15 -10 15 -5 0 -10 5 -10 10 0 6 7 10 15 10 19 0 19
14 1 29 -15 13 -18 51 -4 51 4 0 8 7 8 15 0 18 11 19 45 3z m487 -123 c15 -14
36 -25 48 -25 11 0 20 -4 20 -10 0 -5 9 -10 20 -10 11 0 20 5 20 10 0 6 -4 10
-10 10 -5 0 -10 9 -10 20 0 11 5 20 10 20 6 0 10 -4 10 -8 0 -5 18 -15 40 -22
22 -7 45 -19 51 -27 6 -7 17 -13 23 -13 7 0 12 -9 13 -20 1 -15 -4 -20 -23
-20 -13 0 -24 3 -24 8 0 10 -61 44 -68 37 -3 -3 0 -11 6 -17 7 -7 12 -16 12
-20 0 -12 -58 -10 -65 2 -3 6 -16 10 -29 10 -12 0 -31 7 -42 15 -10 8 -27 15
-36 15 -10 0 -18 5 -18 10 0 6 -5 10 -11 10 -14 0 -39 25 -39 39 0 22 74 12
102 -14z"/>
<path d="M6336 15091 c-3 -4 0 -20 7 -35 8 -18 20 -26 39 -26 27 0 88 -29 88
-42 0 -5 7 -8 15 -8 8 0 15 -4 15 -10 0 -5 9 -10 20 -10 11 0 20 5 20 10 0 6
5 10 11 10 13 0 39 25 39 38 0 6 5 12 10 14 6 2 12 18 14 36 l5 32 -139 0
c-76 0 -141 -4 -144 -9z"/>
<path d="M183 13502 c-6 -4 -15 -20 -18 -35 -4 -15 -11 -27 -16 -27 -5 0 -9
-7 -9 -15 0 -8 -6 -15 -13 -15 -23 0 -57 36 -57 59 0 22 -8 24 -50 12 l-25 -7
26 -7 c15 -4 29 -13 32 -21 4 -10 1 -13 -9 -9 -17 6 -18 -8 -2 -26 10 -11 10
-14 1 -18 -7 -3 -13 -13 -13 -24 0 -16 7 -19 43 -19 24 0 48 -5 55 -12 9 -9
12 -8 12 5 0 10 -10 21 -22 26 -16 6 -18 10 -8 16 9 5 15 4 18 -3 2 -7 17 -12
33 -12 16 0 29 -4 29 -10 0 -5 11 -10 25 -10 14 0 25 5 25 10 0 6 9 10 20 10
18 0 20 7 20 70 l0 70 -42 0 c-24 0 -48 -4 -55 -8z"/>
<path d="M262 13288 c0 -17 -5 -34 -11 -37 -5 -3 -11 -31 -12 -61 l-3 -55 37
-3 c23 -2 37 1 37 8 0 12 24 40 35 40 9 0 35 27 35 36 0 4 12 18 28 31 15 13
23 23 17 21 -5 -1 -21 4 -35 11 -17 10 -25 11 -28 2 -2 -6 -10 -11 -18 -11 -8
0 -14 -4 -14 -10 0 -5 -11 -10 -25 -10 -22 0 -25 4 -25 35 0 44 -17 47 -18 3z"/>
<path d="M252 13099 c-7 -10 -12 -39 -12 -64 l0 -45 -69 0 c-68 0 -81 -7 -81
-41 0 -13 207 -12 215 1 4 6 -1 22 -9 35 -9 14 -12 25 -6 25 5 0 10 7 10 15 0
8 -9 15 -20 15 -15 0 -20 7 -20 25 0 18 5 25 20 25 25 0 26 16 2 22 -11 3 -23
-2 -30 -13z"/>
</g>
</svg>
