<svg width="3464" height="2328" viewBox="0 0 3464 2328" fill="none" xmlns="http://www.w3.org/2000/svg">
<g clip-path="url(#clip0)">
<path d="M2419.3 1587.37C2405.03 1563.24 2428.71 1534.45 2455.14 1543.81L2679.58 1623.27C2707.74 1633.25 2705.61 1673.77 2676.56 1680.73L2521.16 1717.96C2508.36 1721.02 2495.06 1715.39 2488.35 1704.06L2419.3 1587.37Z" fill="#060606"/>
<path d="M2419.3 1587.37C2405.03 1563.24 2428.71 1534.45 2455.14 1543.81L2679.58 1623.27C2707.74 1633.25 2705.61 1673.77 2676.56 1680.73L2521.16 1717.96C2508.36 1721.02 2495.06 1715.39 2488.35 1704.06L2419.3 1587.37Z" fill="url(#paint0_linear)"/>
<path fill-rule="evenodd" clip-rule="evenodd" d="M1776.16 816.124C1776.16 816.124 1959.6 882.764 1962.72 885.354C1965.84 887.944 2116.52 983.214 2119.55 985.744C2126.47 991.534 2113.46 980.774 2119.55 985.744C2149.76 1010.44 2196.58 1032.78 2226.2 1059.73C2272.15 1101.53 2289.8 1096.2 2333.88 1137.78C2417.02 1216.19 2617.06 1309.58 2685.83 1372.05C2754.59 1434.53 2822.91 1413.24 2894.77 1475.69C2922.23 1499.56 2994.11 1524.11 3031.5 1525.36C3093.21 1527.43 3151.21 1426.73 3192.84 1403.52C3229.22 1383.24 3562.42 1061.26 3609 1059.73L3338.29 1372.05C3313.88 1408.23 3233.5 1498.16 3132.5 1601.7C3031.5 1705.24 3147.81 1594.19 3031.5 1685.94C3001.76 1709.4 3069.27 1663.73 3031.5 1685.94C3014.93 1695.68 3050.03 1675.75 3031.5 1685.94C3025.08 1689.47 3036.99 1685.95 3031.5 1685.94C3043.7 1674.06 3021.59 1697.27 3031.5 1685.94C3075.78 1635.35 3001.91 1736.15 3031.5 1685.94C3056.34 1643.79 3059.11 1728.25 3031.5 1685.94C2999.94 1637.57 2832.99 1563.73 2786.82 1525.36C2674.48 1432 2565.55 1391.07 2448 1302.43C2392.3 1260.44 2388.49 1244.18 2328.6 1202.65C2269.84 1161.91 2128.1 1093.96 2066.76 1054.56L1962.72 997.844C1954.13 993.064 1852.09 952.364 1850.74 950.724L1721.48 885.354C1693.75 870.144 1563.86 831.484 1534.5 816.124C1448.35 771.049 1439.34 787.161 1341.3 753.556C1309.11 742.525 866.051 545.516 833.5 534.71L428 1339.09C428 1339.09 853.641 54.0123 873.5 54.0093C953.425 53.9983 797.198 461.247 873.5 467.104C928 492 1021.4 522.235 1074.5 534.71C1084.06 536.954 1524.87 51.5463 1534.5 54.0093C1552.91 58.7223 1181.73 591.542 1200.59 596.104C1239.47 605.51 1370.87 687.517 1407.41 698.104C1445.03 709 1576.85 740.104 1610.5 753.556C1630.38 761.503 1776.16 816.124 1776.16 816.124ZM1341.3 898.774C1316.69 887.384 1223.76 841.654 1200.59 830.644C1153.56 808.321 1008.32 692.066 1009 645.688C1017.31 646.028 1242.68 750.293 1251.85 753.556C1258.15 755.797 1263.97 757.727 1269.88 760.168C1311.77 777.463 1367.7 797.913 1407.41 816.124C1418.95 821.414 1430.09 825.784 1441.76 830.644C1450.92 834.464 1471.12 842.164 1474.89 846.704C1487.49 846.084 1744.17 969.674 1776.16 985.744C1821.71 1008.63 1879 1036.06 1922.78 1059.73C1927.96 1062.53 2061.44 1131.17 2066.76 1137.78C2075.55 1139.2 2167.04 1191.99 2181.64 1200C2362.68 1299.25 2563.18 1424.11 2736.59 1538.38C2784.78 1570.14 2846.33 1611.81 2894.77 1647.27L2933.65 1675.47C2938.12 1678.78 2943.39 1680.97 2945.96 1685.94C2928.68 1700.4 2814.15 1746.25 2786.82 1755.82C2633.47 1809.52 2489.94 1846.93 2328.6 1873.84L2226.2 1889.05L2145.55 1895.97L2211.24 1890.34C2198.7 1891.72 2186.26 1893.7 2174.06 1894.84C2156.02 1896.51 2138.13 1897.94 2119.55 1899.75C2084.55 1903.16 2043.92 1905.48 2007.95 1906.1C1963.23 1906.86 1938.59 1909.08 1901.92 1894.04C1873.5 1882.38 1850.37 1867.87 1827.78 1851.05C1743.62 1788.39 1754.02 1759.11 1721.48 1601.7C1688.94 1444.29 1688.94 1444.29 1610.5 1339.09C1532.06 1233.89 1576 1290.08 1534.5 1240.22C1523.43 1212.03 1417.41 1089.64 1407.41 1059.73C1401.88 1043.17 1202.12 844.154 1200.59 830.644C1223.54 833.694 1670.27 1070.88 1708.46 1090.8C1760.26 1117.82 1941.82 1213.7 1992.07 1240.22C2040.9 1265.99 2119.85 1312.85 2168.44 1339.09C2267.17 1392.4 2300.31 1420.23 2398.9 1475.69C2415.81 1485.2 2596.98 1601.7 2596.98 1601.7C2596.98 1601.7 2191.28 1479.56 2181.64 1475.69C2162.87 1468.15 1695.35 1273.81 1688.94 1273.53C1691.18 1282.31 1715.37 1326.19 1721.48 1339.09C1731.65 1360.58 1743.92 1385.03 1755.04 1406.41C1818.06 1527.54 1886.46 1672.99 2024.05 1726.68L2032.32 1731.5C2039.69 1731.66 2059.84 1739.62 2068.72 1741.99C2082.09 1745.56 2095.02 1748.03 2108.5 1750.72C2171.92 1763.33 2267.79 1756.76 2333.88 1746.71C2409.25 1735.25 2462.02 1722.4 2535.07 1705.24C2552.51 1701.15 2678.55 1666.74 2685.83 1662.07C2681.72 1655.12 2609.64 1610.24 2603.33 1605.98C2463.86 1511.78 2232.18 1373.37 2081.51 1290.08C2065.57 1281.26 2050.75 1273.25 2036.17 1265.13C2024.05 1258.38 2001.86 1247.13 1992.07 1240.22L1921.57 1202.65C1897.74 1189.8 1875.85 1178.67 1850.74 1164.75C1803.27 1138.43 1755.18 1116.37 1708.46 1090.8C1701.59 1087.04 1458.37 955.434 1441.76 950.724L1341.3 898.774Z" fill="black"/>
<path fill-rule="evenodd" clip-rule="evenodd" d="M1776.16 816.124C1776.16 816.124 1988.95 896.184 1992.07 898.774C1995.19 901.364 2142.52 983.214 2145.55 985.744C2152.47 991.534 2139.46 980.774 2145.55 985.744C2175.76 1010.44 2226.38 1027.61 2256 1054.56C2329.8 1101.54 2464.12 1166.93 2502 1202.65C2585.14 1281.06 2384.64 1131.79 2736.59 1339.09C2805.35 1401.57 2861.79 1413.24 2933.65 1475.69C2961.11 1499.56 2994.11 1474.44 3031.5 1475.69C3093.21 1477.76 3151.21 1426.73 3192.84 1403.52C3229.22 1383.24 3562.42 1061.26 3609 1059.73L3338.29 1372.05C3313.88 1408.23 3233.5 1498.16 3132.5 1601.7C3132.5 1601.7 3147.81 1594.19 3031.5 1685.94C2988 1647.27 2852 1538.38 2786.82 1525.36C2674.48 1432 2564 1372.05 2448 1302.43C2392.3 1260.44 2315.89 1206.28 2256 1164.75C2197.24 1124.01 2128.1 1093.96 2066.76 1054.56L1922.78 985.744C1914.19 980.964 1852.09 952.364 1850.74 950.724L1721.48 885.354C1693.75 870.144 1635.34 846.704 1534.5 816.124C1441.76 788 1439.34 787.161 1341.3 753.556C1309.11 742.525 866.051 545.516 833.5 534.71L428 1339.09C428 1339.09 853.641 54.0123 873.5 54.0093C953.425 53.9983 809.238 425.55 873.5 467.104C912 492 1021.4 522.235 1074.5 534.71C1084.06 536.954 1524.87 51.5463 1534.5 54.0093C1552.91 58.7223 1181.73 591.542 1200.59 596.104C1239.47 605.51 1370.87 687.517 1407.41 698.104C1445.03 709 1576.85 740.104 1610.5 753.556C1630.38 761.503 1776.16 816.124 1776.16 816.124ZM1341.3 898.774C1316.69 887.384 1223.76 841.654 1200.59 830.644C1225.92 862.266 1008.32 692.066 1009 645.688C1017.31 646.028 1242.68 750.293 1251.85 753.556C1258.15 755.797 1263.97 757.727 1269.88 760.168C1311.77 777.463 1367.7 797.913 1407.41 816.124C1418.95 821.414 1430.09 825.784 1441.76 830.644C1450.92 834.464 1471.12 842.164 1474.89 846.704C1487.49 846.084 1744.17 969.674 1776.16 985.744C1821.71 1008.63 1879 1036.06 1922.78 1059.73C1927.96 1062.53 2061.44 1131.17 2066.76 1137.78C2075.55 1139.2 2167.04 1191.99 2181.64 1200C2362.68 1299.25 2563.18 1424.11 2736.59 1538.38C2784.78 1570.14 2846.33 1611.81 2894.77 1647.27L2933.65 1675.47C2938.12 1678.78 2943.39 1680.97 2945.96 1685.94C2928.68 1700.4 2814.15 1746.25 2786.82 1755.82C2633.47 1809.52 2489.94 1846.93 2328.6 1873.84L2226.2 1889.05L2145.55 1895.97L2211.24 1890.34C2198.7 1891.72 2186.26 1893.7 2174.06 1894.84C2156.02 1896.51 2138.13 1897.94 2119.55 1899.75C2084.55 1903.16 2043.92 1905.48 2007.95 1906.1C1963.23 1906.86 1938.59 1909.08 1901.92 1894.04C1873.5 1882.38 1850.37 1867.87 1827.78 1851.05C1743.62 1788.39 1754.02 1759.11 1721.48 1601.7C1688.94 1444.29 1688.94 1444.29 1610.5 1339.09C1532.06 1233.89 1580 1302.43 1534.5 1240.22C1523.43 1212.03 1417.41 1089.64 1407.41 1059.73C1401.88 1043.17 1202.12 844.154 1200.59 830.644C1223.54 833.694 1670.27 1070.88 1708.46 1090.8C1760.26 1117.82 1941.82 1213.7 1992.07 1240.22C2040.9 1265.99 2119.85 1312.85 2168.44 1339.09C2267.17 1392.4 2300.31 1420.23 2398.9 1475.69C2415.81 1485.2 2596.98 1601.7 2596.98 1601.7C2596.98 1601.7 2191.28 1479.56 2181.64 1475.69C2162.87 1468.15 1695.35 1273.81 1688.94 1273.53C1691.18 1282.31 1715.37 1326.19 1721.48 1339.09C1731.65 1360.58 1743.92 1385.03 1755.04 1406.41C1818.06 1527.54 1886.46 1672.99 2024.05 1726.68L2032.32 1731.5C2039.69 1731.66 2059.84 1739.62 2068.72 1741.99C2082.09 1745.56 2095.02 1748.03 2108.5 1750.72C2171.92 1763.33 2267.79 1756.76 2333.88 1746.71C2409.25 1735.25 2462.02 1722.4 2535.07 1705.24C2552.51 1701.15 2678.55 1666.74 2685.83 1662.07C2681.72 1655.12 2609.64 1610.24 2603.33 1605.98C2463.86 1511.78 2232.18 1373.37 2081.51 1290.08C2065.57 1281.26 2050.75 1273.25 2036.17 1265.13C2024.05 1258.38 2001.86 1247.13 1992.07 1240.22L1921.57 1202.65C1897.74 1189.8 1875.85 1178.67 1850.74 1164.75C1803.27 1138.43 1755.18 1116.37 1708.46 1090.8C1701.59 1087.04 1458.37 955.434 1441.76 950.724L1341.3 898.774Z" fill="url(#paint1_linear)"/>
</g>
<defs>
<linearGradient id="paint0_linear" x1="2439.6" y1="1477.08" x2="2647.18" y2="1830.33" gradientUnits="userSpaceOnUse">
<stop stop-color="#E0AAFF"/>
<stop offset="1" stop-color="#240046" stop-opacity="0.68"/>
</linearGradient>
<linearGradient id="paint1_linear" x1="1440" y1="-38.1298" x2="3064" y2="1814.87" gradientUnits="userSpaceOnUse">
<stop stop-color="#4CC9F0"/>
<stop offset="1" stop-color="#3A0CA3" stop-opacity="0.71"/>
</linearGradient>
<clipPath id="clip0">
<rect width="3464" height="2328" fill="white"/>
</clipPath>
</defs>
</svg>
