<svg width="3464" height="2328" viewBox="0 0 3464 2328" fill="none" xmlns="http://www.w3.org/2000/svg">
<path d="M2159.39 1775.42C2145.12 1751.29 2168.8 1722.5 2195.23 1731.86L2419.67 1811.32C2447.83 1821.3 2445.7 1861.82 2416.65 1868.78L2261.25 1906.01C2248.45 1909.07 2235.15 1903.44 2228.44 1892.11L2159.39 1775.42Z" fill="#060606"/>
<path d="M2159.39 1775.42C2145.12 1751.29 2168.8 1722.5 2195.23 1731.86L2419.67 1811.32C2447.83 1821.3 2445.7 1861.82 2416.65 1868.78L2261.25 1906.01C2248.45 1909.07 2235.15 1903.44 2228.44 1892.11L2159.39 1775.42Z" fill="url(#paint0_linear)"/>
<path fill-rule="evenodd" clip-rule="evenodd" d="M1516.16 1000.52C1516.16 1000.52 1699.6 1067.16 1702.72 1069.75C1705.84 1072.34 1856.52 1167.61 1859.55 1170.14C1853.46 1165.17 1866.47 1175.93 1859.55 1170.14C1889.76 1194.84 1936.58 1217.18 1966.2 1244.13C2012.15 1285.93 2029.8 1280.6 2073.88 1322.18C2157.02 1400.59 2357.06 1493.98 2425.83 1556.45C2494.59 1618.93 2562.91 1597.64 2634.77 1660.09C2662.23 1683.96 2734.11 1708.51 2771.5 1709.76C2833.21 1711.83 2891.21 1611.13 2932.84 1587.92C2969.22 1567.64 3302.42 1245.66 3349 1244.13L3078.29 1556.45C3053.88 1592.63 2973.5 1682.56 2872.5 1786.1C2771.5 1889.64 2887.81 1778.59 2771.5 1870.34C2809.27 1848.13 2741.76 1893.8 2771.5 1870.34C2790.03 1860.15 2754.93 1880.08 2771.5 1870.34C2776.99 1870.35 2765.08 1873.87 2771.5 1870.34C2761.59 1881.67 2783.7 1858.46 2771.5 1870.34C2741.91 1920.55 2815.78 1819.75 2771.5 1870.34C2799.11 1912.65 2796.34 1828.19 2771.5 1870.34C2739.94 1821.97 2572.99 1748.13 2526.82 1709.76C2414.48 1616.4 2305.55 1575.47 2188 1486.83C2132.3 1444.84 2128.49 1428.58 2068.6 1387.05C2009.84 1346.31 1868.1 1278.36 1806.76 1238.96L1702.72 1182.24C1694.13 1177.46 1592.09 1136.76 1590.74 1135.12L1461.48 1069.75C1433.75 1054.54 1303.86 1015.88 1274.5 1000.52C1188.35 955.445 1179.34 971.557 1081.3 937.952C1049.11 926.921 606.051 729.912 573.5 719.106L168 1523.49C168 1523.49 593.641 238.408 613.5 238.405C693.425 238.394 537.198 645.643 613.5 651.5C671.898 655.983 761.395 706.631 814.5 719.106C824.06 721.35 1264.87 235.942 1274.5 238.405C1292.91 243.118 921.732 775.938 940.589 780.5C979.471 789.906 1110.87 871.913 1147.41 882.5C1185.03 893.396 1316.85 924.5 1350.5 937.952C1370.38 945.899 1516.16 1000.52 1516.16 1000.52ZM1081.3 1083.17C1056.69 1071.78 963.765 1026.05 940.589 1015.04C893.564 992.717 748.318 876.462 749.002 830.084C757.306 830.424 982.676 934.689 991.846 937.952C998.152 940.193 1003.97 942.123 1009.88 944.564C1051.77 961.859 1107.7 982.309 1147.41 1000.52C1158.95 1005.81 1170.09 1010.18 1181.76 1015.04C1190.92 1018.86 1211.12 1026.56 1214.89 1031.1C1227.49 1030.48 1484.17 1154.07 1516.16 1170.14C1561.71 1193.03 1619 1220.46 1662.78 1244.13C1667.96 1246.93 1801.44 1315.57 1806.76 1322.18C1815.55 1323.6 1907.04 1376.39 1921.64 1384.4C2102.68 1483.65 2303.18 1608.51 2476.59 1722.78C2524.78 1754.54 2586.33 1796.21 2634.77 1831.67L2673.65 1859.87C2678.12 1863.18 2683.39 1865.37 2685.96 1870.34C2668.68 1884.8 2554.15 1930.65 2526.82 1940.22C2373.47 1993.92 2229.94 2031.33 2068.6 2058.24L1966.2 2073.45L1885.55 2080.37L1951.24 2074.74C1938.7 2076.12 1926.26 2078.1 1914.06 2079.24C1896.02 2080.91 1878.13 2082.34 1859.55 2084.15C1824.55 2087.56 1783.92 2089.88 1747.95 2090.5C1703.23 2091.26 1678.59 2093.48 1641.92 2078.44C1613.5 2066.78 1590.37 2052.27 1567.78 2035.45C1483.62 1972.79 1494.02 1943.51 1461.48 1786.1C1428.94 1628.69 1428.94 1628.69 1350.5 1523.49C1272.06 1418.29 1296.34 1480.24 1274.5 1424.62C1263.43 1396.43 1157.41 1274.04 1147.41 1244.13C1141.88 1227.57 942.122 1028.55 940.589 1015.04C963.545 1018.09 1410.27 1255.28 1448.46 1275.2C1500.26 1302.22 1681.82 1398.1 1732.07 1424.62C1780.9 1450.39 1859.85 1497.25 1908.44 1523.49C2007.17 1576.8 2040.31 1604.63 2138.9 1660.09C2155.81 1669.6 2336.98 1786.1 2336.98 1786.1C2336.98 1786.1 1931.28 1663.96 1921.64 1660.09C1902.87 1652.55 1435.35 1458.21 1428.94 1457.93C1431.18 1466.71 1455.37 1510.59 1461.48 1523.49C1471.65 1544.98 1483.92 1569.43 1495.04 1590.81C1558.06 1711.94 1626.46 1857.39 1764.05 1911.08L1772.32 1915.9C1779.69 1916.06 1799.84 1924.02 1808.72 1926.39C1822.09 1929.96 1835.02 1932.43 1848.5 1935.12C1911.92 1947.73 2007.79 1941.16 2073.88 1931.11C2149.25 1919.65 2202.02 1906.8 2275.07 1889.64C2292.51 1885.55 2418.55 1851.14 2425.83 1846.47C2421.72 1839.52 2349.64 1794.64 2343.33 1790.38C2203.86 1696.18 1972.18 1557.77 1821.51 1474.48C1805.57 1465.66 1790.75 1457.65 1776.17 1449.53C1764.05 1442.78 1741.86 1431.53 1732.07 1424.62L1661.57 1387.05C1637.74 1374.2 1615.85 1363.07 1590.74 1349.15C1543.27 1322.83 1495.18 1300.77 1448.46 1275.2C1441.59 1271.44 1198.37 1139.83 1181.76 1135.12L1081.3 1083.17Z" fill="black"/>
<path fill-rule="evenodd" clip-rule="evenodd" d="M1516.16 1000.52C1516.16 1000.52 1699.6 1067.16 1702.72 1069.75C1705.84 1072.34 1856.52 1167.61 1859.55 1170.14C1853.46 1165.17 1866.47 1175.93 1859.55 1170.14C1889.76 1194.84 1936.58 1217.18 1966.2 1244.13C2012.15 1285.93 2029.8 1280.6 2073.88 1322.18C2157.02 1400.59 2357.06 1493.98 2425.83 1556.45C2494.59 1618.93 2562.91 1597.64 2634.77 1660.09C2662.23 1683.96 2734.11 1708.51 2771.5 1709.76C2833.21 1711.83 2891.21 1611.13 2932.84 1587.92C2969.22 1567.64 3302.42 1245.66 3349 1244.13L3078.29 1556.45C3053.88 1592.63 2973.5 1682.56 2872.5 1786.1C2771.5 1889.64 2887.81 1778.59 2771.5 1870.34C2809.27 1848.13 2741.76 1893.8 2771.5 1870.34C2790.03 1860.15 2754.93 1880.08 2771.5 1870.34C2776.99 1870.35 2765.08 1873.87 2771.5 1870.34C2761.59 1881.67 2783.7 1858.46 2771.5 1870.34C2741.91 1920.55 2815.78 1819.75 2771.5 1870.34C2799.11 1912.65 2796.34 1828.19 2771.5 1870.34C2739.94 1821.97 2572.99 1748.13 2526.82 1709.76C2414.48 1616.4 2305.55 1575.47 2188 1486.83C2132.3 1444.84 2128.49 1428.58 2068.6 1387.05C2009.84 1346.31 1868.1 1278.36 1806.76 1238.96L1702.72 1182.24C1694.13 1177.46 1592.09 1136.76 1590.74 1135.12L1461.48 1069.75C1433.75 1054.54 1303.86 1015.88 1274.5 1000.52C1188.35 955.445 1179.34 971.557 1081.3 937.952C1049.11 926.921 606.051 729.912 573.5 719.106L168 1523.49C168 1523.49 593.641 238.408 613.5 238.405C693.425 238.394 537.198 645.643 613.5 651.5C671.898 655.983 761.395 706.631 814.5 719.106C824.06 721.35 1264.87 235.942 1274.5 238.405C1292.91 243.118 921.732 775.938 940.589 780.5C979.471 789.906 1110.87 871.913 1147.41 882.5C1185.03 893.396 1316.85 924.5 1350.5 937.952C1370.38 945.899 1516.16 1000.52 1516.16 1000.52ZM1081.3 1083.17C1056.69 1071.78 963.765 1026.05 940.589 1015.04C893.564 992.717 748.318 876.462 749.002 830.084C757.306 830.424 982.676 934.689 991.846 937.952C998.152 940.193 1003.97 942.123 1009.88 944.564C1051.77 961.859 1107.7 982.309 1147.41 1000.52C1158.95 1005.81 1170.09 1010.18 1181.76 1015.04C1190.92 1018.86 1211.12 1026.56 1214.89 1031.1C1227.49 1030.48 1484.17 1154.07 1516.16 1170.14C1561.71 1193.03 1619 1220.46 1662.78 1244.13C1667.96 1246.93 1801.44 1315.57 1806.76 1322.18C1815.55 1323.6 1907.04 1376.39 1921.64 1384.4C2102.68 1483.65 2303.18 1608.51 2476.59 1722.78C2524.78 1754.54 2586.33 1796.21 2634.77 1831.67L2673.65 1859.87C2678.12 1863.18 2683.39 1865.37 2685.96 1870.34C2668.68 1884.8 2554.15 1930.65 2526.82 1940.22C2373.47 1993.92 2229.94 2031.33 2068.6 2058.24L1966.2 2073.45L1885.55 2080.37L1951.24 2074.74C1938.7 2076.12 1926.26 2078.1 1914.06 2079.24C1896.02 2080.91 1878.13 2082.34 1859.55 2084.15C1824.55 2087.56 1783.92 2089.88 1747.95 2090.5C1703.23 2091.26 1678.59 2093.48 1641.92 2078.44C1613.5 2066.78 1590.37 2052.27 1567.78 2035.45C1483.62 1972.79 1494.02 1943.51 1461.48 1786.1C1428.94 1628.69 1428.94 1628.69 1350.5 1523.49C1272.06 1418.29 1296.34 1480.24 1274.5 1424.62C1263.43 1396.43 1157.41 1274.04 1147.41 1244.13C1141.88 1227.57 942.122 1028.55 940.589 1015.04C963.545 1018.09 1410.27 1255.28 1448.46 1275.2C1500.26 1302.22 1681.82 1398.1 1732.07 1424.62C1780.9 1450.39 1859.85 1497.25 1908.44 1523.49C2007.17 1576.8 2040.31 1604.63 2138.9 1660.09C2155.81 1669.6 2336.98 1786.1 2336.98 1786.1C2336.98 1786.1 1931.28 1663.96 1921.64 1660.09C1902.87 1652.55 1435.35 1458.21 1428.94 1457.93C1431.18 1466.71 1455.37 1510.59 1461.48 1523.49C1471.65 1544.98 1483.92 1569.43 1495.04 1590.81C1558.06 1711.94 1626.46 1857.39 1764.05 1911.08L1772.32 1915.9C1779.69 1916.06 1799.84 1924.02 1808.72 1926.39C1822.09 1929.96 1835.02 1932.43 1848.5 1935.12C1911.92 1947.73 2007.79 1941.16 2073.88 1931.11C2149.25 1919.65 2202.02 1906.8 2275.07 1889.64C2292.51 1885.55 2418.55 1851.14 2425.83 1846.47C2421.72 1839.52 2349.64 1794.64 2343.33 1790.38C2203.86 1696.18 1972.18 1557.77 1821.51 1474.48C1805.57 1465.66 1790.75 1457.65 1776.17 1449.53C1764.05 1442.78 1741.86 1431.53 1732.07 1424.62L1661.57 1387.05C1637.74 1374.2 1615.85 1363.07 1590.74 1349.15C1543.27 1322.83 1495.18 1300.77 1448.46 1275.2C1441.59 1271.44 1198.37 1139.83 1181.76 1135.12L1081.3 1083.17Z" fill="url(#paint1_linear)"/>
<defs>
<linearGradient id="paint0_linear" x1="2179.69" y1="1665.13" x2="2387.27" y2="2018.38" gradientUnits="userSpaceOnUse">
<stop stop-color="#E0AAFF"/>
<stop offset="1" stop-color="#240046" stop-opacity="0.68"/>
</linearGradient>
<linearGradient id="paint1_linear" x1="1176" y1="145.511" x2="2800" y2="1998.51" gradientUnits="userSpaceOnUse">
<stop stop-color="#4CC9F0"/>
<stop offset="1" stop-color="#3A0CA3" stop-opacity="0.71"/>
</linearGradient>
</defs>
</svg>
