<svg width="725" height="990" viewBox="0 0 725 990" fill="none" xmlns="http://www.w3.org/2000/svg">
<rect width="725" height="990" fill="#E5E5E5"/>
<g clip-path="url(#clip0)">
<path d="M987.053 -0.354356L1097.62 412.281C1100.91 424.633 1100.53 437.734 1096.49 450.247C1092.45 462.761 1084.91 474.241 1074.64 483.518L724.402 799.176C714.365 808.17 702.099 814.767 688.782 818.335C675.465 821.904 661.544 822.323 648.355 819.553L187.213 721.303C173.677 718.406 161.408 712.233 151.655 703.414C141.902 694.595 135.014 683.445 131.692 671.1L21.127 258.465C17.8301 246.112 18.22 233.012 22.2569 220.498C26.2938 207.984 33.8334 196.504 44.1075 187.227L394.343 -128.431C404.38 -137.424 416.646 -144.022 429.963 -147.59C443.28 -151.159 457.201 -151.578 470.39 -148.807L931.532 -50.5574C945.068 -47.6602 957.337 -41.4878 967.09 -32.6689C976.843 -23.8501 983.731 -12.6999 987.053 -0.354356Z" fill="black"/>
<path d="M987.053 -0.354356L1097.62 412.281C1100.91 424.633 1100.53 437.734 1096.49 450.247C1092.45 462.761 1084.91 474.241 1074.64 483.518L724.402 799.176C714.365 808.17 702.099 814.767 688.782 818.335C675.465 821.904 661.544 822.323 648.355 819.553L187.213 721.303C173.677 718.406 161.408 712.233 151.655 703.414C141.902 694.595 135.014 683.445 131.692 671.1L21.127 258.465C17.8301 246.112 18.22 233.012 22.2569 220.498C26.2938 207.984 33.8334 196.504 44.1075 187.227L394.343 -128.431C404.38 -137.424 416.646 -144.022 429.963 -147.59C443.28 -151.159 457.201 -151.578 470.39 -148.807L931.532 -50.5574C945.068 -47.6602 957.337 -41.4878 967.09 -32.6689C976.843 -23.8501 983.731 -12.6999 987.053 -0.354356Z" fill="url(#paint0_linear)"/>
</g>
<defs>
<linearGradient id="paint0_linear" x1="429.963" y1="-147.59" x2="688.782" y2="818.335" gradientUnits="userSpaceOnUse">
<stop stop-color="#F7EBFD"/>
<stop offset="1" stop-color="#461873" stop-opacity="0"/>
</linearGradient>
<clipPath id="clip0">
<rect width="725" height="990" fill="white"/>
</clipPath>
</defs>
</svg>
