<svg width="247" height="210" viewBox="0 0 247 210" fill="none" xmlns="http://www.w3.org/2000/svg">
<path d="M157.197 186.933L116.988 131.126C115.123 128.537 114.094 125.565 114.006 122.518C113.919 119.47 114.776 116.458 116.49 113.793C118.204 111.128 120.712 108.908 123.754 107.362C126.796 105.815 130.261 105 133.791 105L214.209 105C217.739 105 221.204 105.815 224.246 107.362C227.288 108.908 229.796 111.128 231.51 113.793C233.224 116.458 234.081 119.47 233.994 122.518C233.906 125.565 232.877 128.537 231.012 131.126L190.803 186.938C189.026 189.404 186.551 191.439 183.611 192.849C180.671 194.26 177.363 195 174 195C170.637 195 167.329 194.26 164.389 192.849C161.449 191.439 158.974 189.404 157.197 186.938V186.933Z" fill="black"/>
<path d="M157.197 186.933L116.988 131.126C115.123 128.537 114.094 125.565 114.006 122.518C113.919 119.47 114.776 116.458 116.49 113.793C118.204 111.128 120.712 108.908 123.754 107.362C126.796 105.815 130.261 105 133.791 105L214.209 105C217.739 105 221.204 105.815 224.246 107.362C227.288 108.908 229.796 111.128 231.51 113.793C233.224 116.458 234.081 119.47 233.994 122.518C233.906 125.565 232.877 128.537 231.012 131.126L190.803 186.938C189.026 189.404 186.551 191.439 183.611 192.849C180.671 194.26 177.363 195 174 195C170.637 195 167.329 194.26 164.389 192.849C161.449 191.439 158.974 189.404 157.197 186.938V186.933Z" fill="url(#paint0_linear)"/>
<path d="M44 127.903V68.0966C44.0018 66.3067 44.5292 64.5493 45.5285 63.0033C46.5279 61.4573 47.9634 60.1781 49.6889 59.2959L108.489 29.3002C110.172 28.4477 112.07 28 114 28C115.93 28 117.828 28.4477 119.511 29.3002L178.311 59.2959C180.037 60.1781 181.472 61.4574 182.471 63.0033C183.471 64.5493 183.998 66.3067 184 68.0966V127.903C183.998 129.693 183.471 131.451 182.471 132.997C181.472 134.543 180.037 135.822 178.311 136.704L119.511 166.7C117.828 167.552 115.93 168 114 168C112.07 168 110.172 167.552 108.489 166.7L49.6889 136.704C47.9635 135.822 46.5279 134.543 45.5286 132.997C44.5293 131.451 44.0018 129.693 44 127.903V127.903Z" fill="black"/>
<path d="M44 127.903V68.0966C44.0018 66.3067 44.5292 64.5493 45.5285 63.0033C46.5279 61.4573 47.9634 60.1781 49.6889 59.2959L108.489 29.3002C110.172 28.4477 112.07 28 114 28C115.93 28 117.828 28.4477 119.511 29.3002L178.311 59.2959C180.037 60.1781 181.472 61.4574 182.471 63.0033C183.471 64.5493 183.998 66.3067 184 68.0966V127.903C183.998 129.693 183.471 131.451 182.471 132.997C181.472 134.543 180.037 135.822 178.311 136.704L119.511 166.7C117.828 167.552 115.93 168 114 168C112.07 168 110.172 167.552 108.489 166.7L49.6889 136.704C47.9635 135.822 46.5279 134.543 45.5286 132.997C44.5293 131.451 44.0018 129.693 44 127.903V127.903Z" fill="url(#paint1_linear)"/>
<defs>
<linearGradient id="paint0_linear" x1="174" y1="195" x2="174" y2="105" gradientUnits="userSpaceOnUse">
<stop stop-color="#F7EBFD"/>
<stop offset="1" stop-color="#461873" stop-opacity="0"/>
</linearGradient>
<linearGradient id="paint1_linear" x1="114" y1="168" x2="114" y2="28" gradientUnits="userSpaceOnUse">
<stop stop-color="#F7EBFD"/>
<stop offset="1" stop-color="#461873" stop-opacity="0"/>
</linearGradient>
</defs>
</svg>
