<svg width="57" height="48" viewBox="0 0 57 48" fill="none" xmlns="http://www.w3.org/2000/svg">
<path d="M36.6394 40.3865L28.5976 29.2251C28.2246 28.7075 28.0187 28.1131 28.0012 27.5036C27.9837 26.8941 28.1553 26.2916 28.498 25.7586C28.8408 25.2256 29.3424 24.7815 29.9508 24.4723C30.5592 24.1631 31.2522 24 31.9581 24L48.0419 24C48.7478 24 49.4408 24.1631 50.0492 24.4723C50.6576 24.7815 51.1592 25.2256 51.502 25.7586C51.8447 26.2916 52.0163 26.8941 51.9988 27.5036C51.9813 28.1131 51.7754 28.7075 51.4024 29.2251L43.3606 40.3876C43.0052 40.8809 42.5101 41.2877 41.9221 41.5699C41.3341 41.852 40.6726 42 40 42C39.3274 42 38.6659 41.852 38.0779 41.5699C37.4899 41.2877 36.9948 40.8809 36.6394 40.3876V40.3865Z" fill="#F8F8F8"/>
<path d="M36.6394 40.3865L28.5976 29.2251C28.2246 28.7075 28.0187 28.1131 28.0012 27.5036C27.9837 26.8941 28.1553 26.2916 28.498 25.7586C28.8408 25.2256 29.3424 24.7815 29.9508 24.4723C30.5592 24.1631 31.2522 24 31.9581 24L48.0419 24C48.7478 24 49.4408 24.1631 50.0492 24.4723C50.6576 24.7815 51.1592 25.2256 51.502 25.7586C51.8447 26.2916 52.0163 26.8941 51.9988 27.5036C51.9813 28.1131 51.7754 28.7075 51.4024 29.2251L43.3606 40.3876C43.0052 40.8809 42.5101 41.2877 41.9221 41.5699C41.3341 41.852 40.6726 42 40 42C39.3274 42 38.6659 41.852 38.0779 41.5699C37.4899 41.2877 36.9948 40.8809 36.6394 40.3876V40.3865Z" fill="url(#paint0_linear)"/>
<path d="M5 31.9758V17.0241C5.00044 16.5767 5.13229 16.1373 5.38213 15.7508C5.63196 15.3643 5.99085 15.0445 6.42223 14.824L21.1222 7.32506C21.543 7.11193 22.0175 7 22.5 7C22.9825 7 23.457 7.11193 23.8778 7.32506L38.5778 14.824C39.0091 15.0445 39.368 15.3643 39.6179 15.7508C39.8677 16.1373 39.9995 16.5767 40 17.0241V31.9758C39.9996 32.4233 39.8677 32.8627 39.6179 33.2492C39.368 33.6356 39.0092 33.9555 38.5778 34.176L23.8778 41.6749C23.457 41.8881 22.9825 42 22.5 42C22.0175 42 21.543 41.8881 21.1222 41.6749L6.42223 34.176C5.99086 33.9554 5.63198 33.6356 5.38215 33.2491C5.13232 32.8627 5.00046 32.4233 5 31.9758V31.9758Z" fill="#F8F8F8"/>
<path d="M5 31.9758V17.0241C5.00044 16.5767 5.13229 16.1373 5.38213 15.7508C5.63196 15.3643 5.99085 15.0445 6.42223 14.824L21.1222 7.32506C21.543 7.11193 22.0175 7 22.5 7C22.9825 7 23.457 7.11193 23.8778 7.32506L38.5778 14.824C39.0091 15.0445 39.368 15.3643 39.6179 15.7508C39.8677 16.1373 39.9995 16.5767 40 17.0241V31.9758C39.9996 32.4233 39.8677 32.8627 39.6179 33.2492C39.368 33.6356 39.0092 33.9555 38.5778 34.176L23.8778 41.6749C23.457 41.8881 22.9825 42 22.5 42C22.0175 42 21.543 41.8881 21.1222 41.6749L6.42223 34.176C5.99086 33.9554 5.63198 33.6356 5.38215 33.2491C5.13232 32.8627 5.00046 32.4233 5 31.9758V31.9758Z" fill="url(#paint1_linear)"/>
<defs>
<linearGradient id="paint0_linear" x1="40" y1="42" x2="40" y2="24" gradientUnits="userSpaceOnUse">
<stop stop-color="#F7EBFD"/>
<stop offset="1" stop-color="#F8F8F8"/>
</linearGradient>
<linearGradient id="paint1_linear" x1="22.5" y1="42" x2="22.5" y2="7" gradientUnits="userSpaceOnUse">
<stop stop-color="#F7EBFD"/>
<stop offset="1" stop-color="#F8F8F8"/>
</linearGradient>
</defs>
</svg>
