<svg width="377" height="94" viewBox="0 0 377 94" fill="none" xmlns="http://www.w3.org/2000/svg">
<g filter="url(#filter0_i_101_3)">
<path d="M0.5 0.625H28.9375C41.1042 0.625 50.3125 2.33333 56.5625 5.75C62.8125 9.16667 65.9375 15.1667 65.9375 23.75C65.9375 27.2083 65.375 30.3333 64.25 33.125C63.1667 35.9167 61.5833 38.2083 59.5 40C57.4167 41.7917 54.875 42.9583 51.875 43.5V44.125C54.9167 44.75 57.6667 45.8333 60.125 47.375C62.5833 48.875 64.5417 51.0833 66 54C67.5 56.875 68.25 60.7083 68.25 65.5C68.25 71.0417 66.8958 75.7917 64.1875 79.75C61.4792 83.7083 57.6042 86.75 52.5625 88.875C47.5625 90.9583 41.6042 92 34.6875 92H0.5V0.625ZM19.875 36.8125H31.125C36.75 36.8125 40.6458 35.9375 42.8125 34.1875C44.9792 32.3958 46.0625 29.7708 46.0625 26.3125C46.0625 22.8125 44.7708 20.3125 42.1875 18.8125C39.6458 17.2708 35.6042 16.5 30.0625 16.5H19.875V36.8125ZM19.875 52.1875V76H32.5C38.3333 76 42.3958 74.875 44.6875 72.625C46.9792 70.375 48.125 67.3542 48.125 63.5625C48.125 61.3125 47.625 59.3333 46.625 57.625C45.625 55.9167 43.9375 54.5833 41.5625 53.625C39.2292 52.6667 36 52.1875 31.875 52.1875H19.875ZM113.812 20.8125C120.271 20.8125 125.833 22.0625 130.5 24.5625C135.167 27.0208 138.771 30.6042 141.312 35.3125C143.854 40.0208 145.125 45.7708 145.125 52.5625V61.8125H100.062C100.271 67.1875 101.875 71.4167 104.875 74.5C107.917 77.5417 112.125 79.0625 117.5 79.0625C121.958 79.0625 126.042 78.6042 129.75 77.6875C133.458 76.7708 137.271 75.3958 141.188 73.5625V88.3125C137.729 90.0208 134.104 91.2708 130.312 92.0625C126.562 92.8542 122 93.25 116.625 93.25C109.625 93.25 103.417 91.9583 98 89.375C92.625 86.7917 88.3958 82.8542 85.3125 77.5625C82.2708 72.2708 80.75 65.6042 80.75 57.5625C80.75 49.3958 82.125 42.6042 84.875 37.1875C87.6667 31.7292 91.5417 27.6458 96.5 24.9375C101.458 22.1875 107.229 20.8125 113.812 20.8125ZM113.938 34.375C110.229 34.375 107.146 35.5625 104.688 37.9375C102.271 40.3125 100.875 44.0417 100.5 49.125H127.25C127.208 46.2917 126.688 43.7708 125.688 41.5625C124.729 39.3542 123.271 37.6042 121.312 36.3125C119.396 35.0208 116.938 34.375 113.938 34.375ZM189.25 20.6875C198.625 20.6875 205.812 22.7292 210.812 26.8125C215.812 30.8958 218.312 37.1042 218.312 45.4375V92H205L201.312 82.5H200.812C198.812 85 196.771 87.0417 194.688 88.625C192.604 90.2083 190.208 91.375 187.5 92.125C184.792 92.875 181.5 93.25 177.625 93.25C173.5 93.25 169.792 92.4583 166.5 90.875C163.25 89.2917 160.688 86.875 158.812 83.625C156.938 80.3333 156 76.1667 156 71.125C156 63.7083 158.604 58.25 163.812 54.75C169.021 51.2083 176.833 49.25 187.25 48.875L199.375 48.5V45.4375C199.375 41.7708 198.417 39.0833 196.5 37.375C194.583 35.6667 191.917 34.8125 188.5 34.8125C185.125 34.8125 181.812 35.2917 178.562 36.25C175.312 37.2083 172.062 38.4167 168.812 39.875L162.5 27C166.208 25.0417 170.354 23.5 174.938 22.375C179.562 21.25 184.333 20.6875 189.25 20.6875ZM199.375 59.625L192 59.875C185.833 60.0417 181.542 61.1458 179.125 63.1875C176.75 65.2292 175.562 67.9167 175.562 71.25C175.562 74.1667 176.417 76.25 178.125 77.5C179.833 78.7083 182.062 79.3125 184.812 79.3125C188.896 79.3125 192.333 78.1042 195.125 75.6875C197.958 73.2708 199.375 69.8333 199.375 65.375V59.625ZM286.75 71.25C286.75 76 285.625 80.0208 283.375 83.3125C281.167 86.5625 277.854 89.0417 273.438 90.75C269.021 92.4167 263.521 93.25 256.938 93.25C252.062 93.25 247.875 92.9375 244.375 92.3125C240.917 91.6875 237.417 90.6458 233.875 89.1875V73.4375C237.667 75.1458 241.729 76.5625 246.062 77.6875C250.438 78.7708 254.271 79.3125 257.562 79.3125C261.271 79.3125 263.917 78.7708 265.5 77.6875C267.125 76.5625 267.938 75.1042 267.938 73.3125C267.938 72.1458 267.604 71.1042 266.938 70.1875C266.312 69.2292 264.938 68.1667 262.812 67C260.688 65.7917 257.354 64.2292 252.812 62.3125C248.438 60.4792 244.833 58.625 242 56.75C239.208 54.875 237.125 52.6667 235.75 50.125C234.417 47.5417 233.75 44.2708 233.75 40.3125C233.75 33.8542 236.25 29 241.25 25.75C246.292 22.4583 253.021 20.8125 261.438 20.8125C265.771 20.8125 269.896 21.25 273.812 22.125C277.771 23 281.833 24.3958 286 26.3125L280.25 40.0625C276.792 38.5625 273.521 37.3333 270.438 36.375C267.396 35.4167 264.292 34.9375 261.125 34.9375C258.333 34.9375 256.229 35.3125 254.812 36.0625C253.396 36.8125 252.688 37.9583 252.688 39.5C252.688 40.625 253.042 41.625 253.75 42.5C254.5 43.375 255.917 44.3542 258 45.4375C260.125 46.4792 263.229 47.8333 267.312 49.5C271.271 51.125 274.708 52.8333 277.625 54.625C280.542 56.375 282.792 58.5625 284.375 61.1875C285.958 63.7708 286.75 67.125 286.75 71.25ZM331.062 78.0625C333.146 78.0625 335.167 77.8542 337.125 77.4375C339.125 77.0208 341.104 76.5 343.062 75.875V90.0625C341.021 90.9792 338.479 91.7292 335.438 92.3125C332.438 92.9375 329.146 93.25 325.562 93.25C321.396 93.25 317.646 92.5833 314.312 91.25C311.021 89.875 308.417 87.5208 306.5 84.1875C304.625 80.8125 303.688 76.125 303.688 70.125V36.4375H294.562V28.375L305.062 22L310.562 7.25H322.75V22.125H342.312V36.4375H322.75V70.125C322.75 72.7917 323.5 74.7917 325 76.125C326.542 77.4167 328.562 78.0625 331.062 78.0625ZM354.562 83.0625C354.562 79.1458 355.625 76.3958 357.75 74.8125C359.917 73.2292 362.521 72.4375 365.562 72.4375C368.521 72.4375 371.062 73.2292 373.188 74.8125C375.354 76.3958 376.438 79.1458 376.438 83.0625C376.438 86.8125 375.354 89.5208 373.188 91.1875C371.062 92.8542 368.521 93.6875 365.562 93.6875C362.521 93.6875 359.917 92.8542 357.75 91.1875C355.625 89.5208 354.562 86.8125 354.562 83.0625Z" fill="#E5E5E5"/>
</g>
<defs>
<filter id="filter0_i_101_3" x="0.5" y="0.625" width="375.938" height="97.0625" filterUnits="userSpaceOnUse" color-interpolation-filters="sRGB">
<feFlood flood-opacity="0" result="BackgroundImageFix"/>
<feBlend mode="normal" in="SourceGraphic" in2="BackgroundImageFix" result="shape"/>
<feColorMatrix in="SourceAlpha" type="matrix" values="0 0 0 0 0 0 0 0 0 0 0 0 0 0 0 0 0 0 127 0" result="hardAlpha"/>
<feOffset dy="4"/>
<feGaussianBlur stdDeviation="2"/>
<feComposite in2="hardAlpha" operator="arithmetic" k2="-1" k3="1"/>
<feColorMatrix type="matrix" values="0 0 0 0 0 0 0 0 0 0 0 0 0 0 0 0 0 0 0.25 0"/>
<feBlend mode="normal" in2="shape" result="effect1_innerShadow_101_3"/>
</filter>
</defs>
</svg>
