<svg width="399" height="274" viewBox="0 0 399 274" fill="none" xmlns="http://www.w3.org/2000/svg">
<g filter="url(#filter0_i)">
<path d="M144.374 19H57.6265C55.0714 19 53 21.9102 53 25.5C53 29.0899 55.0714 32 57.6265 32H144.374C146.929 32 149 29.0898 149 25.5C149 21.9101 146.929 19 144.374 19Z" fill="url(#paint0_linear)" fill-opacity="0.6"/>
<path d="M25.0151 62.7151C31.8209 62.7151 37.3381 57.1979 37.3381 50.3921C37.3381 43.5863 31.8209 38.0691 25.0151 38.0691C18.2093 38.0691 12.6921 43.5863 12.6921 50.3921C12.6921 57.1979 18.2093 62.7151 25.0151 62.7151Z" fill="#FF5A6D"/>
<path d="M25.2746 55.1776H26.478V45.5302H25.2813L22.714 47.3754V48.6456L25.1676 46.8672H25.2746V55.1776Z" fill="white"/>
<path d="M202.838 38.0691H180.93C179.04 38.0691 177.507 39.6016 177.507 41.4921V48.3382C177.507 50.2287 179.04 51.7613 180.93 51.7613H202.838C204.728 51.7613 206.261 50.2287 206.261 48.3382V41.4921C206.261 39.6016 204.728 38.0691 202.838 38.0691Z" fill="#FF5A6D"/>
<path d="M165.703 57.2383H52.7418C51.7966 57.2383 51.0303 58.0046 51.0303 58.9498C51.0303 59.8951 51.7966 60.6613 52.7418 60.6613H165.703C166.648 60.6613 167.414 59.8951 167.414 58.9498C167.414 58.0046 166.648 57.2383 165.703 57.2383Z" fill="#FF5A6D"/>
<path d="M65.7493 57.9229H52.7417C52.1745 57.9229 51.7148 58.3826 51.7148 58.9498C51.7148 59.5169 52.1745 59.9767 52.7417 59.9767H65.7493C66.3164 59.9767 66.7762 59.5169 66.7762 58.9498C66.7762 58.3826 66.3164 57.9229 65.7493 57.9229Z" fill="white"/>
<path d="M145.601 66.1382H52.421C51.6529 66.1382 51.0303 66.7608 51.0303 67.5289C51.0303 68.297 51.6529 68.9197 52.421 68.9197H145.601C146.369 68.9197 146.992 68.297 146.992 67.5289C146.992 66.7608 146.369 66.1382 145.601 66.1382Z" fill="white" fill-opacity="0.3"/>
<path d="M168.53 74.3965H52.5303C51.7018 74.3965 51.0303 75.0681 51.0303 75.8965C51.0303 76.7249 51.7018 77.3965 52.5303 77.3965H168.53C169.359 77.3965 170.03 76.7249 170.03 75.8965C170.03 75.0681 169.359 74.3965 168.53 74.3965Z" fill="white" fill-opacity="0.3"/>
<path d="M25.0151 122.042C31.8209 122.042 37.3381 116.525 37.3381 109.719C37.3381 102.913 31.8209 97.396 25.0151 97.396C18.2093 97.396 12.6921 102.913 12.6921 109.719C12.6921 116.525 18.2093 122.042 25.0151 122.042Z" fill="black" fill-opacity="0.2"/>
<path d="M22.301 114.504H28.5454V113.421H23.9724V113.314L26.1653 111.048C27.9103 109.249 28.3849 108.447 28.3849 107.344V107.33C28.3849 105.773 27.0946 104.629 25.4098 104.629C23.5646 104.629 22.2408 105.86 22.2341 107.571L22.2475 107.578L23.3974 107.585L23.4041 107.571C23.4041 106.435 24.173 105.679 25.3296 105.679C26.4662 105.679 27.1548 106.441 27.1548 107.457V107.471C27.1548 108.313 26.7938 108.815 25.5636 110.145L22.301 113.675V114.504Z" fill="white"/>
<path d="M202.838 97.3965H180.93C179.04 97.3965 177.507 98.929 177.507 100.82V107.666C177.507 109.556 179.04 111.089 180.93 111.089H202.838C204.728 111.089 206.261 109.556 206.261 107.666V100.82C206.261 98.929 204.728 97.3965 202.838 97.3965Z" fill="black" fill-opacity="0.2"/>
<path d="M172.549 116.566H52.7419C51.7967 116.566 51.0304 117.332 51.0304 118.278C51.0304 119.223 51.7967 119.989 52.7419 119.989H172.549C173.494 119.989 174.26 119.223 174.26 118.278C174.26 117.332 173.494 116.566 172.549 116.566Z" fill="black" fill-opacity="0.2"/>
<path d="M58.9034 117.25H52.7419C52.1747 117.25 51.715 117.71 51.715 118.277C51.715 118.844 52.1747 119.304 52.7419 119.304H58.9034C59.4705 119.304 59.9303 118.844 59.9303 118.277C59.9303 117.71 59.4705 117.25 58.9034 117.25Z" fill="white"/>
<path d="M154.53 125.466H52.5303C51.7018 125.466 51.0303 126.138 51.0303 126.966C51.0303 127.794 51.7018 128.466 52.5303 128.466H154.53C155.359 128.466 156.03 127.794 156.03 126.966C156.03 126.138 155.359 125.466 154.53 125.466Z" fill="white" fill-opacity="0.3"/>
<path d="M115.53 133.942H52.5303C51.7018 133.942 51.0303 134.614 51.0303 135.442C51.0303 136.27 51.7018 136.942 52.5303 136.942H115.53C116.359 136.942 117.03 136.27 117.03 135.442C117.03 134.614 116.359 133.942 115.53 133.942Z" fill="white" fill-opacity="0.3"/>
<path d="M115.53 142.419H52.5303C51.7018 142.419 51.0303 143.091 51.0303 143.919C51.0303 144.747 51.7018 145.419 52.5303 145.419H115.53C116.359 145.419 117.03 144.747 117.03 143.919C117.03 143.091 116.359 142.419 115.53 142.419Z" fill="white" fill-opacity="0.3"/>
<path d="M25.0151 190.065C31.8209 190.065 37.3381 184.548 37.3381 177.742C37.3381 170.936 31.8209 165.419 25.0151 165.419C18.2093 165.419 12.6921 170.936 12.6921 177.742C12.6921 184.548 18.2093 190.065 25.0151 190.065Z" fill="black" fill-opacity="0.2"/>
<path d="M25.4232 182.688C27.3553 182.688 28.7727 181.498 28.7727 179.887V179.874C28.7727 178.503 27.8167 177.627 26.4127 177.507V177.48C27.6161 177.226 28.4585 176.41 28.4585 175.22V175.207C28.4585 173.743 27.2484 172.72 25.4098 172.72C23.6047 172.72 22.3612 173.77 22.2074 175.341L22.2007 175.408H23.3573L23.364 175.341C23.4643 174.365 24.2733 173.763 25.4098 173.763C26.5865 173.763 27.2484 174.345 27.2484 175.354V175.368C27.2484 176.33 26.4461 177.039 25.2962 177.039H24.1395V178.055H25.3497C26.7002 178.055 27.5492 178.717 27.5492 179.9V179.914C27.5492 180.937 26.6868 181.645 25.4232 181.645C24.1395 181.645 23.2637 180.99 23.1701 180.041L23.1634 179.974H22.0068L22.0135 180.054C22.1405 181.578 23.4309 182.688 25.4232 182.688Z" fill="white"/>
<path d="M201.468 165.419H180.93C179.04 165.419 177.507 166.952 177.507 168.842V175.688C177.507 177.579 179.04 179.111 180.93 179.111H201.468C203.359 179.111 204.891 177.579 204.891 175.688V168.842C204.891 166.952 203.359 165.419 201.468 165.419Z" fill="black" fill-opacity="0.2"/>
<path d="M172.549 184.589H52.7419C51.7967 184.589 51.0304 185.355 51.0304 186.301C51.0304 187.246 51.7967 188.012 52.7419 188.012H172.549C173.494 188.012 174.26 187.246 174.26 186.301C174.26 185.355 173.494 184.589 172.549 184.589Z" fill="black" fill-opacity="0.2"/>
<path d="M99.9799 185.273H52.7419C52.1747 185.273 51.715 185.733 51.715 186.3C51.715 186.867 52.1747 187.327 52.7419 187.327H99.9799C100.547 187.327 101.007 186.867 101.007 186.3C101.007 185.733 100.547 185.273 99.9799 185.273Z" fill="white"/>
<path d="M145.601 193.489H52.421C51.6529 193.489 51.0303 194.112 51.0303 194.88C51.0303 195.648 51.6529 196.271 52.421 196.271H145.601C146.369 196.271 146.992 195.648 146.992 194.88C146.992 194.112 146.369 193.489 145.601 193.489Z" fill="white" fill-opacity="0.3"/>
<path d="M160.53 201.747H52.5303C51.7018 201.747 51.0303 202.419 51.0303 203.247C51.0303 204.075 51.7018 204.747 52.5303 204.747H160.53C161.359 204.747 162.03 204.075 162.03 203.247C162.03 202.419 161.359 201.747 160.53 201.747Z" fill="white" fill-opacity="0.3"/>
<path d="M110.53 210.224H52.5303C51.7018 210.224 51.0303 210.896 51.0303 211.724C51.0303 212.553 51.7018 213.224 52.5303 213.224H110.53C111.359 213.224 112.03 212.553 112.03 211.724C112.03 210.896 111.359 210.224 110.53 210.224Z" fill="white" fill-opacity="0.3"/>
</g>
<rect x="216" y="2" width="164.31" height="246.46" rx="10" fill="#007AFF"/>
<path d="M361.5 165H243.5C242.119 165 241 166.119 241 167.5C241 168.881 242.119 170 243.5 170H361.5C362.881 170 364 168.881 364 167.5C364 166.119 362.881 165 361.5 165Z" fill="white" fill-opacity="0.6"/>
<path d="M333.5 182H271.5C270.119 182 269 183.119 269 184.5C269 185.881 270.119 187 271.5 187H333.5C334.881 187 336 185.881 336 184.5C336 183.119 334.881 182 333.5 182Z" fill="white" fill-opacity="0.6"/>
<path d="M349.09 199H255.91C255.142 199 254.519 199.623 254.519 200.391C254.519 201.159 255.142 201.781 255.91 201.781H349.09C349.858 201.781 350.48 201.159 350.48 200.391C350.48 199.623 349.858 199 349.09 199Z" fill="white" fill-opacity="0.3"/>
<path d="M299.077 224.736C299.077 218.686 294.173 213.782 288.124 213.782C282.074 213.782 277.17 218.686 277.17 224.736C277.17 230.785 282.074 235.689 288.124 235.689C294.173 235.689 299.077 230.785 299.077 224.736Z" fill="white" fill-opacity="0.7"/>
<path d="M327.83 224.736C327.83 218.686 322.926 213.782 316.877 213.782C310.827 213.782 305.923 218.686 305.923 224.736C305.923 230.785 310.827 235.689 316.877 235.689C322.926 235.689 327.83 230.785 327.83 224.736Z" fill="white" fill-opacity="0.7"/>
<g clip-path="url(#clip0)">
<path d="M226.587 69.2432H275.923C276.565 69.2432 277.181 69.5676 277.636 70.1452C278.09 70.7227 278.345 71.506 278.345 72.3228V77.2146H224.165V72.3228C224.165 71.506 224.42 70.7227 224.875 70.1452C225.329 69.5676 225.945 69.2432 226.587 69.2432Z" fill="#3F3D56"/>
<path d="M274.987 68.6738C274.743 68.6751 274.501 68.7275 274.271 68.8288C274.192 68.4245 273.999 68.071 273.729 67.835C273.459 67.599 273.13 67.4968 272.805 67.5478C272.48 67.5988 272.181 67.7994 271.964 68.1117C271.747 68.4241 271.628 68.8265 271.628 69.2431C271.628 69.2517 271.63 69.2595 271.63 69.268C271.462 69.2883 271.297 69.3319 271.136 69.3982C271.091 69.1683 271.008 68.9529 270.894 68.7656C270.78 68.5783 270.636 68.4232 270.472 68.3101C270.903 68.0075 271.243 67.5337 271.441 66.9614C272.537 66.9388 273.419 65.9317 273.419 64.6881C273.419 63.4302 272.517 62.4105 271.405 62.4105C271.161 62.4119 270.919 62.4643 270.688 62.5655C270.647 62.3416 270.571 62.1306 270.463 61.9454C270.356 61.7601 270.22 61.6044 270.065 61.4877C269.909 61.3709 269.736 61.2955 269.557 61.2661C269.377 61.2366 269.195 61.2537 269.021 61.3162C268.847 61.3788 268.684 61.4856 268.544 61.6301C268.403 61.7746 268.287 61.9539 268.202 62.1572C268.117 62.3604 268.066 62.5833 268.051 62.8126C268.036 63.0418 268.057 63.2725 268.114 63.4908C268.061 63.5382 268.011 63.5914 267.961 63.6443C267.707 63.3671 267.379 63.2279 267.045 63.2568C266.873 62.628 266.532 62.0963 266.083 61.7548C265.633 61.4134 265.103 61.2839 264.586 61.3892C264.069 61.4945 263.598 61.8278 263.255 62.3307C262.912 62.8335 262.719 63.474 262.709 64.1397C262.53 64.1578 262.352 64.2028 262.181 64.2737C262.162 64.1773 262.136 64.0833 262.104 63.9927C262.28 63.7944 262.422 63.5511 262.521 63.2785C262.619 63.006 262.671 62.7102 262.673 62.4105C262.673 61.1526 261.771 60.133 260.658 60.133C260.414 60.1343 260.172 60.1867 259.942 60.288C259.901 60.0641 259.824 59.8531 259.717 59.6678C259.61 59.4826 259.474 59.3269 259.318 59.2101C259.162 59.0934 258.99 59.018 258.81 58.9885C258.631 58.959 258.448 58.9761 258.274 59.0387C258.1 59.1013 257.938 59.208 257.797 59.3526C257.657 59.4971 257.54 59.6764 257.456 59.8796C257.371 60.0828 257.319 60.3058 257.304 60.535C257.289 60.7642 257.311 60.995 257.368 61.2133C257.086 61.4623 256.853 61.7905 256.687 62.1726C256.521 62.5547 256.427 62.9803 256.411 63.4164C256.392 63.4378 256.37 63.4551 256.352 63.4778C256.386 63.3152 256.403 63.148 256.404 62.9799C256.404 61.722 255.502 60.7024 254.389 60.7024C254.146 60.7037 253.904 60.7561 253.673 60.8574C253.632 60.6334 253.555 60.4225 253.448 60.2372C253.341 60.052 253.205 59.8963 253.05 59.7795C252.894 59.6627 252.721 59.5874 252.541 59.5579C252.362 59.5284 252.18 59.5455 252.006 59.6081C251.832 59.6706 251.669 59.7774 251.529 59.9219C251.388 60.0665 251.272 60.2458 251.187 60.449C251.102 60.6522 251.051 60.8752 251.036 61.1044C251.021 61.3336 251.042 61.5644 251.099 61.7827C250.802 62.0439 250.559 62.3929 250.391 62.7998C250.223 63.2066 250.136 63.6592 250.136 64.1187C250.136 64.5781 250.223 65.0307 250.391 65.4376C250.559 65.8445 250.802 66.1935 251.099 66.4547C251.009 66.7855 251.009 67.1457 251.099 67.4765C250.875 67.6756 250.681 67.9248 250.526 68.2121C250.443 67.8296 250.258 67.4962 250.002 67.2696C249.746 67.0431 249.435 66.9377 249.124 66.9719C248.814 67.0061 248.522 67.1776 248.3 67.4566C248.079 67.7357 247.941 68.1047 247.911 68.4995C247.731 68.3658 247.537 68.2661 247.335 68.2038C247.698 67.8993 247.983 67.4678 248.157 66.9614C249.253 66.9388 250.136 65.9317 250.136 64.6881C250.136 63.4302 249.234 62.4105 248.121 62.4105C247.877 62.4119 247.635 62.4643 247.405 62.5655C247.363 62.3416 247.287 62.1306 247.179 61.9454C247.072 61.7601 246.937 61.6044 246.781 61.4877C246.625 61.3709 246.452 61.2955 246.273 61.2661C246.093 61.2366 245.911 61.2537 245.737 61.3162C245.563 61.3788 245.401 61.4856 245.26 61.6301C245.119 61.7746 245.003 61.9539 244.918 62.1572C244.834 62.3604 244.782 62.5833 244.767 62.8126C244.752 63.0418 244.773 63.2725 244.83 63.4908C244.802 63.5162 244.776 63.5461 244.748 63.5732C244.678 63.5649 244.61 63.5493 244.539 63.5493C244.295 63.5507 244.053 63.603 243.823 63.7043C243.814 63.6614 243.8 63.6215 243.789 63.5799C243.833 63.3264 243.829 63.0636 243.779 62.8121C243.729 62.5606 243.634 62.3273 243.501 62.1304C243.368 61.9336 243.201 61.7786 243.013 61.6777C242.825 61.5767 242.622 61.5325 242.418 61.5486C242.301 61.1357 242.111 60.7627 241.862 60.4588C241.614 60.1549 241.313 59.9282 240.984 59.7966C240.655 59.665 240.306 59.632 239.965 59.7002C239.625 59.7683 239.301 59.9358 239.019 60.1895C238.738 60.4432 238.506 60.7763 238.343 61.1627C238.18 61.549 238.089 61.9782 238.077 62.4167C238.066 62.8552 238.135 63.291 238.278 63.6901C238.421 64.0893 238.635 64.4409 238.903 64.7175C238.749 64.74 238.597 64.782 238.449 64.8431C238.396 64.5655 238.289 64.3094 238.137 64.0988C237.986 63.8881 237.794 63.7297 237.582 63.6383C237.369 63.5469 237.141 63.5254 236.92 63.576C236.699 63.6265 236.492 63.7474 236.317 63.9273C236.118 63.6259 235.868 63.3846 235.586 63.2208C235.304 63.0569 234.998 62.9747 234.688 62.9799C234.444 62.9813 234.202 63.0336 233.972 63.1349C233.93 62.911 233.854 62.7 233.746 62.5148C233.639 62.3295 233.504 62.1738 233.348 62.0571C233.192 61.9403 233.019 61.8649 232.84 61.8354C232.66 61.806 232.478 61.823 232.304 61.8856C232.13 61.9482 231.968 62.055 231.827 62.1995C231.686 62.344 231.57 62.5233 231.485 62.7265C231.401 62.9298 231.349 63.1527 231.334 63.3819C231.319 63.6112 231.34 63.8419 231.397 64.0602C231.1 64.3215 230.857 64.6705 230.69 65.0774C230.522 65.4842 230.434 65.9368 230.434 66.3962C230.434 66.405 230.436 66.4131 230.436 66.4219C230.118 66.3607 229.794 66.4053 229.494 66.5512C229.453 66.3273 229.376 66.1164 229.269 65.9311C229.162 65.7458 229.026 65.5901 228.87 65.4734C228.714 65.3566 228.541 65.2812 228.362 65.2518C228.183 65.2223 228 65.2394 227.826 65.302C227.652 65.3645 227.49 65.4713 227.349 65.6158C227.209 65.7604 227.092 65.9396 227.008 66.1429C226.923 66.3461 226.871 66.5691 226.856 66.7983C226.841 67.0275 226.863 67.2582 226.92 67.4765C226.488 67.8483 226.172 68.4007 226.028 69.0378C225.883 69.6749 225.918 70.3563 226.128 70.9635C226.337 71.5708 226.708 72.0654 227.174 72.3615C227.641 72.6575 228.174 72.7362 228.682 72.5838C228.763 73.1778 228.99 73.7237 229.332 74.1422C229.673 74.5607 230.11 74.83 230.58 74.9112C231.05 74.9923 231.528 74.8811 231.944 74.5935C232.361 74.306 232.695 73.8571 232.897 73.312C233.081 73.8054 233.372 74.2212 233.737 74.5093C234.101 74.7975 234.523 74.9458 234.952 74.9366C235.382 74.9274 235.799 74.761 236.156 74.4573C236.513 74.1537 236.793 73.7257 236.963 73.2247C237.227 73.22 237.488 73.1557 237.734 73.0348C237.882 73.5742 238.155 74.0441 238.516 74.3832C238.878 74.7223 239.311 74.9147 239.76 74.9352C240.209 74.9557 240.653 74.8034 241.032 74.4982C241.412 74.193 241.711 73.7491 241.889 73.2247C242.215 73.2164 242.536 73.1155 242.828 72.9292C243.032 73.3884 243.333 73.766 243.697 74.0194C244.061 74.2728 244.473 74.392 244.888 74.3635C245.302 74.335 245.702 74.16 246.042 73.8582C246.383 73.5564 246.65 73.1398 246.814 72.6553C246.934 72.6515 247.054 72.6356 247.172 72.6076C247.34 73.1243 247.623 73.5668 247.987 73.8798C248.351 74.1928 248.78 74.3624 249.219 74.3675C249.659 74.3726 250.09 74.2129 250.458 73.9084C250.827 73.6039 251.117 73.168 251.292 72.6553C251.468 72.649 251.642 72.6162 251.812 72.5577C252.262 72.7172 252.74 72.6889 253.177 72.477C253.613 72.265 253.985 71.8807 254.236 71.3804C254.096 72.0737 254.166 72.809 254.433 73.4396C254.699 74.0702 255.143 74.5497 255.676 74.7825C256.208 75.0152 256.79 74.9841 257.306 74.6954C257.821 74.4067 258.232 73.8815 258.456 73.2247C258.782 73.2164 259.103 73.1155 259.395 72.9292C259.599 73.3884 259.9 73.766 260.264 74.0194C260.628 74.2728 261.041 74.392 261.455 74.3635C261.869 74.335 262.269 74.16 262.61 73.8582C262.95 73.5564 263.217 73.1398 263.381 72.6553C263.708 72.647 264.029 72.5461 264.321 72.3598C264.478 72.7166 264.695 73.0255 264.956 73.265C265.216 73.5045 265.515 73.6689 265.831 73.7468C266.147 73.8246 266.472 73.814 266.785 73.7158C267.097 73.6175 267.389 73.434 267.64 73.1778C267.717 73.7225 267.919 74.2263 268.219 74.6271C268.519 75.0279 268.905 75.3081 269.329 75.4331C269.754 75.5582 270.197 75.5226 270.606 75.3308C271.014 75.139 271.369 74.7993 271.627 74.3537C271.896 74.6156 272.208 74.796 272.54 74.8812C272.872 74.9663 273.215 74.954 273.542 74.8451C273.87 74.7361 274.174 74.5336 274.43 74.2527C274.687 73.9719 274.89 73.6203 275.023 73.2247C276.119 73.202 277.002 72.1949 277.002 70.9513C277.002 69.6934 276.099 68.6738 274.987 68.6738ZM234.966 67.4986C234.964 67.5124 234.962 67.5264 234.96 67.5403C234.944 67.5395 234.928 67.535 234.912 67.535C234.845 67.5371 234.778 67.5457 234.712 67.5606C234.716 67.5503 234.721 67.5411 234.724 67.5308C234.805 67.5257 234.886 67.5149 234.966 67.4986ZM253.673 66.5512C253.667 66.5181 253.656 66.4876 253.648 66.4553C253.99 66.1538 254.259 65.7377 254.426 65.2533C254.721 65.2513 255.011 65.1704 255.28 65.016C255.548 64.8615 255.787 64.6369 255.983 64.3569C255.966 64.4659 255.957 64.5768 255.957 64.6881C255.958 64.8618 255.981 65.0341 256.025 65.199C255.64 65.5398 255.349 66.025 255.192 66.5866C254.705 66.3455 254.167 66.333 253.673 66.5512V66.5512ZM267.084 66.7635C267.083 66.7287 267.087 66.6927 267.085 66.658C267.142 66.6578 267.199 66.6528 267.255 66.6433C267.342 67.0117 267.487 67.3536 267.682 67.6481C267.64 67.6632 267.595 67.6723 267.554 67.69C267.482 67.3239 267.317 66.9983 267.084 66.7635Z" fill="#F9A825"/>
<path d="M228.677 72.09C228.042 72.0899 227.413 72.2544 226.83 72.5734C226.246 72.8925 225.72 73.3593 225.283 73.9455C224.846 74.5317 224.508 75.225 224.289 75.983C224.069 76.741 223.974 77.5478 224.008 78.3543L227.04 131.373C227.104 132.892 227.624 134.323 228.492 135.37C229.361 136.417 230.512 137 231.709 137H270.803C272 137 273.151 136.417 274.02 135.37C274.888 134.323 275.408 132.892 275.472 131.373L278.504 78.3543C278.538 77.5478 278.443 76.741 278.224 75.983C278.004 75.225 277.666 74.5317 277.229 73.9455C276.792 73.3593 276.266 72.8925 275.683 72.5734C275.099 72.2544 274.471 72.0899 273.835 72.09H228.677Z" fill="#3F3D56"/>
<path d="M233.568 72.0901H230.882V137H233.568V72.0901Z" fill="#007AFF"/>
<path d="M241.18 72.0901H238.494V137H241.18V72.0901Z" fill="#007AFF"/>
<path d="M248.792 72.0901H246.106V137H248.792V72.0901Z" fill="#007AFF"/>
<path d="M256.404 72.0901H253.718V137H256.404V72.0901Z" fill="#007AFF"/>
<path d="M264.016 72.0901H261.33V137H264.016V72.0901Z" fill="#007AFF"/>
<path d="M271.628 72.0901H268.942V137H271.628V72.0901Z" fill="#007AFF"/>
<path d="M315.46 45.4793L314.288 41.8519L298.673 50.0042C298.319 50.1891 298.017 50.5033 297.804 50.9071C297.591 51.3109 297.477 51.786 297.477 52.2721V73.7263H300.562V53.262L315.46 45.4793Z" fill="#3F3D56"/>
<path d="M313.453 37.91H310.09V51.4539H313.453V37.91Z" fill="#007AFF"/>
<path d="M308.128 40.7609H304.765V54.3047H308.128V40.7609Z" fill="#007AFF"/>
<path d="M302.942 52.3449L300.56 53.2358L299.579 38.801H302.942V52.3449Z" fill="#007AFF"/>
<path d="M304.904 53.9485H294.253V58.2248H304.904V53.9485Z" fill="#007AFF"/>
<path d="M304.906 59.8306H294.255V64.1069H304.906V59.8306Z" fill="#007AFF"/>
<path d="M304.904 65.7126H294.253V69.989H304.904V65.7126Z" fill="#007AFF"/>
<path d="M310.09 137H289.489L284.443 72.8398H314.576L310.09 137Z" fill="#3F3D56"/>
<path d="M316.818 71.7708H282.341V76.0471H316.818V71.7708Z" fill="#3F3D56"/>
<path d="M351.893 56.441C358.292 56.441 363.48 49.8598 363.48 41.7414C363.48 33.6231 358.292 27.0419 351.893 27.0419C345.494 27.0419 340.306 33.6231 340.306 41.7414C340.306 49.8598 345.494 56.441 351.893 56.441Z" fill="#3AD29F"/>
<path d="M359.565 41.8216L347.968 49.1134V41.8216V34.5298L359.565 41.8216Z" fill="url(#paint1_linear)"/>
<path d="M358.868 41.7758L348.663 48.1528V41.7758V35.3987L358.868 41.7758Z" fill="white"/>
<path opacity="0.2" d="M341.254 43.4231C341.256 40.3989 341.993 37.449 343.365 34.9758C344.738 32.5025 346.678 30.6262 348.922 29.6028C351.166 28.5793 353.604 28.4586 355.904 29.2569C358.204 30.0553 360.254 31.7339 361.774 34.0639C360.946 32.3367 359.846 30.8447 358.542 29.6811C357.239 28.5175 355.761 27.7074 354.199 27.3013C352.638 26.8952 351.027 26.9019 349.468 27.3209C347.909 27.74 346.434 28.5624 345.137 29.7368C343.84 30.9112 342.747 32.4123 341.928 34.1463C341.109 35.8803 340.581 37.81 340.376 39.8147C340.172 41.8194 340.295 43.856 340.74 45.7974C341.184 47.7387 341.939 49.5429 342.958 51.0974C341.84 48.7888 341.251 46.1319 341.254 43.4231Z" fill="white"/>
<path d="M349.858 118.248C349.723 118.248 349.593 118.316 349.498 118.437C349.402 118.559 349.348 118.723 349.348 118.895V136.352C349.348 136.524 349.402 136.689 349.498 136.81C349.593 136.932 349.723 137 349.858 137H373.49C373.625 137 373.755 136.932 373.85 136.81C373.946 136.689 374 136.524 374 136.352V118.895C374 118.723 373.946 118.559 373.85 118.437C373.755 118.316 373.625 118.248 373.49 118.248H349.858Z" fill="#3F3D56"/>
<path d="M352.499 119.787C352.247 119.787 352.006 119.915 351.828 120.141C351.65 120.367 351.55 120.674 351.549 120.994V134.253C351.55 134.573 351.65 134.88 351.828 135.106C352.006 135.333 352.247 135.46 352.499 135.46H370.849C371.101 135.46 371.342 135.333 371.52 135.106C371.698 134.88 371.798 134.573 371.799 134.253V120.994C371.798 120.674 371.698 120.367 371.52 120.141C371.342 119.915 371.101 119.787 370.849 119.787L352.499 119.787Z" fill="#FF6584"/>
<path d="M350.123 123.998H337.813V127.624H350.123V123.998Z" fill="#3F3D56"/>
<path d="M316.392 118.248C316.257 118.248 316.128 118.316 316.032 118.438C315.937 118.559 315.883 118.723 315.883 118.895V136.352C315.883 136.524 315.937 136.689 316.032 136.81C316.128 136.931 316.257 137 316.392 137H340.025C340.16 137 340.29 136.931 340.385 136.81C340.481 136.689 340.534 136.524 340.534 136.352V118.895C340.534 118.723 340.481 118.559 340.385 118.438C340.29 118.316 340.16 118.248 340.025 118.248H316.392Z" fill="#3F3D56"/>
<path d="M319.034 119.787C318.782 119.787 318.54 119.915 318.362 120.141C318.184 120.367 318.084 120.674 318.084 120.994V134.253C318.084 134.573 318.184 134.88 318.362 135.107C318.54 135.333 318.782 135.46 319.034 135.46H337.384C337.636 135.46 337.877 135.333 338.055 135.107C338.233 134.88 338.333 134.573 338.334 134.253V120.994C338.333 120.674 338.233 120.367 338.055 120.141C337.877 119.915 337.636 119.787 337.384 119.787L319.034 119.787Z" fill="#007AFF"/>
</g>
<path d="M57.1836 40.8926H54.5703V48H52.8125V40.8926H50.2344V39.4688H57.1836V40.8926ZM56.5977 44.7715C56.5977 44.1426 56.7188 43.582 56.9609 43.0898C57.2031 42.5977 57.5508 42.2168 58.0039 41.9473C58.4609 41.6777 58.9902 41.543 59.5918 41.543C60.4473 41.543 61.1445 41.8047 61.6836 42.3281C62.2266 42.8516 62.5293 43.5625 62.5918 44.4609L62.6035 44.8945C62.6035 45.8672 62.332 46.6484 61.7891 47.2383C61.2461 47.8242 60.5176 48.1172 59.6035 48.1172C58.6895 48.1172 57.959 47.8242 57.4121 47.2383C56.8691 46.6523 56.5977 45.8555 56.5977 44.8477V44.7715ZM58.291 44.8945C58.291 45.4961 58.4043 45.957 58.6309 46.2773C58.8574 46.5938 59.1816 46.752 59.6035 46.752C60.0137 46.752 60.334 46.5957 60.5645 46.2832C60.7949 45.9668 60.9102 45.4629 60.9102 44.7715C60.9102 44.1816 60.7949 43.7246 60.5645 43.4004C60.334 43.0762 60.0098 42.9141 59.5918 42.9141C59.1777 42.9141 58.8574 43.0762 58.6309 43.4004C58.4043 43.7207 58.291 44.2188 58.291 44.8945ZM69.1602 45.6973L69.9922 41.6602H71.627L70.0098 48H68.5918L67.3906 44.0098L66.1895 48H64.7773L63.1602 41.6602H64.7949L65.6211 45.6914L66.7812 41.6602H68.0059L69.1602 45.6973ZM75.3887 48.1172C74.459 48.1172 73.7012 47.832 73.1152 47.2617C72.5332 46.6914 72.2422 45.9316 72.2422 44.9824V44.8184C72.2422 44.1816 72.3652 43.6133 72.6113 43.1133C72.8574 42.6094 73.2051 42.2227 73.6543 41.9531C74.1074 41.6797 74.623 41.543 75.2012 41.543C76.0684 41.543 76.75 41.8164 77.2461 42.3633C77.7461 42.9102 77.9961 43.6855 77.9961 44.6895V45.3809H73.959C74.0137 45.7949 74.1777 46.127 74.4512 46.377C74.7285 46.627 75.0781 46.752 75.5 46.752C76.1523 46.752 76.6621 46.5156 77.0293 46.043L77.8613 46.9746C77.6074 47.334 77.2637 47.6152 76.8301 47.8184C76.3965 48.0176 75.916 48.1172 75.3887 48.1172ZM75.1953 42.9141C74.8594 42.9141 74.5859 43.0273 74.375 43.2539C74.168 43.4805 74.0352 43.8047 73.9766 44.2266H76.332V44.0918C76.3242 43.7168 76.2227 43.4277 76.0273 43.2246C75.832 43.0176 75.5547 42.9141 75.1953 42.9141ZM82.5254 43.248C82.2949 43.2168 82.0918 43.2012 81.916 43.2012C81.2754 43.2012 80.8555 43.418 80.6562 43.8516V48H78.9629V41.6602H80.5625L80.6094 42.416C80.9492 41.834 81.4199 41.543 82.0215 41.543C82.209 41.543 82.3848 41.5684 82.5488 41.6191L82.5254 43.248ZM86.0703 44.7715C86.0703 44.1426 86.1914 43.582 86.4336 43.0898C86.6758 42.5977 87.0234 42.2168 87.4766 41.9473C87.9336 41.6777 88.4629 41.543 89.0645 41.543C89.9199 41.543 90.6172 41.8047 91.1562 42.3281C91.6992 42.8516 92.002 43.5625 92.0645 44.4609L92.0762 44.8945C92.0762 45.8672 91.8047 46.6484 91.2617 47.2383C90.7188 47.8242 89.9902 48.1172 89.0762 48.1172C88.1621 48.1172 87.4316 47.8242 86.8848 47.2383C86.3418 46.6523 86.0703 45.8555 86.0703 44.8477V44.7715ZM87.7637 44.8945C87.7637 45.4961 87.877 45.957 88.1035 46.2773C88.3301 46.5938 88.6543 46.752 89.0762 46.752C89.4863 46.752 89.8066 46.5957 90.0371 46.2832C90.2676 45.9668 90.3828 45.4629 90.3828 44.7715C90.3828 44.1816 90.2676 43.7246 90.0371 43.4004C89.8066 43.0762 89.4824 42.9141 89.0645 42.9141C88.6504 42.9141 88.3301 43.0762 88.1035 43.4004C87.877 43.7207 87.7637 44.2188 87.7637 44.8945ZM93.582 48V42.9023H92.6387V41.6602H93.582V41.1211C93.582 40.4102 93.7852 39.8594 94.1914 39.4688C94.6016 39.0742 95.1738 38.877 95.9082 38.877C96.1426 38.877 96.4297 38.916 96.7695 38.9941L96.752 40.3066C96.6113 40.2715 96.4395 40.2539 96.2363 40.2539C95.5996 40.2539 95.2812 40.5527 95.2812 41.1504V41.6602H96.541V42.9023H95.2812V48H93.582ZM100.162 44.7832C100.162 43.8105 100.393 43.0273 100.854 42.4336C101.318 41.8398 101.943 41.543 102.729 41.543C103.424 41.543 103.965 41.7812 104.352 42.2578L104.422 41.6602H105.957V47.7891C105.957 48.3438 105.83 48.8262 105.576 49.2363C105.326 49.6465 104.973 49.959 104.516 50.1738C104.059 50.3887 103.523 50.4961 102.91 50.4961C102.445 50.4961 101.992 50.4023 101.551 50.2148C101.109 50.0312 100.775 49.793 100.549 49.5L101.299 48.4688C101.721 48.9414 102.232 49.1777 102.834 49.1777C103.283 49.1777 103.633 49.0566 103.883 48.8145C104.133 48.5762 104.258 48.2363 104.258 47.7949V47.4551C103.867 47.8965 103.354 48.1172 102.717 48.1172C101.955 48.1172 101.338 47.8203 100.865 47.2266C100.396 46.6289 100.162 45.8379 100.162 44.8535V44.7832ZM101.855 44.9062C101.855 45.4805 101.971 45.9316 102.201 46.2598C102.432 46.584 102.748 46.7461 103.15 46.7461C103.666 46.7461 104.035 46.5527 104.258 46.166V43.5C104.031 43.1133 103.666 42.9199 103.162 42.9199C102.756 42.9199 102.436 43.0859 102.201 43.418C101.971 43.75 101.855 44.2461 101.855 44.9062ZM107 44.7715C107 44.1426 107.121 43.582 107.363 43.0898C107.605 42.5977 107.953 42.2168 108.406 41.9473C108.863 41.6777 109.393 41.543 109.994 41.543C110.85 41.543 111.547 41.8047 112.086 42.3281C112.629 42.8516 112.932 43.5625 112.994 44.4609L113.006 44.8945C113.006 45.8672 112.734 46.6484 112.191 47.2383C111.648 47.8242 110.92 48.1172 110.006 48.1172C109.092 48.1172 108.361 47.8242 107.814 47.2383C107.271 46.6523 107 45.8555 107 44.8477V44.7715ZM108.693 44.8945C108.693 45.4961 108.807 45.957 109.033 46.2773C109.26 46.5938 109.584 46.752 110.006 46.752C110.416 46.752 110.736 46.5957 110.967 46.2832C111.197 45.9668 111.312 45.4629 111.312 44.7715C111.312 44.1816 111.197 43.7246 110.967 43.4004C110.736 43.0762 110.412 42.9141 109.994 42.9141C109.58 42.9141 109.26 43.0762 109.033 43.4004C108.807 43.7207 108.693 44.2188 108.693 44.8945ZM113.785 44.7832C113.785 43.7949 114.006 43.0078 114.447 42.4219C114.893 41.8359 115.5 41.543 116.27 41.543C116.887 41.543 117.396 41.7734 117.799 42.2344V39H119.498V48H117.969L117.887 47.3262C117.465 47.8535 116.922 48.1172 116.258 48.1172C115.512 48.1172 114.912 47.8242 114.459 47.2383C114.01 46.6484 113.785 45.8301 113.785 44.7832ZM115.479 44.9062C115.479 45.5 115.582 45.9551 115.789 46.2715C115.996 46.5879 116.297 46.7461 116.691 46.7461C117.215 46.7461 117.584 46.5254 117.799 46.084V43.582C117.588 43.1406 117.223 42.9199 116.703 42.9199C115.887 42.9199 115.479 43.582 115.479 44.9062Z" fill="white"/>
<path d="M50.7617 109V100.469H53.3867C54.1367 100.469 54.8066 100.639 55.3965 100.979C55.9902 101.314 56.4531 101.795 56.7852 102.42C57.1172 103.041 57.2832 103.748 57.2832 104.541V104.934C57.2832 105.727 57.1191 106.432 56.791 107.049C56.4668 107.666 56.0078 108.145 55.4141 108.484C54.8203 108.824 54.1504 108.996 53.4043 109H50.7617ZM52.5195 101.893V107.588H53.3691C54.0566 107.588 54.582 107.363 54.9453 106.914C55.3086 106.465 55.4941 105.822 55.502 104.986V104.535C55.502 103.668 55.3223 103.012 54.9629 102.566C54.6035 102.117 54.0781 101.893 53.3867 101.893H52.5195ZM62.0176 104.248C61.7871 104.217 61.584 104.201 61.4082 104.201C60.7676 104.201 60.3477 104.418 60.1484 104.852V109H58.4551V102.66H60.0547L60.1016 103.416C60.4414 102.834 60.9121 102.543 61.5137 102.543C61.7012 102.543 61.877 102.568 62.041 102.619L62.0176 104.248ZM65.9141 108.168C65.9141 107.898 66.0039 107.68 66.1836 107.512C66.3672 107.344 66.5957 107.26 66.8691 107.26C67.1465 107.26 67.375 107.344 67.5547 107.512C67.7383 107.68 67.8301 107.898 67.8301 108.168C67.8301 108.434 67.7402 108.65 67.5605 108.818C67.3809 108.982 67.1504 109.064 66.8691 109.064C66.5918 109.064 66.3633 108.982 66.1836 108.818C66.0039 108.65 65.9141 108.434 65.9141 108.168ZM73.8535 106.762C73.8535 106.43 73.7363 106.176 73.502 106C73.2676 105.82 72.8457 105.633 72.2363 105.438C71.627 105.238 71.1445 105.043 70.7891 104.852C69.8203 104.328 69.3359 103.623 69.3359 102.736C69.3359 102.275 69.4648 101.865 69.7227 101.506C69.9844 101.143 70.3574 100.859 70.8418 100.656C71.3301 100.453 71.877 100.352 72.4824 100.352C73.0918 100.352 73.6348 100.463 74.1113 100.686C74.5879 100.904 74.957 101.215 75.2188 101.617C75.4844 102.02 75.6172 102.477 75.6172 102.988H73.8594C73.8594 102.598 73.7363 102.295 73.4902 102.08C73.2441 101.861 72.8984 101.752 72.4531 101.752C72.0234 101.752 71.6895 101.844 71.4512 102.027C71.2129 102.207 71.0938 102.445 71.0938 102.742C71.0938 103.02 71.2324 103.252 71.5098 103.439C71.791 103.627 72.2031 103.803 72.7461 103.967C73.7461 104.268 74.4746 104.641 74.9316 105.086C75.3887 105.531 75.6172 106.086 75.6172 106.75C75.6172 107.488 75.3379 108.068 74.7793 108.49C74.2207 108.908 73.4688 109.117 72.5234 109.117C71.8672 109.117 71.2695 108.998 70.7305 108.76C70.1914 108.518 69.7793 108.188 69.4941 107.77C69.2129 107.352 69.0723 106.867 69.0723 106.316H70.8359C70.8359 107.258 71.3984 107.729 72.5234 107.729C72.9414 107.729 73.2676 107.645 73.502 107.477C73.7363 107.305 73.8535 107.066 73.8535 106.762ZM78.7285 101.102V102.66H79.8125V103.902H78.7285V107.066C78.7285 107.301 78.7734 107.469 78.8633 107.57C78.9531 107.672 79.125 107.723 79.3789 107.723C79.5664 107.723 79.7324 107.709 79.877 107.682V108.965C79.5449 109.066 79.2031 109.117 78.8516 109.117C77.6641 109.117 77.0586 108.518 77.0352 107.318V103.902H76.1094V102.66H77.0352V101.102H78.7285ZM80.3164 105.771C80.3164 105.143 80.4375 104.582 80.6797 104.09C80.9219 103.598 81.2695 103.217 81.7227 102.947C82.1797 102.678 82.709 102.543 83.3105 102.543C84.166 102.543 84.8633 102.805 85.4023 103.328C85.9453 103.852 86.248 104.562 86.3105 105.461L86.3223 105.895C86.3223 106.867 86.0508 107.648 85.5078 108.238C84.9648 108.824 84.2363 109.117 83.3223 109.117C82.4082 109.117 81.6777 108.824 81.1309 108.238C80.5879 107.652 80.3164 106.855 80.3164 105.848V105.771ZM82.0098 105.895C82.0098 106.496 82.123 106.957 82.3496 107.277C82.5762 107.594 82.9004 107.752 83.3223 107.752C83.7324 107.752 84.0527 107.596 84.2832 107.283C84.5137 106.967 84.6289 106.463 84.6289 105.771C84.6289 105.182 84.5137 104.725 84.2832 104.4C84.0527 104.076 83.7285 103.914 83.3105 103.914C82.8965 103.914 82.5762 104.076 82.3496 104.4C82.123 104.721 82.0098 105.219 82.0098 105.895ZM88.9238 102.66L88.9766 103.393C89.4297 102.826 90.0371 102.543 90.7988 102.543C91.4707 102.543 91.9707 102.74 92.2988 103.135C92.627 103.529 92.7949 104.119 92.8027 104.904V109H91.1094V104.945C91.1094 104.586 91.0312 104.326 90.875 104.166C90.7188 104.002 90.459 103.92 90.0957 103.92C89.6191 103.92 89.2617 104.123 89.0234 104.529V109H87.3301V102.66H88.9238ZM97.0098 109.117C96.0801 109.117 95.3223 108.832 94.7363 108.262C94.1543 107.691 93.8633 106.932 93.8633 105.982V105.818C93.8633 105.182 93.9863 104.613 94.2324 104.113C94.4785 103.609 94.8262 103.223 95.2754 102.953C95.7285 102.68 96.2441 102.543 96.8223 102.543C97.6895 102.543 98.3711 102.816 98.8672 103.363C99.3672 103.91 99.6172 104.686 99.6172 105.689V106.381H95.5801C95.6348 106.795 95.7988 107.127 96.0723 107.377C96.3496 107.627 96.6992 107.752 97.1211 107.752C97.7734 107.752 98.2832 107.516 98.6504 107.043L99.4824 107.975C99.2285 108.334 98.8848 108.615 98.4512 108.818C98.0176 109.018 97.5371 109.117 97.0098 109.117ZM96.8164 103.914C96.4805 103.914 96.207 104.027 95.9961 104.254C95.7891 104.48 95.6562 104.805 95.5977 105.227H97.9531V105.092C97.9453 104.717 97.8438 104.428 97.6484 104.225C97.4531 104.018 97.1758 103.914 96.8164 103.914ZM103.654 108.168C103.654 107.898 103.744 107.68 103.924 107.512C104.107 107.344 104.336 107.26 104.609 107.26C104.887 107.26 105.115 107.344 105.295 107.512C105.479 107.68 105.57 107.898 105.57 108.168C105.57 108.434 105.48 108.65 105.301 108.818C105.121 108.982 104.891 109.064 104.609 109.064C104.332 109.064 104.104 108.982 103.924 108.818C103.744 108.65 103.654 108.434 103.654 108.168ZM103.654 103.369C103.654 103.1 103.744 102.881 103.924 102.713C104.107 102.545 104.336 102.461 104.609 102.461C104.887 102.461 105.115 102.545 105.295 102.713C105.479 102.881 105.57 103.1 105.57 103.369C105.57 103.635 105.48 103.852 105.301 104.02C105.121 104.184 104.891 104.266 104.609 104.266C104.332 104.266 104.104 104.184 103.924 104.02C103.744 103.852 103.654 103.635 103.654 103.369ZM114.482 106.762C114.482 106.43 114.365 106.176 114.131 106C113.896 105.82 113.475 105.633 112.865 105.438C112.256 105.238 111.773 105.043 111.418 104.852C110.449 104.328 109.965 103.623 109.965 102.736C109.965 102.275 110.094 101.865 110.352 101.506C110.613 101.143 110.986 100.859 111.471 100.656C111.959 100.453 112.506 100.352 113.111 100.352C113.721 100.352 114.264 100.463 114.74 100.686C115.217 100.904 115.586 101.215 115.848 101.617C116.113 102.02 116.246 102.477 116.246 102.988H114.488C114.488 102.598 114.365 102.295 114.119 102.08C113.873 101.861 113.527 101.752 113.082 101.752C112.652 101.752 112.318 101.844 112.08 102.027C111.842 102.207 111.723 102.445 111.723 102.742C111.723 103.02 111.861 103.252 112.139 103.439C112.42 103.627 112.832 103.803 113.375 103.967C114.375 104.268 115.104 104.641 115.561 105.086C116.018 105.531 116.246 106.086 116.246 106.75C116.246 107.488 115.967 108.068 115.408 108.49C114.85 108.908 114.098 109.117 113.152 109.117C112.496 109.117 111.898 108.998 111.359 108.76C110.82 108.518 110.408 108.188 110.123 107.77C109.842 107.352 109.701 106.867 109.701 106.316H111.465C111.465 107.258 112.027 107.729 113.152 107.729C113.57 107.729 113.896 107.645 114.131 107.477C114.365 107.305 114.482 107.066 114.482 106.762ZM119.357 101.102V102.66H120.441V103.902H119.357V107.066C119.357 107.301 119.402 107.469 119.492 107.57C119.582 107.672 119.754 107.723 120.008 107.723C120.195 107.723 120.361 107.709 120.506 107.682V108.965C120.174 109.066 119.832 109.117 119.48 109.117C118.293 109.117 117.688 108.518 117.664 107.318V103.902H116.738V102.66H117.664V101.102H119.357ZM120.945 105.771C120.945 105.143 121.066 104.582 121.309 104.09C121.551 103.598 121.898 103.217 122.352 102.947C122.809 102.678 123.338 102.543 123.939 102.543C124.795 102.543 125.492 102.805 126.031 103.328C126.574 103.852 126.877 104.562 126.939 105.461L126.951 105.895C126.951 106.867 126.68 107.648 126.137 108.238C125.594 108.824 124.865 109.117 123.951 109.117C123.037 109.117 122.307 108.824 121.76 108.238C121.217 107.652 120.945 106.855 120.945 105.848V105.771ZM122.639 105.895C122.639 106.496 122.752 106.957 122.979 107.277C123.205 107.594 123.529 107.752 123.951 107.752C124.361 107.752 124.682 107.596 124.912 107.283C125.143 106.967 125.258 106.463 125.258 105.771C125.258 105.182 125.143 104.725 124.912 104.4C124.682 104.076 124.357 103.914 123.939 103.914C123.525 103.914 123.205 104.076 122.979 104.4C122.752 104.721 122.639 105.219 122.639 105.895ZM129.553 102.66L129.605 103.393C130.059 102.826 130.666 102.543 131.428 102.543C132.1 102.543 132.6 102.74 132.928 103.135C133.256 103.529 133.424 104.119 133.432 104.904V109H131.738V104.945C131.738 104.586 131.66 104.326 131.504 104.166C131.348 104.002 131.088 103.92 130.725 103.92C130.248 103.92 129.891 104.123 129.652 104.529V109H127.959V102.66H129.553ZM137.639 109.117C136.709 109.117 135.951 108.832 135.365 108.262C134.783 107.691 134.492 106.932 134.492 105.982V105.818C134.492 105.182 134.615 104.613 134.861 104.113C135.107 103.609 135.455 103.223 135.904 102.953C136.357 102.68 136.873 102.543 137.451 102.543C138.318 102.543 139 102.816 139.496 103.363C139.996 103.91 140.246 104.686 140.246 105.689V106.381H136.209C136.264 106.795 136.428 107.127 136.701 107.377C136.979 107.627 137.328 107.752 137.75 107.752C138.402 107.752 138.912 107.516 139.279 107.043L140.111 107.975C139.857 108.334 139.514 108.615 139.08 108.818C138.646 109.018 138.166 109.117 137.639 109.117ZM137.445 103.914C137.109 103.914 136.836 104.027 136.625 104.254C136.418 104.48 136.285 104.805 136.227 105.227H138.582V105.092C138.574 104.717 138.473 104.428 138.277 104.225C138.082 104.018 137.805 103.914 137.445 103.914ZM150.957 106.539L152.105 100.469H153.857L151.965 109H150.195L148.807 103.293L147.418 109H145.648L143.756 100.469H145.508L146.662 106.527L148.068 100.469H149.557L150.957 106.539ZM158.176 109C158.098 108.848 158.041 108.658 158.006 108.432C157.596 108.889 157.062 109.117 156.406 109.117C155.785 109.117 155.27 108.938 154.859 108.578C154.453 108.219 154.25 107.766 154.25 107.219C154.25 106.547 154.498 106.031 154.994 105.672C155.494 105.312 156.215 105.131 157.156 105.127H157.936V104.764C157.936 104.471 157.859 104.236 157.707 104.061C157.559 103.885 157.322 103.797 156.998 103.797C156.713 103.797 156.488 103.865 156.324 104.002C156.164 104.139 156.084 104.326 156.084 104.564H154.391C154.391 104.197 154.504 103.857 154.73 103.545C154.957 103.232 155.277 102.988 155.691 102.812C156.105 102.633 156.57 102.543 157.086 102.543C157.867 102.543 158.486 102.74 158.943 103.135C159.404 103.525 159.635 104.076 159.635 104.787V107.535C159.639 108.137 159.723 108.592 159.887 108.9V109H158.176ZM156.775 107.822C157.025 107.822 157.256 107.768 157.467 107.658C157.678 107.545 157.834 107.395 157.936 107.207V106.117H157.303C156.455 106.117 156.004 106.41 155.949 106.996L155.943 107.096C155.943 107.307 156.018 107.48 156.166 107.617C156.314 107.754 156.518 107.822 156.775 107.822ZM161.023 108.168C161.023 107.898 161.113 107.68 161.293 107.512C161.477 107.344 161.705 107.26 161.979 107.26C162.256 107.26 162.484 107.344 162.664 107.512C162.848 107.68 162.939 107.898 162.939 108.168C162.939 108.434 162.85 108.65 162.67 108.818C162.49 108.982 162.26 109.064 161.979 109.064C161.701 109.064 161.473 108.982 161.293 108.818C161.113 108.65 161.023 108.434 161.023 108.168ZM164.516 108.168C164.516 107.898 164.605 107.68 164.785 107.512C164.969 107.344 165.197 107.26 165.471 107.26C165.748 107.26 165.977 107.344 166.156 107.512C166.34 107.68 166.432 107.898 166.432 108.168C166.432 108.434 166.342 108.65 166.162 108.818C165.982 108.982 165.752 109.064 165.471 109.064C165.193 109.064 164.965 108.982 164.785 108.818C164.605 108.65 164.516 108.434 164.516 108.168Z" fill="white"/>
<path d="M54.1836 175.893H51.5703V183H49.8125V175.893H47.2344V174.469H54.1836V175.893ZM57.4707 183.117C56.541 183.117 55.7832 182.832 55.1973 182.262C54.6152 181.691 54.3242 180.932 54.3242 179.982V179.818C54.3242 179.182 54.4473 178.613 54.6934 178.113C54.9395 177.609 55.2871 177.223 55.7363 176.953C56.1895 176.68 56.7051 176.543 57.2832 176.543C58.1504 176.543 58.832 176.816 59.3281 177.363C59.8281 177.91 60.0781 178.686 60.0781 179.689V180.381H56.041C56.0957 180.795 56.2598 181.127 56.5332 181.377C56.8105 181.627 57.1602 181.752 57.582 181.752C58.2344 181.752 58.7441 181.516 59.1113 181.043L59.9434 181.975C59.6895 182.334 59.3457 182.615 58.9121 182.818C58.4785 183.018 57.998 183.117 57.4707 183.117ZM57.2773 177.914C56.9414 177.914 56.668 178.027 56.457 178.254C56.25 178.48 56.1172 178.805 56.0586 179.227H58.4141V179.092C58.4062 178.717 58.3047 178.428 58.1094 178.225C57.9141 178.018 57.6367 177.914 57.2773 177.914ZM62.6035 176.66L62.6562 177.393C63.1094 176.826 63.7168 176.543 64.4785 176.543C65.1504 176.543 65.6504 176.74 65.9785 177.135C66.3066 177.529 66.4746 178.119 66.4824 178.904V183H64.7891V178.945C64.7891 178.586 64.7109 178.326 64.5547 178.166C64.3984 178.002 64.1387 177.92 63.7754 177.92C63.2988 177.92 62.9414 178.123 62.7031 178.529V183H61.0098V176.66H62.6035ZM71.2051 181.248C71.2051 181.041 71.1016 180.879 70.8945 180.762C70.6914 180.641 70.3633 180.533 69.9102 180.439C68.4023 180.123 67.6484 179.482 67.6484 178.518C67.6484 177.955 67.8809 177.486 68.3457 177.111C68.8145 176.732 69.4258 176.543 70.1797 176.543C70.9844 176.543 71.627 176.732 72.1074 177.111C72.5918 177.49 72.834 177.982 72.834 178.588H71.1406C71.1406 178.346 71.0625 178.146 70.9062 177.99C70.75 177.83 70.5059 177.75 70.1738 177.75C69.8887 177.75 69.668 177.814 69.5117 177.943C69.3555 178.072 69.2773 178.236 69.2773 178.436C69.2773 178.623 69.3652 178.775 69.541 178.893C69.7207 179.006 70.0215 179.105 70.4434 179.191C70.8652 179.273 71.2207 179.367 71.5098 179.473C72.4043 179.801 72.8516 180.369 72.8516 181.178C72.8516 181.756 72.6035 182.225 72.1074 182.584C71.6113 182.939 70.9707 183.117 70.1855 183.117C69.6543 183.117 69.1816 183.023 68.7676 182.836C68.3574 182.645 68.0352 182.385 67.8008 182.057C67.5664 181.725 67.4492 181.367 67.4492 180.984H69.0547C69.0703 181.285 69.1816 181.516 69.3887 181.676C69.5957 181.836 69.873 181.916 70.2207 181.916C70.5449 181.916 70.7891 181.855 70.9531 181.734C71.1211 181.609 71.2051 181.447 71.2051 181.248ZM76.8652 183.117C75.9355 183.117 75.1777 182.832 74.5918 182.262C74.0098 181.691 73.7188 180.932 73.7188 179.982V179.818C73.7188 179.182 73.8418 178.613 74.0879 178.113C74.334 177.609 74.6816 177.223 75.1309 176.953C75.584 176.68 76.0996 176.543 76.6777 176.543C77.5449 176.543 78.2266 176.816 78.7227 177.363C79.2227 177.91 79.4727 178.686 79.4727 179.689V180.381H75.4355C75.4902 180.795 75.6543 181.127 75.9277 181.377C76.2051 181.627 76.5547 181.752 76.9766 181.752C77.6289 181.752 78.1387 181.516 78.5059 181.043L79.3379 181.975C79.084 182.334 78.7402 182.615 78.3066 182.818C77.873 183.018 77.3926 183.117 76.8652 183.117ZM76.6719 177.914C76.3359 177.914 76.0625 178.027 75.8516 178.254C75.6445 178.48 75.5117 178.805 75.4531 179.227H77.8086V179.092C77.8008 178.717 77.6992 178.428 77.5039 178.225C77.3086 178.018 77.0312 177.914 76.6719 177.914ZM82.2266 183H80.5273V176.66H82.2266V183ZM80.4277 175.02C80.4277 174.766 80.5117 174.557 80.6797 174.393C80.8516 174.229 81.084 174.146 81.377 174.146C81.666 174.146 81.8965 174.229 82.0684 174.393C82.2402 174.557 82.3262 174.766 82.3262 175.02C82.3262 175.277 82.2383 175.488 82.0625 175.652C81.8906 175.816 81.6621 175.898 81.377 175.898C81.0918 175.898 80.8613 175.816 80.6855 175.652C80.5137 175.488 80.4277 175.277 80.4277 175.02ZM91.1504 180.762C91.1504 180.43 91.0332 180.176 90.7988 180C90.5645 179.82 90.1426 179.633 89.5332 179.438C88.9238 179.238 88.4414 179.043 88.0859 178.852C87.1172 178.328 86.6328 177.623 86.6328 176.736C86.6328 176.275 86.7617 175.865 87.0195 175.506C87.2812 175.143 87.6543 174.859 88.1387 174.656C88.627 174.453 89.1738 174.352 89.7793 174.352C90.3887 174.352 90.9316 174.463 91.4082 174.686C91.8848 174.904 92.2539 175.215 92.5156 175.617C92.7812 176.02 92.9141 176.477 92.9141 176.988H91.1562C91.1562 176.598 91.0332 176.295 90.7871 176.08C90.541 175.861 90.1953 175.752 89.75 175.752C89.3203 175.752 88.9863 175.844 88.748 176.027C88.5098 176.207 88.3906 176.445 88.3906 176.742C88.3906 177.02 88.5293 177.252 88.8066 177.439C89.0879 177.627 89.5 177.803 90.043 177.967C91.043 178.268 91.7715 178.641 92.2285 179.086C92.6855 179.531 92.9141 180.086 92.9141 180.75C92.9141 181.488 92.6348 182.068 92.0762 182.49C91.5176 182.908 90.7656 183.117 89.8203 183.117C89.1641 183.117 88.5664 182.998 88.0273 182.76C87.4883 182.518 87.0762 182.188 86.791 181.77C86.5098 181.352 86.3691 180.867 86.3691 180.316H88.1328C88.1328 181.258 88.6953 181.729 89.8203 181.729C90.2383 181.729 90.5645 181.645 90.7988 181.477C91.0332 181.305 91.1504 181.066 91.1504 180.762ZM95.6504 177.352C96.0996 176.812 96.6641 176.543 97.3438 176.543C98.7188 176.543 99.416 177.342 99.4355 178.939V183H97.7422V178.986C97.7422 178.623 97.6641 178.355 97.5078 178.184C97.3516 178.008 97.0918 177.92 96.7285 177.92C96.2324 177.92 95.873 178.111 95.6504 178.494V183H93.957V174H95.6504V177.352ZM102.5 183H100.801V176.66H102.5V183ZM100.701 175.02C100.701 174.766 100.785 174.557 100.953 174.393C101.125 174.229 101.357 174.146 101.65 174.146C101.939 174.146 102.17 174.229 102.342 174.393C102.514 174.557 102.6 174.766 102.6 175.02C102.6 175.277 102.512 175.488 102.336 175.652C102.164 175.816 101.936 175.898 101.65 175.898C101.365 175.898 101.135 175.816 100.959 175.652C100.787 175.488 100.701 175.277 100.701 175.02ZM105.928 175.102V176.66H107.012V177.902H105.928V181.066C105.928 181.301 105.973 181.469 106.062 181.57C106.152 181.672 106.324 181.723 106.578 181.723C106.766 181.723 106.932 181.709 107.076 181.682V182.965C106.744 183.066 106.402 183.117 106.051 183.117C104.863 183.117 104.258 182.518 104.234 181.318V177.902H103.309V176.66H104.234V175.102H105.928ZM111.629 183C111.551 182.848 111.494 182.658 111.459 182.432C111.049 182.889 110.516 183.117 109.859 183.117C109.238 183.117 108.723 182.938 108.312 182.578C107.906 182.219 107.703 181.766 107.703 181.219C107.703 180.547 107.951 180.031 108.447 179.672C108.947 179.312 109.668 179.131 110.609 179.127H111.389V178.764C111.389 178.471 111.312 178.236 111.16 178.061C111.012 177.885 110.775 177.797 110.451 177.797C110.166 177.797 109.941 177.865 109.777 178.002C109.617 178.139 109.537 178.326 109.537 178.564H107.844C107.844 178.197 107.957 177.857 108.184 177.545C108.41 177.232 108.73 176.988 109.145 176.812C109.559 176.633 110.023 176.543 110.539 176.543C111.32 176.543 111.939 176.74 112.396 177.135C112.857 177.525 113.088 178.076 113.088 178.787V181.535C113.092 182.137 113.176 182.592 113.34 182.9V183H111.629ZM110.229 181.822C110.479 181.822 110.709 181.768 110.92 181.658C111.131 181.545 111.287 181.395 111.389 181.207V180.117H110.756C109.908 180.117 109.457 180.41 109.402 180.996L109.396 181.096C109.396 181.307 109.471 181.48 109.619 181.617C109.768 181.754 109.971 181.822 110.229 181.822ZM117.951 178.248C117.721 178.217 117.518 178.201 117.342 178.201C116.701 178.201 116.281 178.418 116.082 178.852V183H114.389V176.66H115.988L116.035 177.416C116.375 176.834 116.846 176.543 117.447 176.543C117.635 176.543 117.811 176.568 117.975 176.619L117.951 178.248ZM122.27 183C122.191 182.848 122.135 182.658 122.1 182.432C121.689 182.889 121.156 183.117 120.5 183.117C119.879 183.117 119.363 182.938 118.953 182.578C118.547 182.219 118.344 181.766 118.344 181.219C118.344 180.547 118.592 180.031 119.088 179.672C119.588 179.312 120.309 179.131 121.25 179.127H122.029V178.764C122.029 178.471 121.953 178.236 121.801 178.061C121.652 177.885 121.416 177.797 121.092 177.797C120.807 177.797 120.582 177.865 120.418 178.002C120.258 178.139 120.178 178.326 120.178 178.564H118.484C118.484 178.197 118.598 177.857 118.824 177.545C119.051 177.232 119.371 176.988 119.785 176.812C120.199 176.633 120.664 176.543 121.18 176.543C121.961 176.543 122.58 176.74 123.037 177.135C123.498 177.525 123.729 178.076 123.729 178.787V181.535C123.732 182.137 123.816 182.592 123.98 182.9V183H122.27ZM120.869 181.822C121.119 181.822 121.35 181.768 121.561 181.658C121.771 181.545 121.928 181.395 122.029 181.207V180.117H121.396C120.549 180.117 120.098 180.41 120.043 180.996L120.037 181.096C120.037 181.307 120.111 181.48 120.26 181.617C120.408 181.754 120.611 181.822 120.869 181.822ZM132.553 180.762C132.553 180.43 132.436 180.176 132.201 180C131.967 179.82 131.545 179.633 130.936 179.438C130.326 179.238 129.844 179.043 129.488 178.852C128.52 178.328 128.035 177.623 128.035 176.736C128.035 176.275 128.164 175.865 128.422 175.506C128.684 175.143 129.057 174.859 129.541 174.656C130.029 174.453 130.576 174.352 131.182 174.352C131.791 174.352 132.334 174.463 132.811 174.686C133.287 174.904 133.656 175.215 133.918 175.617C134.184 176.02 134.316 176.477 134.316 176.988H132.559C132.559 176.598 132.436 176.295 132.189 176.08C131.943 175.861 131.598 175.752 131.152 175.752C130.723 175.752 130.389 175.844 130.15 176.027C129.912 176.207 129.793 176.445 129.793 176.742C129.793 177.02 129.932 177.252 130.209 177.439C130.49 177.627 130.902 177.803 131.445 177.967C132.445 178.268 133.174 178.641 133.631 179.086C134.088 179.531 134.316 180.086 134.316 180.75C134.316 181.488 134.037 182.068 133.479 182.49C132.92 182.908 132.168 183.117 131.223 183.117C130.566 183.117 129.969 182.998 129.43 182.76C128.891 182.518 128.479 182.188 128.193 181.77C127.912 181.352 127.771 180.867 127.771 180.316H129.535C129.535 181.258 130.098 181.729 131.223 181.729C131.641 181.729 131.967 181.645 132.201 181.477C132.436 181.305 132.553 181.066 132.553 180.762ZM137.188 183H135.488V174H137.188V183ZM140.375 183H138.676V176.66H140.375V183ZM138.576 175.02C138.576 174.766 138.66 174.557 138.828 174.393C139 174.229 139.232 174.146 139.525 174.146C139.814 174.146 140.045 174.229 140.217 174.393C140.389 174.557 140.475 174.766 140.475 175.02C140.475 175.277 140.387 175.488 140.211 175.652C140.039 175.816 139.811 175.898 139.525 175.898C139.24 175.898 139.01 175.816 138.834 175.652C138.662 175.488 138.576 175.277 138.576 175.02ZM143.363 176.66L143.416 177.369C143.865 176.818 144.473 176.543 145.238 176.543C146.055 176.543 146.615 176.865 146.92 177.51C147.365 176.865 148 176.543 148.824 176.543C149.512 176.543 150.023 176.744 150.359 177.146C150.695 177.545 150.863 178.146 150.863 178.951V183H149.164V178.957C149.164 178.598 149.094 178.336 148.953 178.172C148.812 178.004 148.564 177.92 148.209 177.92C147.701 177.92 147.35 178.162 147.154 178.646L147.16 183H145.467V178.963C145.467 178.596 145.395 178.33 145.25 178.166C145.105 178.002 144.859 177.92 144.512 177.92C144.031 177.92 143.684 178.119 143.469 178.518V183H141.775V176.66H143.363ZM155.088 183.117C154.158 183.117 153.4 182.832 152.814 182.262C152.232 181.691 151.941 180.932 151.941 179.982V179.818C151.941 179.182 152.064 178.613 152.311 178.113C152.557 177.609 152.904 177.223 153.354 176.953C153.807 176.68 154.322 176.543 154.9 176.543C155.768 176.543 156.449 176.816 156.945 177.363C157.445 177.91 157.695 178.686 157.695 179.689V180.381H153.658C153.713 180.795 153.877 181.127 154.15 181.377C154.428 181.627 154.777 181.752 155.199 181.752C155.852 181.752 156.361 181.516 156.729 181.043L157.561 181.975C157.307 182.334 156.963 182.615 156.529 182.818C156.096 183.018 155.615 183.117 155.088 183.117ZM154.895 177.914C154.559 177.914 154.285 178.027 154.074 178.254C153.867 178.48 153.734 178.805 153.676 179.227H156.031V179.092C156.023 178.717 155.922 178.428 155.727 178.225C155.531 178.018 155.254 177.914 154.895 177.914ZM158.75 182.168C158.75 181.898 158.84 181.68 159.02 181.512C159.203 181.344 159.432 181.26 159.705 181.26C159.982 181.26 160.211 181.344 160.391 181.512C160.574 181.68 160.666 181.898 160.666 182.168C160.666 182.434 160.576 182.65 160.396 182.818C160.217 182.982 159.986 183.064 159.705 183.064C159.428 183.064 159.199 182.982 159.02 182.818C158.84 182.65 158.75 182.434 158.75 182.168ZM162.242 182.168C162.242 181.898 162.332 181.68 162.512 181.512C162.695 181.344 162.924 181.26 163.197 181.26C163.475 181.26 163.703 181.344 163.883 181.512C164.066 181.68 164.158 181.898 164.158 182.168C164.158 182.434 164.068 182.65 163.889 182.818C163.709 182.982 163.479 183.064 163.197 183.064C162.92 183.064 162.691 182.982 162.512 182.818C162.332 182.65 162.242 182.434 162.242 182.168Z" fill="white"/>
<path d="M70.1445 29.3359H69.625L68.3125 26.7109V32.7402L67.7109 32.8223C67.6927 32.5033 67.6745 32.1022 67.6562 31.6191C67.6471 31.1361 67.6335 30.6165 67.6152 30.0605C67.6061 29.4954 67.597 28.9167 67.5879 28.3242C67.5788 27.7318 67.5697 27.1621 67.5605 26.6152C67.5514 26.0684 67.5378 25.5671 67.5195 25.1113C67.5104 24.6556 67.4967 24.2865 67.4785 24.0039C67.5423 24.0039 67.6016 23.9993 67.6562 23.9902C67.7201 23.9811 67.7747 23.9766 67.8203 23.9766C67.8659 23.9674 67.9069 23.972 67.9434 23.9902C67.9798 24.0085 68.0117 24.0495 68.0391 24.1133L69.8848 28.2695L71.457 24.332C71.4753 24.2865 71.5072 24.25 71.5527 24.2227C71.6074 24.1862 71.6621 24.1543 71.7168 24.127C71.7806 24.0996 71.8444 24.0814 71.9082 24.0723C71.972 24.054 72.0267 24.0449 72.0723 24.0449C72.0814 24.0449 72.0859 24.0586 72.0859 24.0859C72.0859 24.1133 72.0951 24.209 72.1133 24.373C72.1315 24.5371 72.1589 24.7969 72.1953 25.1523C72.2409 25.4987 72.3092 25.9954 72.4004 26.6426C72.4915 27.2806 72.6055 28.0964 72.7422 29.0898C72.888 30.0742 73.0703 31.291 73.2891 32.7402C73.2526 32.8223 73.2025 32.877 73.1387 32.9043C73.084 32.9316 73.0293 32.9408 72.9746 32.9316C72.929 32.9225 72.8835 32.9043 72.8379 32.877C72.8014 32.8405 72.7786 32.7949 72.7695 32.7402L71.7305 25.3984L70.1445 29.3359ZM76.4883 38.6055C76.4883 38.1497 76.5293 37.6803 76.6113 37.1973C76.6934 36.7142 76.7754 36.2311 76.8574 35.748C76.9486 35.265 77.0215 34.7819 77.0762 34.2988C77.14 33.8158 77.1491 33.3418 77.1035 32.877L73.6992 27.1074C73.8997 26.9251 74.0592 26.8249 74.1777 26.8066C74.2962 26.7793 74.3646 26.7747 74.3828 26.793C74.4466 26.8841 74.5514 27.0527 74.6973 27.2988C74.8522 27.5449 75.0254 27.832 75.2168 28.1602C75.4173 28.4883 75.627 28.8346 75.8457 29.1992C76.0645 29.5638 76.2695 29.9102 76.4609 30.2383C76.6615 30.5664 76.8301 30.8581 76.9668 31.1133C77.1126 31.3685 77.2129 31.5462 77.2676 31.6465L77.8965 26.5742L78.5801 26.916L77.1035 38.6465L76.4883 38.6055ZM84.5273 25.918C84.5 25.9089 84.4681 25.8815 84.4316 25.8359C84.3952 25.7904 84.3633 25.7402 84.3359 25.6855C84.3086 25.6309 84.2858 25.5762 84.2676 25.5215C84.2493 25.4668 84.2448 25.4258 84.2539 25.3984C84.263 25.362 84.2904 25.3164 84.3359 25.2617C84.3815 25.207 84.4316 25.1523 84.4863 25.0977C84.541 25.0339 84.5957 24.9792 84.6504 24.9336C84.7051 24.888 84.7507 24.8652 84.7871 24.8652C84.8965 24.8379 85.0651 24.7969 85.293 24.7422C85.5299 24.6784 85.7943 24.61 86.0859 24.5371C86.3776 24.4642 86.6829 24.3913 87.002 24.3184C87.3301 24.2454 87.64 24.1771 87.9316 24.1133C88.2324 24.0404 88.4967 23.9766 88.7246 23.9219C88.9616 23.8672 89.1348 23.8307 89.2441 23.8125C89.2897 23.8034 89.3626 23.7943 89.4629 23.7852C89.5723 23.776 89.6862 23.7669 89.8047 23.7578C89.9232 23.7487 90.0326 23.7396 90.1328 23.7305C90.2422 23.7214 90.3151 23.7168 90.3516 23.7168C90.3516 23.89 90.3288 24.0176 90.2832 24.0996C90.2467 24.1725 90.1875 24.2227 90.1055 24.25C90.0326 24.2773 89.946 24.291 89.8457 24.291C89.7454 24.291 89.6315 24.3047 89.5039 24.332C89.4128 24.3594 89.2624 24.4004 89.0527 24.4551C88.8431 24.5098 88.6107 24.5736 88.3555 24.6465C88.1003 24.7103 87.8268 24.7786 87.5352 24.8516C87.2526 24.9245 86.9792 24.9974 86.7148 25.0703C86.4596 25.1432 86.2272 25.2116 86.0176 25.2754C85.8171 25.3301 85.6667 25.3711 85.5664 25.3984C85.4297 25.5534 85.3522 25.6947 85.334 25.8223C85.3158 25.9499 85.3066 26.1003 85.3066 26.2734C85.3066 26.6654 85.3294 27.0391 85.375 27.3945C85.4297 27.7409 85.4935 28.1237 85.5664 28.543C85.5846 28.543 85.6074 28.5475 85.6348 28.5566C85.6712 28.5566 85.6986 28.5566 85.7168 28.5566C85.9629 28.5566 86.1999 28.5293 86.4277 28.4746C86.6647 28.4108 86.8971 28.3424 87.125 28.2695C87.362 28.1966 87.599 28.1328 87.8359 28.0781C88.082 28.0143 88.3327 27.9824 88.5879 27.9824C88.6243 27.9824 88.6836 27.987 88.7656 27.9961C88.8568 27.9961 88.9434 28.0098 89.0254 28.0371C89.1074 28.0553 89.1712 28.0827 89.2168 28.1191C89.2624 28.1556 89.2715 28.2057 89.2441 28.2695L85.7168 29.3359V33.082C85.5527 33.082 85.4251 33.0592 85.334 33.0137C85.2428 32.9772 85.179 32.9225 85.1426 32.8496C85.1061 32.7676 85.0833 32.6764 85.0742 32.5762C85.0651 32.4668 85.056 32.3438 85.0469 32.207C85.0286 32.0521 85.0059 31.8105 84.9785 31.4824C84.9512 31.1543 84.9193 30.7852 84.8828 30.375C84.8555 29.9557 84.8236 29.5182 84.7871 29.0625C84.7507 28.6068 84.7142 28.1738 84.6777 27.7637C84.6413 27.3444 84.6094 26.9707 84.582 26.6426C84.5547 26.3145 84.5365 26.0729 84.5273 25.918ZM89.9551 31.8242C89.9551 31.3047 90.0964 30.9264 90.3789 30.6895C90.6706 30.4525 91.0488 30.334 91.5137 30.334C91.696 30.334 91.8646 30.3385 92.0195 30.3477C92.1836 30.3568 92.3385 30.3796 92.4844 30.416C92.6302 30.4525 92.7715 30.5072 92.9082 30.5801C93.054 30.653 93.2044 30.7578 93.3594 30.8945C93.3594 30.8672 93.3594 30.8125 93.3594 30.7305C93.3685 30.6393 93.373 30.5436 93.373 30.4434C93.373 30.3431 93.373 30.252 93.373 30.1699C93.373 30.0788 93.373 30.015 93.373 29.9785C93.3639 29.8145 93.3594 29.6048 93.3594 29.3496C93.3594 29.0853 93.3366 28.8164 93.291 28.543C93.2546 28.2695 93.1725 28.0098 93.0449 27.7637C92.9264 27.5176 92.7305 27.3307 92.457 27.2031C92.2656 27.2031 92.0879 27.235 91.9238 27.2988C91.7598 27.3626 91.5957 27.431 91.4316 27.5039C91.2676 27.5768 91.1035 27.6452 90.9395 27.709C90.7754 27.7637 90.5977 27.791 90.4062 27.791C90.4062 27.5632 90.4746 27.3763 90.6113 27.2305C90.7572 27.0755 90.9303 26.957 91.1309 26.875C91.3314 26.793 91.541 26.7383 91.7598 26.7109C91.9785 26.6836 92.1699 26.6699 92.334 26.6699C92.498 26.6973 92.6484 26.7292 92.7852 26.7656C92.931 26.8021 93.0632 26.875 93.1816 26.9844C93.3092 27.0938 93.4232 27.2624 93.5234 27.4902C93.6328 27.709 93.724 28.0189 93.7969 28.4199C93.8789 28.821 93.9473 29.3314 94.002 29.9512C94.0658 30.5618 94.1159 31.3138 94.1523 32.207C94.1706 32.3255 94.1296 32.4303 94.0293 32.5215C93.9382 32.6035 93.8105 32.6764 93.6465 32.7402C93.4824 32.7949 93.2956 32.8451 93.0859 32.8906C92.8854 32.9271 92.6803 32.9544 92.4707 32.9727C92.2611 32.9909 92.0605 33.0046 91.8691 33.0137C91.6777 33.0228 91.5182 33.0273 91.3906 33.0273C91.2266 33.0273 91.0579 33 90.8848 32.9453C90.7207 32.8906 90.5658 32.8132 90.4199 32.7129C90.2832 32.6035 90.1693 32.4759 90.0781 32.3301C89.9961 32.1751 89.9551 32.0065 89.9551 31.8242ZM91.7324 30.8672C91.2767 30.9948 90.9577 31.1497 90.7754 31.332C90.5931 31.5052 90.5111 31.6738 90.5293 31.8379C90.5566 32.002 90.666 32.1523 90.8574 32.2891C91.0488 32.4167 91.2812 32.5033 91.5547 32.5488C91.8281 32.5853 92.1243 32.5625 92.4434 32.4805C92.7624 32.3893 93.0677 32.2161 93.3594 31.9609C93.25 31.6966 93.1406 31.4961 93.0312 31.3594C92.9219 31.2135 92.8034 31.1042 92.6758 31.0312C92.5482 30.9583 92.4069 30.9128 92.252 30.8945C92.097 30.8763 91.9238 30.8672 91.7324 30.8672ZM94.5625 26.957L94.9863 26.5332L97.9941 32.002L99.2793 26.7109C99.3431 26.7383 99.4115 26.7611 99.4844 26.7793C99.5573 26.7884 99.6211 26.8021 99.6758 26.8203C99.7396 26.8294 99.7897 26.8431 99.8262 26.8613C99.8626 26.8796 99.8809 26.9115 99.8809 26.957C99.7624 27.5404 99.6484 28.0872 99.5391 28.5977C99.4388 29.1081 99.3294 29.6048 99.2109 30.0879C99.0924 30.571 98.9648 31.0586 98.8281 31.5508C98.6914 32.0339 98.5319 32.5397 98.3496 33.0684H97.8164L94.5625 26.957ZM107.578 24.4824C107.915 24.4824 108.207 24.5827 108.453 24.7832C108.708 24.9746 108.927 25.2344 109.109 25.5625C109.301 25.8906 109.46 26.2689 109.588 26.6973C109.715 27.1257 109.82 27.5768 109.902 28.0508C109.984 28.5156 110.048 28.9896 110.094 29.4727C110.139 29.9466 110.171 30.3932 110.189 30.8125C110.208 31.2318 110.217 31.61 110.217 31.9473C110.226 32.2845 110.23 32.5488 110.23 32.7402H109.902L109.383 29.8555C109.337 29.8099 109.232 29.7826 109.068 29.7734C108.913 29.7643 108.727 29.7689 108.508 29.7871C108.298 29.8053 108.066 29.8327 107.811 29.8691C107.564 29.8965 107.327 29.9193 107.1 29.9375C106.881 29.9466 106.68 29.9512 106.498 29.9512C106.316 29.9421 106.184 29.9102 106.102 29.8555V32.7402H105.404C105.404 32.7129 105.404 32.6628 105.404 32.5898C105.413 32.5078 105.418 32.4258 105.418 32.3438C105.418 32.2617 105.423 32.1842 105.432 32.1113C105.441 32.0384 105.445 31.9883 105.445 31.9609C105.5 31.4323 105.541 30.8991 105.568 30.3613C105.605 29.8145 105.646 29.2858 105.691 28.7754C105.737 28.265 105.796 27.7773 105.869 27.3125C105.951 26.8477 106.065 26.4284 106.211 26.0547C106.357 25.6719 106.539 25.3483 106.758 25.084C106.977 24.8105 107.25 24.61 107.578 24.4824ZM107.797 25.1113C107.56 25.1113 107.359 25.1979 107.195 25.3711C107.04 25.5352 106.913 25.7539 106.812 26.0273C106.712 26.2917 106.635 26.5879 106.58 26.916C106.525 27.2441 106.489 27.5677 106.471 27.8867C106.452 28.1966 106.439 28.4883 106.43 28.7617C106.43 29.026 106.43 29.2311 106.43 29.377C106.876 29.377 107.332 29.3451 107.797 29.2812C108.262 29.2083 108.699 29.1354 109.109 29.0625C109.118 29.026 109.123 28.9668 109.123 28.8848C109.132 28.8027 109.137 28.7116 109.137 28.6113C109.146 28.5111 109.15 28.4154 109.15 28.3242C109.16 28.2331 109.164 28.1738 109.164 28.1465C109.164 27.8457 109.146 27.5586 109.109 27.2852C109.082 27.0117 109.018 26.7474 108.918 26.4922C108.827 26.2279 108.69 25.9818 108.508 25.7539C108.335 25.526 108.098 25.3118 107.797 25.1113ZM111.023 32.9316C111.005 32.7858 110.987 32.5762 110.969 32.3027C110.96 32.0202 110.946 31.7057 110.928 31.3594C110.919 31.0039 110.91 30.6348 110.9 30.252C110.891 29.8691 110.882 29.5046 110.873 29.1582C110.864 28.8118 110.85 28.502 110.832 28.2285C110.823 27.946 110.805 27.7318 110.777 27.5859C110.777 27.5768 110.773 27.554 110.764 27.5176C110.764 27.4811 110.759 27.4401 110.75 27.3945C110.75 27.349 110.75 27.3125 110.75 27.2852C110.75 27.2487 110.75 27.2214 110.75 27.2031C110.887 27.0938 111.001 27.0573 111.092 27.0938C111.192 27.1302 111.274 27.2122 111.338 27.3398C111.402 27.4583 111.447 27.6087 111.475 27.791C111.502 27.9733 111.52 28.1556 111.529 28.3379C111.548 28.5202 111.557 28.6888 111.557 28.8438C111.557 28.9896 111.557 29.0944 111.557 29.1582C111.575 29.0033 111.602 28.821 111.639 28.6113C111.675 28.4017 111.73 28.1875 111.803 27.9688C111.876 27.75 111.962 27.5358 112.062 27.3262C112.172 27.1074 112.304 26.916 112.459 26.752C112.614 26.5879 112.787 26.4603 112.979 26.3691C113.179 26.278 113.407 26.2415 113.662 26.2598C114.063 26.278 114.391 26.3874 114.646 26.5879C114.911 26.7884 115.116 27.0573 115.262 27.3945C115.417 27.7318 115.526 28.1191 115.59 28.5566C115.663 28.9941 115.708 29.459 115.727 29.9512C115.754 30.4434 115.763 30.9447 115.754 31.4551C115.745 31.9564 115.74 32.4395 115.74 32.9043C115.658 32.9225 115.576 32.9544 115.494 33C115.412 33.0365 115.344 33.0501 115.289 33.041C115.234 33.041 115.193 33.0046 115.166 32.9316C115.148 32.8496 115.157 32.6947 115.193 32.4668C115.202 32.3027 115.216 32.0521 115.234 31.7148C115.262 31.3685 115.271 30.9857 115.262 30.5664C115.262 30.1471 115.239 29.7142 115.193 29.2676C115.148 28.821 115.061 28.4154 114.934 28.0508C114.815 27.6771 114.642 27.3763 114.414 27.1484C114.186 26.9115 113.89 26.793 113.525 26.793C113.152 26.9479 112.837 27.2396 112.582 27.668C112.336 28.0964 112.135 28.5977 111.98 29.1719C111.835 29.7461 111.725 30.3704 111.652 31.0449C111.589 31.7103 111.552 32.362 111.543 33C111.525 32.9909 111.488 32.9863 111.434 32.9863C111.388 32.9863 111.333 32.9863 111.27 32.9863C111.215 32.9772 111.16 32.9681 111.105 32.959C111.06 32.9499 111.033 32.9408 111.023 32.9316ZM117.012 27.6953C117.121 27.6953 117.212 27.6908 117.285 27.6816C117.367 27.6725 117.436 27.7181 117.49 27.8184C117.518 28.2285 117.549 28.6478 117.586 29.0762C117.622 29.4954 117.659 29.9193 117.695 30.3477C117.732 30.776 117.755 31.209 117.764 31.6465C117.782 32.0749 117.786 32.4941 117.777 32.9043C117.777 32.959 117.764 32.9909 117.736 33C117.709 33.0182 117.668 33.0228 117.613 33.0137C117.568 33.0137 117.508 33.0091 117.436 33C117.372 33 117.299 33.0091 117.217 33.0273L117.012 27.6953ZM116.219 25.248C116.219 25.1842 116.223 25.1159 116.232 25.043C116.242 24.9609 116.26 24.888 116.287 24.8242C116.324 24.7604 116.365 24.7057 116.41 24.6602C116.465 24.6146 116.529 24.5918 116.602 24.5918C116.711 24.5918 116.82 24.5964 116.93 24.6055C117.039 24.6146 117.144 24.6374 117.244 24.6738C117.344 24.7012 117.426 24.7513 117.49 24.8242C117.554 24.888 117.586 24.9837 117.586 25.1113C117.586 25.3301 117.504 25.526 117.34 25.6992C117.176 25.8633 116.975 25.9453 116.738 25.9453C116.556 25.9453 116.424 25.877 116.342 25.7402C116.26 25.5944 116.219 25.4303 116.219 25.248ZM117.012 25.3164C116.984 25.3164 116.971 25.3392 116.971 25.3848C116.971 25.4303 116.984 25.4531 117.012 25.4531C117.048 25.4531 117.066 25.4303 117.066 25.3848C117.066 25.3392 117.048 25.3164 117.012 25.3164ZM118.338 27.668C118.447 27.668 118.566 27.6953 118.693 27.75C118.821 27.8047 118.912 27.9141 118.967 28.0781C119.04 27.7682 119.149 27.5176 119.295 27.3262C119.45 27.1348 119.623 27.0026 119.814 26.9297C120.015 26.8568 120.22 26.834 120.43 26.8613C120.648 26.8796 120.849 26.9434 121.031 27.0527C121.223 27.1621 121.387 27.3034 121.523 27.4766C121.669 27.6497 121.77 27.8503 121.824 28.0781C121.924 27.7956 122.057 27.5358 122.221 27.2988C122.394 27.0527 122.581 26.8477 122.781 26.6836C122.991 26.5195 123.205 26.4056 123.424 26.3418C123.652 26.278 123.861 26.2826 124.053 26.3555C124.253 26.4193 124.426 26.5651 124.572 26.793C124.727 27.0117 124.837 27.3307 124.9 27.75C124.919 27.8685 124.941 28.0462 124.969 28.2832C124.996 28.5111 125.023 28.7708 125.051 29.0625C125.087 29.3542 125.124 29.6641 125.16 29.9922C125.206 30.3112 125.242 30.6165 125.27 30.9082C125.306 31.1999 125.338 31.4642 125.365 31.7012C125.393 31.929 125.415 32.0977 125.434 32.207C125.434 32.2982 125.429 32.3984 125.42 32.5078C125.411 32.6172 125.388 32.7129 125.352 32.7949C125.324 32.8678 125.274 32.918 125.201 32.9453C125.137 32.9635 125.037 32.9225 124.9 32.8223C124.9 32.7129 124.887 32.5352 124.859 32.2891C124.832 32.043 124.805 31.7604 124.777 31.4414C124.75 31.1133 124.714 30.7715 124.668 30.416C124.632 30.0514 124.59 29.7096 124.545 29.3906C124.508 29.0716 124.477 28.7891 124.449 28.543C124.422 28.2969 124.395 28.1237 124.367 28.0234C124.23 27.6042 124.085 27.3125 123.93 27.1484C123.784 26.9844 123.633 26.9115 123.479 26.9297C123.333 26.9479 123.191 27.0436 123.055 27.2168C122.918 27.39 122.795 27.6087 122.686 27.873C122.576 28.1374 122.471 28.4336 122.371 28.7617C122.28 29.0807 122.207 29.3997 122.152 29.7188C122.107 30.0378 122.075 30.3385 122.057 30.6211C122.048 30.9036 122.066 31.1361 122.111 31.3184L121.578 31.4277C121.605 30.5527 121.574 29.8372 121.482 29.2812C121.4 28.7161 121.282 28.2832 121.127 27.9824C120.981 27.6816 120.812 27.5039 120.621 27.4492C120.43 27.3854 120.238 27.4219 120.047 27.5586C119.865 27.6953 119.696 27.9232 119.541 28.2422C119.386 28.5612 119.268 28.9486 119.186 29.4043C119.113 29.8509 119.085 30.3568 119.104 30.9219C119.122 31.487 119.217 32.0931 119.391 32.7402H118.871C118.871 32.7402 118.857 32.6536 118.83 32.4805C118.812 32.3073 118.785 32.0885 118.748 31.8242C118.721 31.5508 118.689 31.2454 118.652 30.9082C118.616 30.5618 118.579 30.2155 118.543 29.8691C118.507 29.5137 118.47 29.1764 118.434 28.8574C118.397 28.5293 118.365 28.2513 118.338 28.0234C118.338 27.9961 118.338 27.9368 118.338 27.8457C118.338 27.7454 118.338 27.6862 118.338 27.668ZM126.117 29.7871C126.117 29.5137 126.176 29.2129 126.295 28.8848C126.413 28.5475 126.573 28.2376 126.773 27.9551C126.983 27.6634 127.215 27.4219 127.471 27.2305C127.735 27.0299 128.008 26.9297 128.291 26.9297C128.446 26.9297 128.596 26.9616 128.742 27.0254C128.897 27.0892 129.043 27.1758 129.18 27.2852C129.326 27.3854 129.453 27.5039 129.562 27.6406C129.681 27.7682 129.772 27.9049 129.836 28.0508C129.9 28.1966 129.932 28.3379 129.932 28.4746C129.941 28.6113 129.904 28.7298 129.822 28.8301L126.938 29.3633C126.901 29.3724 126.869 29.418 126.842 29.5C126.814 29.5729 126.792 29.6686 126.773 29.7871C126.755 29.9056 126.737 30.0378 126.719 30.1836C126.71 30.3203 126.701 30.457 126.691 30.5938C126.682 30.7214 126.678 30.8398 126.678 30.9492C126.678 31.0495 126.678 31.127 126.678 31.1816C126.678 31.4368 126.737 31.6465 126.855 31.8105C126.983 31.9655 127.143 32.084 127.334 32.166C127.525 32.248 127.74 32.3027 127.977 32.3301C128.223 32.3574 128.464 32.3711 128.701 32.3711C128.938 32.3711 129.161 32.362 129.371 32.3438C129.581 32.3255 129.754 32.3164 129.891 32.3164C129.891 32.3529 129.877 32.3939 129.85 32.4395C129.822 32.485 129.79 32.5306 129.754 32.5762C129.717 32.6126 129.681 32.6491 129.645 32.6855C129.608 32.7129 129.585 32.7311 129.576 32.7402C129.503 32.7585 129.389 32.7858 129.234 32.8223C129.089 32.8496 128.929 32.877 128.756 32.9043C128.592 32.9316 128.437 32.9544 128.291 32.9727C128.145 32.9909 128.045 33 127.99 33C127.708 33.0547 127.462 33.0501 127.252 32.9863C127.042 32.9225 126.865 32.8132 126.719 32.6582C126.573 32.5033 126.454 32.3164 126.363 32.0977C126.272 31.8698 126.204 31.6283 126.158 31.373C126.113 31.1178 126.085 30.8535 126.076 30.5801C126.076 30.3066 126.09 30.0423 126.117 29.7871ZM128.1 27.4492C128.018 27.4492 127.908 27.4948 127.771 27.5859C127.644 27.668 127.521 27.7773 127.402 27.9141C127.293 28.0417 127.197 28.1829 127.115 28.3379C127.042 28.4837 127.02 28.6113 127.047 28.7207C127.284 28.748 127.53 28.7435 127.785 28.707C128.04 28.6706 128.273 28.6159 128.482 28.543C128.692 28.4609 128.865 28.3698 129.002 28.2695C129.139 28.1602 129.202 28.0508 129.193 27.9414C129.193 27.832 129.107 27.7363 128.934 27.6543C128.77 27.5632 128.492 27.4948 128.1 27.4492Z" fill="white"/>
<path d="M184.821 107H180.435V106.13L182.505 103.924C182.789 103.613 182.999 103.342 183.133 103.111C183.271 102.879 183.34 102.66 183.34 102.452C183.34 102.167 183.268 101.945 183.125 101.784C182.981 101.62 182.776 101.538 182.509 101.538C182.222 101.538 181.995 101.637 181.828 101.836C181.664 102.033 181.582 102.292 181.582 102.614H180.308C180.308 102.225 180.4 101.869 180.584 101.546C180.772 101.224 181.036 100.972 181.375 100.791C181.715 100.606 182.101 100.514 182.531 100.514C183.19 100.514 183.702 100.672 184.065 100.988C184.431 101.305 184.614 101.751 184.614 102.329C184.614 102.645 184.532 102.967 184.368 103.295C184.204 103.624 183.923 104.006 183.524 104.442L182.07 105.976H184.821V107ZM189.36 104.592H190.085V105.616H189.36V107H188.09V105.616H185.467L185.41 104.816L188.077 100.602H189.36V104.592ZM186.675 104.592H188.09V102.333L188.007 102.478L186.675 104.592ZM190.885 106.376C190.885 106.174 190.953 106.01 191.087 105.884C191.225 105.758 191.396 105.695 191.602 105.695C191.81 105.695 191.981 105.758 192.116 105.884C192.253 106.01 192.322 106.174 192.322 106.376C192.322 106.575 192.255 106.738 192.12 106.864C191.985 106.987 191.812 107.048 191.602 107.048C191.394 107.048 191.222 106.987 191.087 106.864C190.953 106.738 190.885 106.575 190.885 106.376ZM190.885 102.777C190.885 102.575 190.953 102.411 191.087 102.285C191.225 102.159 191.396 102.096 191.602 102.096C191.81 102.096 191.981 102.159 192.116 102.285C192.253 102.411 192.322 102.575 192.322 102.777C192.322 102.976 192.255 103.139 192.12 103.265C191.985 103.388 191.812 103.449 191.602 103.449C191.394 103.449 191.222 103.388 191.087 103.265C190.953 103.139 190.885 102.976 190.885 102.777ZM197.618 104.354C197.618 105.239 197.435 105.916 197.068 106.385C196.702 106.854 196.166 107.088 195.46 107.088C194.763 107.088 194.229 106.858 193.86 106.398C193.491 105.938 193.302 105.279 193.293 104.42V103.243C193.293 102.349 193.478 101.671 193.847 101.208C194.219 100.745 194.754 100.514 195.451 100.514C196.148 100.514 196.682 100.744 197.051 101.204C197.42 101.661 197.609 102.318 197.618 103.177V104.354ZM196.348 103.062C196.348 102.532 196.274 102.147 196.128 101.907C195.984 101.664 195.759 101.542 195.451 101.542C195.152 101.542 194.931 101.658 194.788 101.889C194.647 102.118 194.572 102.477 194.563 102.966V104.521C194.563 105.043 194.634 105.431 194.774 105.686C194.918 105.938 195.146 106.064 195.46 106.064C195.771 106.064 195.995 105.942 196.132 105.699C196.27 105.456 196.342 105.084 196.348 104.583V103.062ZM202.786 104.354C202.786 105.239 202.603 105.916 202.236 106.385C201.87 106.854 201.334 107.088 200.628 107.088C199.931 107.088 199.397 106.858 199.028 106.398C198.659 105.938 198.47 105.279 198.461 104.42V103.243C198.461 102.349 198.646 101.671 199.015 101.208C199.387 100.745 199.922 100.514 200.619 100.514C201.316 100.514 201.85 100.744 202.219 101.204C202.588 101.661 202.777 102.318 202.786 103.177V104.354ZM201.516 103.062C201.516 102.532 201.442 102.147 201.296 101.907C201.152 101.664 200.927 101.542 200.619 101.542C200.32 101.542 200.099 101.658 199.956 101.889C199.815 102.118 199.74 102.477 199.731 102.966V104.521C199.731 105.043 199.802 105.431 199.942 105.686C200.086 105.938 200.314 106.064 200.628 106.064C200.938 106.064 201.163 105.942 201.3 105.699C201.438 105.456 201.51 105.084 201.516 104.583V103.062Z" fill="white"/>
<path d="M184.821 49H180.435V48.1299L182.505 45.9238C182.789 45.6133 182.999 45.3423 183.133 45.1108C183.271 44.8794 183.34 44.6597 183.34 44.4517C183.34 44.1675 183.268 43.9448 183.125 43.7837C182.981 43.6196 182.776 43.5376 182.509 43.5376C182.222 43.5376 181.995 43.6372 181.828 43.8364C181.664 44.0327 181.582 44.292 181.582 44.6143H180.308C180.308 44.2246 180.4 43.8687 180.584 43.5464C180.772 43.2241 181.036 42.9722 181.375 42.7905C181.715 42.606 182.101 42.5137 182.531 42.5137C183.19 42.5137 183.702 42.6719 184.065 42.9883C184.431 43.3047 184.614 43.7515 184.614 44.3286C184.614 44.645 184.532 44.9673 184.368 45.2954C184.204 45.6235 183.923 46.0059 183.524 46.4424L182.07 47.9761H184.821V49ZM185.792 45.8535L186.161 42.6016H189.747V43.6606H187.203L187.044 45.0361C187.346 44.875 187.667 44.7944 188.007 44.7944C188.616 44.7944 189.094 44.9834 189.439 45.3613C189.785 45.7393 189.958 46.2681 189.958 46.9478C189.958 47.3608 189.87 47.7314 189.694 48.0596C189.521 48.3848 189.272 48.6382 188.947 48.8198C188.622 48.9985 188.238 49.0879 187.796 49.0879C187.409 49.0879 187.05 49.0103 186.719 48.855C186.388 48.6968 186.126 48.4756 185.933 48.1914C185.742 47.9072 185.641 47.5835 185.629 47.2202H186.886C186.913 47.4868 187.005 47.6948 187.163 47.8442C187.324 47.9907 187.534 48.064 187.792 48.064C188.079 48.064 188.3 47.9614 188.455 47.7563C188.61 47.5483 188.688 47.2554 188.688 46.8774C188.688 46.5142 188.599 46.2358 188.42 46.0425C188.241 45.8491 187.988 45.7524 187.66 45.7524C187.358 45.7524 187.113 45.8315 186.926 45.9897L186.803 46.104L185.792 45.8535ZM190.885 48.376C190.885 48.1738 190.953 48.0098 191.087 47.8838C191.225 47.7578 191.396 47.6948 191.602 47.6948C191.81 47.6948 191.981 47.7578 192.116 47.8838C192.253 48.0098 192.322 48.1738 192.322 48.376C192.322 48.5752 192.255 48.7378 192.12 48.8638C191.985 48.9868 191.812 49.0483 191.602 49.0483C191.394 49.0483 191.222 48.9868 191.087 48.8638C190.953 48.7378 190.885 48.5752 190.885 48.376ZM190.885 44.7769C190.885 44.5747 190.953 44.4106 191.087 44.2847C191.225 44.1587 191.396 44.0957 191.602 44.0957C191.81 44.0957 191.981 44.1587 192.116 44.2847C192.253 44.4106 192.322 44.5747 192.322 44.7769C192.322 44.9761 192.255 45.1387 192.12 45.2646C191.985 45.3877 191.812 45.4492 191.602 45.4492C191.394 45.4492 191.222 45.3877 191.087 45.2646C190.953 45.1387 190.885 44.9761 190.885 44.7769ZM197.697 49H193.311V48.1299L195.381 45.9238C195.665 45.6133 195.875 45.3423 196.009 45.1108C196.147 44.8794 196.216 44.6597 196.216 44.4517C196.216 44.1675 196.144 43.9448 196 43.7837C195.857 43.6196 195.652 43.5376 195.385 43.5376C195.098 43.5376 194.871 43.6372 194.704 43.8364C194.54 44.0327 194.458 44.292 194.458 44.6143H193.184C193.184 44.2246 193.276 43.8687 193.46 43.5464C193.648 43.2241 193.912 42.9722 194.251 42.7905C194.591 42.606 194.977 42.5137 195.407 42.5137C196.066 42.5137 196.578 42.6719 196.941 42.9883C197.307 43.3047 197.49 43.7515 197.49 44.3286C197.49 44.645 197.408 44.9673 197.244 45.2954C197.08 45.6235 196.799 46.0059 196.4 46.4424L194.946 47.9761H197.697V49ZM202.236 46.5918H202.961V47.6157H202.236V49H200.966V47.6157H198.343L198.286 46.8159L200.953 42.6016H202.236V46.5918ZM199.551 46.5918H200.966V44.333L200.883 44.478L199.551 46.5918Z" fill="white"/>
<path d="M182.821 175H178.435V174.13L180.505 171.924C180.789 171.613 180.999 171.342 181.133 171.111C181.271 170.879 181.34 170.66 181.34 170.452C181.34 170.167 181.268 169.945 181.125 169.784C180.981 169.62 180.776 169.538 180.509 169.538C180.222 169.538 179.995 169.637 179.828 169.836C179.664 170.033 179.582 170.292 179.582 170.614H178.308C178.308 170.225 178.4 169.869 178.584 169.546C178.772 169.224 179.036 168.972 179.375 168.791C179.715 168.606 180.101 168.514 180.531 168.514C181.19 168.514 181.702 168.672 182.065 168.988C182.431 169.305 182.614 169.751 182.614 170.329C182.614 170.645 182.532 170.967 182.368 171.295C182.204 171.624 181.923 172.006 181.524 172.442L180.07 173.976H182.821V175ZM184.895 171.238H185.572C185.894 171.238 186.133 171.158 186.288 170.997C186.443 170.835 186.521 170.622 186.521 170.355C186.521 170.097 186.443 169.896 186.288 169.753C186.136 169.609 185.925 169.538 185.655 169.538C185.412 169.538 185.208 169.605 185.044 169.74C184.88 169.872 184.798 170.044 184.798 170.258H183.528C183.528 169.924 183.618 169.625 183.796 169.362C183.978 169.095 184.23 168.887 184.552 168.738C184.877 168.588 185.235 168.514 185.625 168.514C186.301 168.514 186.832 168.676 187.215 169.001C187.599 169.324 187.791 169.769 187.791 170.337C187.791 170.63 187.702 170.9 187.523 171.146C187.344 171.392 187.11 171.581 186.82 171.713C187.18 171.842 187.448 172.035 187.624 172.293C187.803 172.551 187.892 172.855 187.892 173.207C187.892 173.775 187.684 174.231 187.268 174.574C186.855 174.917 186.307 175.088 185.625 175.088C184.986 175.088 184.463 174.919 184.056 174.583C183.651 174.246 183.449 173.8 183.449 173.247H184.719C184.719 173.487 184.809 173.683 184.987 173.835C185.169 173.988 185.392 174.064 185.655 174.064C185.957 174.064 186.193 173.985 186.363 173.827C186.536 173.666 186.622 173.453 186.622 173.189C186.622 172.551 186.271 172.231 185.567 172.231H184.895V171.238ZM188.885 174.376C188.885 174.174 188.953 174.01 189.087 173.884C189.225 173.758 189.396 173.695 189.602 173.695C189.81 173.695 189.981 173.758 190.116 173.884C190.253 174.01 190.322 174.174 190.322 174.376C190.322 174.575 190.255 174.738 190.12 174.864C189.985 174.987 189.812 175.048 189.602 175.048C189.394 175.048 189.222 174.987 189.087 174.864C188.953 174.738 188.885 174.575 188.885 174.376ZM188.885 170.777C188.885 170.575 188.953 170.411 189.087 170.285C189.225 170.159 189.396 170.096 189.602 170.096C189.81 170.096 189.981 170.159 190.116 170.285C190.253 170.411 190.322 170.575 190.322 170.777C190.322 170.976 190.255 171.139 190.12 171.265C189.985 171.388 189.812 171.449 189.602 171.449C189.394 171.449 189.222 171.388 189.087 171.265C188.953 171.139 188.885 170.976 188.885 170.777ZM195.068 172.592H195.793V173.616H195.068V175H193.798V173.616H191.175L191.118 172.816L193.785 168.602H195.068V172.592ZM192.383 172.592H193.798V170.333L193.715 170.478L192.383 172.592ZM200.865 175H196.479V174.13L198.549 171.924C198.833 171.613 199.042 171.342 199.177 171.111C199.315 170.879 199.384 170.66 199.384 170.452C199.384 170.167 199.312 169.945 199.168 169.784C199.025 169.62 198.82 169.538 198.553 169.538C198.266 169.538 198.039 169.637 197.872 169.836C197.708 170.033 197.626 170.292 197.626 170.614H196.352C196.352 170.225 196.444 169.869 196.628 169.546C196.816 169.224 197.08 168.972 197.419 168.791C197.759 168.606 198.145 168.514 198.575 168.514C199.234 168.514 199.746 168.672 200.109 168.988C200.475 169.305 200.658 169.751 200.658 170.329C200.658 170.645 200.576 170.967 200.412 171.295C200.248 171.624 199.967 172.006 199.568 172.442L198.114 173.976H200.865V175Z" fill="white"/>
<defs>
<filter id="filter0_i" x="12.6921" y="19" width="193.568" height="194.224" filterUnits="userSpaceOnUse" color-interpolation-filters="sRGB">
<feFlood flood-opacity="0" result="BackgroundImageFix"/>
<feBlend mode="normal" in="SourceGraphic" in2="BackgroundImageFix" result="shape"/>
<feColorMatrix in="SourceAlpha" type="matrix" values="0 0 0 0 0 0 0 0 0 0 0 0 0 0 0 0 0 0 127 0" result="hardAlpha"/>
<feOffset/>
<feGaussianBlur stdDeviation="2"/>
<feComposite in2="hardAlpha" operator="arithmetic" k2="-1" k3="1"/>
<feColorMatrix type="matrix" values="0 0 0 0 1 0 0 0 0 1 0 0 0 0 1 0 0 0 0.2 0"/>
<feBlend mode="normal" in2="shape" result="effect1_innerShadow"/>
</filter>
<linearGradient id="paint0_linear" x1="101" y1="19" x2="101" y2="32" gradientUnits="userSpaceOnUse">
<stop stop-color="#007AFF"/>
<stop offset="0.515625" stop-color="#1360B4" stop-opacity="0.47"/>
<stop offset="1" stop-color="#155FB0" stop-opacity="0"/>
</linearGradient>
<linearGradient id="paint1_linear" x1="353.766" y1="49.1135" x2="353.766" y2="34.5298" gradientUnits="userSpaceOnUse">
<stop stop-opacity="0.12"/>
<stop offset="0.55" stop-opacity="0.09"/>
<stop offset="1" stop-opacity="0.02"/>
</linearGradient>
<clipPath id="clip0">
<rect width="150" height="110" fill="white" transform="translate(224 27)"/>
</clipPath>
</defs>
</svg>

